<svg width="530" height="263" viewBox="0 0 530 263" fill="none" xmlns="http://www.w3.org/2000/svg">
<path fill-rule="evenodd" clip-rule="evenodd" d="M322.918 166.269H314.804C312.308 166.269 310.279 164.242 310.279 161.747V151.8L297.704 154.856L301.074 168.077C304.631 216.473 240.816 221.774 238.413 169.356L198.875 179.023V178.991L173.068 184.604L190.262 253.175L226.087 244.538C231.017 254.08 234.637 260.69 234.637 260.69H345.199L322.918 166.269Z" fill="#333333"/>
<path fill-rule="evenodd" clip-rule="evenodd" d="M43.2017 60.5593C52.854 60.6798 61.5658 61.9302 69.4148 64.2137C69.9113 64.3581 70.1965 64.8773 70.052 65.3734C69.9075 65.8695 69.3879 66.1545 68.8915 66.0101C61.4732 63.8519 53.2527 62.6344 44.1563 62.4463L43.9224 62.4417L43.8752 62.6547C43.7072 63.4199 43.5388 64.3122 43.3813 65.3218C42.1325 73.3265 42.3203 82.6065 44.9365 92.3094C45.071 92.8083 44.7754 93.3216 44.2761 93.456C43.7769 93.5905 43.2632 93.295 43.1287 92.7962C40.4695 82.9343 40.2498 73.5039 41.4865 65.3252L41.5313 65.0337C41.6948 63.9855 41.8703 63.0557 42.0463 62.2539L42.0984 62.0204C42.1239 61.908 42.1486 61.8022 42.1723 61.7032L42.2734 61.2983C42.2789 61.2777 42.2836 61.2604 42.2875 61.2463C42.4005 60.8362 42.7761 60.554 43.2017 60.5593Z" fill="#FE7624"/>
<path fill-rule="evenodd" clip-rule="evenodd" d="M68.1692 64.8537C68.2601 64.3451 68.7465 64.0065 69.2554 64.0974C69.7644 64.1883 70.1033 64.6742 70.0124 65.1828C68.2168 75.2246 68.3629 84.9932 70.1975 94.5594C70.2948 95.0668 69.962 95.557 69.4542 95.6543C68.9464 95.7515 68.4559 95.419 68.3586 94.9116C66.4818 85.1256 66.3324 75.1265 68.1692 64.8537Z" fill="#FE7624"/>
<path fill-rule="evenodd" clip-rule="evenodd" d="M98.1288 8.11334C98.4145 7.79071 98.8839 7.70486 99.2655 7.9054L99.4179 7.98731C99.5377 8.05254 99.6785 8.13054 99.8395 8.22134L100.122 8.38215C100.462 8.57701 100.836 8.79724 101.243 9.04296L101.419 9.14983C103.111 10.1792 104.994 11.4208 107.021 12.8773C112.806 17.0348 118.589 22.0848 123.987 28.0504C127.344 31.7606 130.449 35.7189 133.249 39.9284C133.535 40.3587 133.418 40.9393 132.988 41.2253C132.557 41.5114 131.976 41.3944 131.69 40.9641C128.942 36.8339 125.895 32.9484 122.598 29.3053C117.294 23.4437 111.61 18.4801 105.928 14.3963C104.036 13.0364 102.273 11.8693 100.683 10.893L100.445 10.748C100.042 10.5025 99.6704 10.2824 99.3334 10.0874L99.0345 9.91614L99.0311 9.91991C82.7781 28.4232 73.4388 46.7047 70.1123 64.6341L70.0123 65.1828C69.9214 65.6914 69.4351 66.0301 68.9261 65.9392C68.4171 65.8484 68.0782 65.3624 68.1692 64.8538C71.5015 46.2132 81.1803 27.247 98.1288 8.11334Z" fill="#FE7624"/>
<path fill-rule="evenodd" clip-rule="evenodd" d="M182.107 80.2157C193.048 75.6205 205.761 75.1805 220.337 79.6213C220.761 79.7506 221.036 80.1597 220.996 80.6012L220.977 80.7899L220.932 81.1993L220.879 81.6383C220.817 82.1333 220.741 82.6877 220.649 83.2975C220.329 85.422 219.887 87.7872 219.303 90.3333C217.634 97.6085 215.162 104.885 211.725 111.684C211.492 112.145 210.929 112.33 210.467 112.097C210.006 111.864 209.821 111.302 210.054 110.841C213.416 104.189 215.841 97.0525 217.478 89.9153C218.051 87.4172 218.484 85.0984 218.797 83.0193L218.86 82.5937C218.91 82.2473 218.955 81.922 218.994 81.6186L219.047 81.1884L218.943 81.1577C205.274 77.1544 193.394 77.5979 183.148 81.8091L182.832 81.9406C174.187 85.5714 166.992 91.7701 161.124 99.8229C157.692 104.533 154.927 109.584 152.772 114.635C152.018 116.402 151.395 118.042 150.894 119.512L150.782 119.845C150.674 120.169 150.579 120.466 150.495 120.736L150.386 121.093L150.317 121.333C150.179 121.831 149.664 122.124 149.166 121.987C148.667 121.85 148.374 121.335 148.512 120.837L148.591 120.561C148.613 120.488 148.637 120.408 148.664 120.322L148.751 120.04C148.858 119.7 148.981 119.322 149.122 118.909C149.637 117.397 150.277 115.713 151.05 113.902C153.257 108.728 156.089 103.555 159.61 98.7217C165.666 90.4111 173.118 83.9906 182.107 80.2157Z" fill="#FE7624"/>
<path fill-rule="evenodd" clip-rule="evenodd" d="M166.375 11.8296C166.732 11.6151 167.188 11.6618 167.494 11.9444L167.596 12.0402L167.798 12.2358C168.007 12.4403 168.245 12.6788 168.51 12.951L168.624 13.0698C169.508 13.9855 170.49 15.0721 171.546 16.3263C174.559 19.9024 177.569 24.1096 180.377 28.9219C183.374 34.0568 185.964 39.5887 188.026 45.5018C188.196 45.9897 187.938 46.523 187.45 46.6931C186.962 46.8631 186.428 46.6054 186.258 46.1175C184.237 40.3216 181.698 34.8985 178.76 29.8645C176.008 25.1487 173.06 21.0283 170.114 17.5311L169.732 17.0808C168.911 16.1222 168.142 15.2733 167.438 14.5362L167.276 14.3681C167.165 14.2524 167.058 14.1428 166.956 14.0394L166.724 13.8055L166.371 14.0198C150.765 23.5337 138.463 34.1775 129.195 45.7816L128.909 46.1408C120.518 56.7345 114.759 67.9762 111.337 79.687C111.192 80.1829 110.672 80.4675 110.176 80.3227C109.68 80.1779 109.395 79.6584 109.54 79.1625C117.033 53.5227 135.21 30.5717 166.375 11.8296Z" fill="#FE7624"/>
<path fill-rule="evenodd" clip-rule="evenodd" d="M149.511 51.2619C160.717 64.7587 167.168 77.62 169.433 89.8253C169.527 90.3333 169.191 90.8214 168.683 90.9156C168.174 91.0098 167.686 90.6743 167.592 90.1663C165.433 78.5309 159.332 66.222 148.725 53.2515L148.53 53.0146L148.178 53.1838C147.924 53.3068 147.651 53.4405 147.361 53.5845L147.005 53.7625L146.448 54.0433C144.854 54.8536 143.103 55.7897 141.232 56.8472C135.258 60.2244 129.283 64.136 123.711 68.5319C112.4 77.4552 104.233 87.1896 100.548 97.5376C96.005 110.296 98.5162 123.386 109.478 136.77C109.805 137.17 109.746 137.759 109.346 138.086C108.946 138.414 108.356 138.355 108.029 137.955C96.6594 124.073 94.0169 110.298 98.7842 96.9104C102.607 86.175 110.988 76.1852 122.55 67.0635C128.204 62.6031 134.257 58.6401 140.311 55.2187L140.975 54.8456C142.842 53.8028 144.584 52.883 146.165 52.0901L146.529 51.9088C146.884 51.7324 147.214 51.5711 147.517 51.4252L147.909 51.2379L148.403 51.0073C148.788 50.8331 149.241 50.9374 149.511 51.2619Z" fill="#FE7624"/>
<path fill-rule="evenodd" clip-rule="evenodd" d="M43.9817 92.1822C65.0017 90.333 83.8507 96.482 100.43 108.546C106.802 113.182 112.581 118.52 117.761 124.304C121.649 128.646 124.919 132.918 127.568 136.873C127.856 137.303 127.74 137.884 127.311 138.171C126.881 138.458 126.3 138.343 126.012 137.914C123.409 134.028 120.193 129.825 116.365 125.552C111.27 119.862 105.587 114.613 99.3279 110.058C83.0936 98.2454 64.6823 92.2393 44.1459 94.046C43.6309 94.0913 43.1766 93.7108 43.1312 93.1961C43.0859 92.6815 43.4666 92.2275 43.9817 92.1822Z" fill="#FE7624"/>
<path fill-rule="evenodd" clip-rule="evenodd" d="M43.9833 92.182C44.4984 92.1376 44.9521 92.5188 44.9965 93.0336C45.041 93.5483 44.6594 94.0016 44.1443 94.046C38.4464 94.5374 32.5335 95.6743 26.4144 97.4685L25.9864 97.595L26.1647 97.964C26.2405 98.1193 26.32 98.2804 26.4032 98.4472L26.6637 98.9644C27.6152 100.834 28.7734 102.92 30.1434 105.167C34.0603 111.593 38.8836 118.021 44.6511 124.018C50.2291 129.818 56.4114 134.908 63.2154 139.091C63.6558 139.362 63.7931 139.938 63.5221 140.378C63.2512 140.818 62.6746 140.956 62.2342 140.685C55.289 136.415 48.9848 131.224 43.3011 125.314C37.4328 119.213 32.5286 112.677 28.5443 106.14C27.1487 103.851 25.9674 101.724 24.9948 99.8124L24.8136 99.454C24.6079 99.0444 24.4226 98.6655 24.2574 98.3189L24.1207 98.0297C24.0697 97.9208 24.0231 97.8201 23.9808 97.7279L23.8337 97.4013L23.826 97.3836C23.6045 96.8725 23.8763 96.2823 24.4089 96.118C31.1707 94.0318 37.6994 92.7239 43.9833 92.182Z" fill="#FE7624"/>
<path fill-rule="evenodd" clip-rule="evenodd" d="M198.313 136.396C201.293 136.396 203.719 138.786 203.773 141.75L203.774 141.853V158.348C203.774 161.325 201.382 163.75 198.416 163.804L198.313 163.805L191.009 163.805L186.338 184.313C186.228 184.799 185.757 185.109 185.272 185.028L185.218 185.018C184.732 184.907 184.421 184.437 184.502 183.952L184.513 183.898L189.35 162.662C189.442 162.255 189.793 161.961 190.206 161.936L190.262 161.934H198.313C200.262 161.934 201.852 160.376 201.901 158.439L201.902 158.348V141.853C201.902 139.905 200.342 138.316 198.405 138.268L198.313 138.267H181.681C181.164 138.267 180.745 137.848 180.745 137.331C180.745 136.833 181.134 136.426 181.626 136.397L181.681 136.396H198.313Z" fill="#333333"/>
<path fill-rule="evenodd" clip-rule="evenodd" d="M138.523 136.427C139.04 136.427 139.46 136.846 139.46 137.362C139.46 137.861 139.07 138.268 138.578 138.296L138.523 138.298H66.6879C64.739 138.298 63.1489 139.857 63.1004 141.793L63.0993 141.884V158.38C63.0993 160.327 64.6594 161.916 66.5968 161.964L66.6879 161.966H74.2085C74.6265 161.966 74.9912 162.242 75.1071 162.639L75.1213 162.693L97.5582 261.169C97.673 261.672 97.3573 262.174 96.8532 262.289C96.3671 262.399 95.8832 262.11 95.7463 261.637L95.7326 261.584L73.4614 163.837H66.6879C63.7087 163.837 61.2826 161.446 61.2279 158.482L61.2269 158.38V141.884C61.2269 138.907 63.6191 136.483 66.5854 136.428L66.6879 136.427H138.523Z" fill="#333333"/>
<path fill-rule="evenodd" clip-rule="evenodd" d="M199.251 179.069L199.31 179.103L281.131 230.274C281.849 230.723 281.648 231.82 280.816 231.984L277.85 232.582C276.784 232.799 275.612 233.039 274.338 233.301L270.872 234.02C266.648 234.901 262.084 235.87 257.25 236.917C239.994 240.657 222.739 244.646 206.581 248.727L205.401 249.025C189.346 253.098 175.265 257.046 163.715 260.79L162.554 261.168C161.593 261.483 160.652 261.796 159.731 262.107C159.241 262.272 158.71 262.009 158.544 261.52C158.379 261.03 158.642 260.5 159.132 260.334L160.253 259.958C161.195 259.644 162.157 259.328 163.138 259.01L163.98 258.738C175.413 255.062 189.237 251.196 204.94 247.212C221.066 243.121 238.315 239.119 255.589 235.363L258.009 234.839C262.996 233.761 267.685 232.77 271.997 231.875L276.656 230.916L278.144 230.613L198.645 180.894L197.504 181.161C197.012 181.276 196.474 181.404 195.892 181.543L194.805 181.804C192.596 182.337 190.181 182.934 187.603 183.589C179.011 185.774 170.368 188.152 162.233 190.644C161.739 190.795 161.215 190.518 161.064 190.024C160.912 189.53 161.19 189.007 161.685 188.855C169.524 186.454 177.829 184.158 186.107 182.04L187.141 181.776C189.871 181.082 192.418 180.453 194.733 179.897L196.696 179.429L198.605 178.984C198.824 178.934 199.054 178.965 199.251 179.069Z" fill="#333333"/>
<path fill-rule="evenodd" clip-rule="evenodd" d="M166.971 106.913C172.241 105.18 177.565 105.371 182.937 107.693L186.911 109.448C199.328 114.942 205.688 118.049 210.015 121.055L210.145 121.146C212.997 123.144 214.543 124.902 214.642 126.632C214.757 128.639 213.006 130.077 209.58 131.078L209.429 131.121C204.933 132.401 198.015 136.277 189.385 142.121C187.489 143.404 185.53 144.77 183.519 146.208C178.724 149.635 173.852 153.309 169.157 156.983L168.301 157.655C167.27 158.465 166.3 159.235 165.4 159.955L164.377 160.777L163.366 161.596L163.374 162.839L163.38 164.184C163.405 171.193 163.357 179.081 163.187 186.648L163.147 188.329C162.921 197.334 162.536 204.379 161.96 208.779L161.92 209.082C160.832 217.244 158.667 226.045 156.162 233.005C155.987 233.491 155.451 233.743 154.964 233.569C154.478 233.394 154.225 232.858 154.4 232.372C156.816 225.657 158.918 217.173 160.006 209.263L160.103 208.538C160.688 204.069 161.077 196.731 161.299 187.335L161.331 185.874C161.488 178.55 161.532 170.959 161.507 164.19L161.491 161.163C161.488 160.881 161.614 160.612 161.832 160.432L162.913 159.554L163.505 159.076C164.764 158.063 166.176 156.942 167.713 155.737L168.003 155.51C172.717 151.82 177.61 148.131 182.43 144.686C184.453 143.24 186.425 141.865 188.335 140.572L189.121 140.042C197.371 134.502 204.032 130.788 208.629 129.406L209.189 129.242C211.768 128.471 212.822 127.594 212.773 126.739C212.718 125.774 211.478 124.365 209.07 122.678L208.816 122.502C204.797 119.736 198.83 116.792 187.614 111.806L182.394 109.498C177.379 107.277 172.461 107.077 167.556 108.69C161.48 110.683 157.439 113.394 152.995 118.567L152.831 118.76C148.87 123.415 145.217 128.94 135.867 144.118L134.983 145.554L134.96 145.59C118.166 170.311 106.916 198.188 103.336 221.786C99.983 243.891 103.987 258.76 113.717 260.423C114.226 260.51 114.569 260.994 114.482 261.503C114.395 262.012 113.911 262.354 113.401 262.267C102.265 260.364 97.9956 244.509 101.485 221.505C105.071 197.864 116.237 170.048 132.905 145.289L133.403 144.551L134.829 142.235C143.733 127.795 147.361 122.325 151.279 117.695L151.404 117.548C156.135 111.988 160.491 109.039 166.971 106.913Z" fill="#333333"/>
<path fill-rule="evenodd" clip-rule="evenodd" d="M224.47 96.8871L224.525 96.8891C225.041 96.9232 225.432 97.3686 225.398 97.8842C224.555 110.659 226.084 127.871 228.817 142.523C228.912 143.031 228.576 143.52 228.068 143.614C227.56 143.709 227.071 143.374 226.976 142.866C224.217 128.072 222.675 110.714 223.53 97.761C223.562 97.2639 223.978 96.8832 224.47 96.8871Z" fill="#333333"/>
<path fill-rule="evenodd" clip-rule="evenodd" d="M300.797 113.986C300.842 113.472 301.297 113.091 301.812 113.137C304.709 113.394 307.478 114.218 309.659 115.85C312.7 118.125 314.136 121.676 313.485 126.573C312.896 130.961 310.694 133.701 307.273 134.912C304.687 135.827 301.593 135.815 298.301 135.162C297.794 135.061 297.465 134.568 297.566 134.062C297.666 133.555 298.159 133.226 298.666 133.327C301.657 133.921 304.435 133.931 306.647 133.148C309.403 132.173 311.133 130.02 311.629 126.325C312.192 122.091 311.027 119.211 308.536 117.347C306.682 115.96 304.228 115.23 301.646 115.001C301.131 114.955 300.751 114.501 300.797 113.986Z" fill="#333333"/>
<path fill-rule="evenodd" clip-rule="evenodd" d="M295.756 147.245C296.239 147.122 296.73 147.399 296.879 147.868L296.894 147.921L301.981 167.878C301.995 167.931 302.003 167.985 302.007 168.04C302.845 179.433 300.044 189.085 294.278 196.167C288.994 202.658 281.453 206.624 273.311 207.391C265.145 208.16 257.008 205.655 250.623 200.204C243.64 194.241 239.098 185.127 237.794 173.514C237.737 173.001 238.107 172.538 238.62 172.48C239.134 172.422 239.598 172.792 239.655 173.305C240.908 184.463 245.231 193.139 251.84 198.781C257.835 203.9 265.468 206.251 273.135 205.528C280.782 204.808 287.861 201.084 292.826 194.986C298.226 188.354 300.89 179.291 300.163 168.505L300.146 168.259L295.08 148.383C294.957 147.9 295.234 147.409 295.703 147.26L295.756 147.245Z" fill="#333333"/>
<path fill-rule="evenodd" clip-rule="evenodd" d="M287.075 115.288C286.584 115.249 286.146 115.596 286.074 116.083L285.446 120.258L285.141 122.269C284.801 124.498 284.462 126.705 284.134 128.813L283.716 131.478C283.304 134.09 282.942 136.324 282.642 138.1L282.414 139.426L281.994 139.329C281.763 139.276 281.518 139.222 281.26 139.165L281.064 139.123C279.178 138.716 276.996 138.31 274.546 137.932C265.255 136.496 254.843 135.84 243.733 136.397L242.975 136.465L242.171 136.542C241.695 136.589 241.189 136.642 240.657 136.699C238.567 136.924 236.476 137.185 234.5 137.48L233.964 137.561C230.515 138.092 227.796 138.675 226.043 139.322C225.639 139.472 225.389 139.877 225.437 140.304L225.485 140.694L225.534 141.06C225.568 141.311 225.607 141.584 225.652 141.879L225.679 142.058C225.89 143.439 226.162 144.977 226.504 146.632C227.479 151.363 228.81 156.095 230.552 160.52C232.854 166.366 235.704 171.229 239.179 174.781C244.468 180.187 252.386 182.361 261.32 181.517C269.148 180.777 277.109 177.706 282.221 173.576C291.094 166.408 293.265 163.063 295.368 154.309L295.478 153.843C296.07 151.295 296.925 146.629 297.981 140.321L298.343 138.137L298.583 136.677C299.23 132.718 299.899 128.494 300.555 124.254L301.075 120.873L301.594 117.45C301.674 116.914 301.283 116.422 300.743 116.379L287.075 115.288ZM287.797 117.222L299.593 118.164L298.879 122.838L298.458 125.555C298.006 128.461 297.549 131.345 297.101 134.125L296.575 137.351L296.178 139.751C295.08 146.319 294.197 151.133 293.61 153.611L293.45 154.276C292.468 158.308 291.678 160.48 290.276 162.716L290.2 162.836C288.469 165.557 285.764 168.308 281.044 172.121C276.228 176.011 268.616 178.948 261.144 179.654C252.728 180.449 245.365 178.428 240.518 173.473C237.241 170.124 234.512 165.467 232.294 159.835C230.595 155.52 229.293 150.888 228.337 146.254C228.003 144.632 227.736 143.126 227.53 141.776L227.454 141.268L227.394 140.84L227.513 140.804C229.128 140.312 231.435 139.843 234.249 139.41C236.175 139.114 238.229 138.85 240.294 138.621L240.858 138.559C241.472 138.493 242.051 138.434 242.588 138.381L243.461 138.299L243.843 138.265L243.827 138.266C254.803 137.715 265.089 138.363 274.26 139.781C276.558 140.136 278.613 140.515 280.403 140.895L280.669 140.952C281.251 141.077 281.764 141.194 282.208 141.301L282.707 141.423L282.919 141.478C283.448 141.62 283.985 141.279 284.083 140.741L284.242 139.846C284.553 138.065 284.954 135.627 285.426 132.652L285.885 129.731L286.182 127.824C286.415 126.321 286.652 124.778 286.89 123.219L287.677 118.017L287.797 117.222Z" fill="#333333"/>
<path fill-rule="evenodd" clip-rule="evenodd" d="M299.95 121.428C299.95 121.428 306.472 107.957 308.376 96.856C310.186 86.4409 304.694 75.9635 294.895 72.0033C286.688 68.6667 284.004 69.7581 284.004 69.7581C284.004 69.7581 288.872 61.0893 276.203 48.3355C271.74 43.8452 265.562 41.3506 259.227 41.5065C243.718 41.9119 238.881 55.0086 238.881 55.0086C238.881 55.0086 222.342 24.4807 188.265 42.442C184.833 44.2506 180.932 49.3022 179.091 52.7323C167.794 73.4065 204.773 98.0409 224.058 100.037C245.247 102.219 258.54 99.6 265 93.9871C260.163 97.3549 268.838 128.319 299.95 121.428Z" fill="#333333"/>
<path fill-rule="evenodd" clip-rule="evenodd" d="M242.656 127.354C243.324 127.387 243.843 127.939 243.843 128.6L243.841 128.662L242.932 146.906L248.138 145.219C248.774 145.013 249.454 145.343 249.689 145.96L249.711 146.021C249.917 146.655 249.586 147.335 248.969 147.571L248.908 147.592L241.981 149.837C241.168 150.1 240.343 149.489 240.347 148.646L240.349 148.589L241.348 128.538C241.381 127.871 241.933 127.352 242.594 127.353L242.656 127.354Z" fill="#333333"/>
<path fill-rule="evenodd" clip-rule="evenodd" d="M254.407 111.01C257.564 110.328 260.337 110.997 262.637 112.523C263.22 112.91 263.728 113.325 264.16 113.743L264.287 113.869C264.489 114.071 264.636 114.236 264.728 114.352C265.158 114.89 265.069 115.675 264.53 116.104C263.991 116.534 263.205 116.445 262.776 115.906C262.73 115.849 262.611 115.717 262.424 115.536C262.096 115.219 261.706 114.9 261.256 114.601C259.485 113.426 257.383 112.919 254.935 113.448C254.261 113.594 253.597 113.166 253.451 112.493C253.305 111.819 253.733 111.155 254.407 111.01Z" fill="#333333"/>
<path fill-rule="evenodd" clip-rule="evenodd" d="M233.721 106.309C234.931 106.062 236.183 106.128 237.383 106.382L237.577 106.425C237.887 106.497 238.129 106.567 238.287 106.621C238.939 106.844 239.287 107.554 239.063 108.205C238.847 108.837 238.174 109.182 237.539 109L237.404 108.958C237.385 108.953 237.363 108.946 237.337 108.939C237.2 108.9 237.041 108.86 236.865 108.823C235.972 108.633 235.047 108.585 234.222 108.753C233.05 108.993 232.222 109.634 231.745 110.87C231.496 111.512 230.774 111.832 230.131 111.584C229.487 111.336 229.167 110.614 229.416 109.971C230.215 107.903 231.753 106.712 233.721 106.309Z" fill="#333333"/>
<path fill-rule="evenodd" clip-rule="evenodd" d="M265.281 152.486C264.189 150.989 253.548 158.442 257.698 159.128C261.848 159.783 267.621 155.698 265.281 152.486Z" fill="#333333"/>
<path fill-rule="evenodd" clip-rule="evenodd" d="M220.657 151.114L261.068 137.456C261.068 137.456 266.467 135.398 266.28 128.382C266.092 121.366 257.261 118.746 257.261 118.746L214.166 112.666L220.657 151.114Z" fill="#FE7624"/>
<path fill-rule="evenodd" clip-rule="evenodd" d="M177.406 151.114L217.817 137.456C217.817 137.456 223.216 135.398 223.028 128.382C222.841 121.366 214.01 118.746 214.01 118.746L193.165 120.118L170.915 112.666L177.406 151.114Z" fill="#FE7624"/>
<path fill-rule="evenodd" clip-rule="evenodd" d="M213.76 152.361C224.773 152.361 233.701 143.44 233.701 132.435C233.701 121.431 224.773 112.51 213.76 112.51C202.748 112.51 193.82 121.431 193.82 132.435C193.82 143.44 202.748 152.361 213.76 152.361Z" fill="#333333"/>
<path fill-rule="evenodd" clip-rule="evenodd" d="M170.197 152.642C181.21 152.642 190.138 143.721 190.138 132.716C190.138 121.711 181.21 112.79 170.197 112.79C159.184 112.79 150.257 121.711 150.257 132.716C150.257 143.721 159.184 152.642 170.197 152.642Z" fill="#333333"/>
<path fill-rule="evenodd" clip-rule="evenodd" d="M197.658 99.0983L198.053 99.0154C202.862 98.0219 207.664 97.5713 209.62 97.8636C212.055 98.2179 212.536 100.529 210.923 102.763C209.344 104.949 206.055 106.997 201.521 108.384C201.027 108.535 200.503 108.257 200.352 107.763C200.2 107.269 200.478 106.746 200.973 106.595C205.147 105.318 208.094 103.484 209.405 101.668C210.274 100.464 210.17 99.8582 209.395 99.7222L209.347 99.7145C207.63 99.4581 202.911 99.9079 198.235 100.889L198.048 100.928C192.031 102.209 186.744 104.16 183.252 106.631C182.83 106.93 182.245 106.83 181.947 106.408C181.648 105.987 181.748 105.403 182.17 105.104C185.908 102.459 191.415 100.427 197.658 99.0983Z" fill="#333333"/>
<path fill-rule="evenodd" clip-rule="evenodd" d="M187.512 105.427C192.03 104.32 198.269 105.44 205.193 108.118L205.434 108.212C210.746 110.291 216.087 113.22 217.84 114.862L217.899 114.918C218.978 115.939 219.107 117.302 218.197 118.379C217.414 119.305 215.952 119.91 214.061 120.109C209.725 120.567 203.717 118.954 196.949 115.072L196.72 114.94L196.513 114.808L196.342 114.701C196.251 114.645 196.153 114.586 196.048 114.524C195.544 114.228 194.987 113.931 194.398 113.655C193.165 113.077 191.957 112.668 190.852 112.502C190.302 112.419 189.79 112.398 189.323 112.443C188.808 112.493 188.351 112.116 188.301 111.602C188.251 111.088 188.628 110.63 189.143 110.581C189.773 110.52 190.437 110.547 191.131 110.652C192.438 110.849 193.809 111.313 195.192 111.961C195.838 112.263 196.445 112.587 196.997 112.911L197.23 113.05C197.398 113.152 197.535 113.238 197.635 113.304L197.682 113.335L197.88 113.449C204.258 117.107 209.832 118.626 213.731 118.262L213.865 118.249C215.319 118.095 216.344 117.671 216.766 117.172C217.004 116.89 216.993 116.656 216.651 116.315L216.605 116.27C215.126 114.842 209.914 111.974 204.752 109.955C198.061 107.337 192.061 106.239 187.958 107.244C187.456 107.367 186.949 107.06 186.826 106.558C186.702 106.057 187.01 105.55 187.512 105.427Z" fill="#333333"/>
<path fill-rule="evenodd" clip-rule="evenodd" d="M178.08 105.359C182.604 104.371 188.793 105.531 195.62 108.192L195.864 108.287C201.121 110.359 206.376 113.244 208.104 114.862L208.163 114.918C209.242 115.939 209.37 117.302 208.461 118.379C207.678 119.305 206.216 119.91 204.325 120.109C199.989 120.567 193.981 118.954 187.213 115.072L186.984 114.94L186.777 114.807L186.606 114.701C186.515 114.645 186.417 114.586 186.311 114.524C185.807 114.228 185.251 113.931 184.661 113.655C183.428 113.077 182.22 112.668 181.115 112.502C180.566 112.419 180.054 112.398 179.586 112.443C179.072 112.493 178.614 112.116 178.565 111.602C178.515 111.087 178.892 110.63 179.407 110.581C180.037 110.52 180.701 110.547 181.395 110.652C182.702 110.849 184.073 111.313 185.456 111.961C186.102 112.263 186.709 112.587 187.261 112.911L187.494 113.05C187.662 113.152 187.798 113.238 187.899 113.304L187.946 113.334L188.144 113.449C194.521 117.107 200.096 118.626 203.995 118.262L204.129 118.249C205.583 118.095 206.608 117.671 207.03 117.172C207.268 116.89 207.257 116.656 206.915 116.315L206.869 116.27C205.413 114.865 200.286 112.041 195.177 110.028L194.701 109.842C188.283 107.371 182.507 106.307 178.479 107.187C177.974 107.297 177.475 106.978 177.365 106.473C177.255 105.968 177.574 105.47 178.08 105.359Z" fill="#333333"/>
<path fill-rule="evenodd" clip-rule="evenodd" d="M167.639 106.708C172.005 104.616 178.659 105.42 186.412 108.272L186.786 108.411C192.456 110.54 198.331 113.714 200.143 115.448C201.222 116.469 201.351 117.832 200.441 118.909C199.658 119.835 198.196 120.44 196.305 120.639C191.969 121.097 185.961 119.484 179.193 115.602L178.964 115.471L178.757 115.338L178.586 115.231C178.495 115.175 178.397 115.116 178.292 115.054C177.788 114.758 177.231 114.461 176.641 114.185C175.409 113.607 174.201 113.199 173.096 113.032C172.546 112.949 172.034 112.928 171.567 112.973C171.052 113.023 170.594 112.646 170.545 112.132C170.495 111.618 170.872 111.16 171.387 111.111C172.017 111.05 172.681 111.077 173.375 111.182C174.682 111.379 176.053 111.843 177.436 112.491C178.082 112.793 178.689 113.117 179.241 113.441L179.474 113.58C179.642 113.682 179.778 113.768 179.879 113.834L179.926 113.865L180.124 113.979C186.502 117.637 192.076 119.156 195.975 118.792L196.109 118.779C197.563 118.625 198.588 118.201 199.01 117.702C199.259 117.408 199.236 117.166 198.852 116.803L198.741 116.7C196.986 115.123 191.336 112.098 185.945 110.094L185.765 110.028C178.45 107.337 172.226 106.585 168.449 108.395C167.983 108.619 167.423 108.422 167.2 107.956C166.976 107.49 167.173 106.931 167.639 106.708Z" fill="#333333"/>
<path fill-rule="evenodd" clip-rule="evenodd" d="M331.265 14.9547C339.989 13.3221 348.513 18.5187 350.427 26.625L350.483 26.8716L356.661 55.4974C356.77 56.0024 356.449 56.5001 355.944 56.6091C355.456 56.7141 354.976 56.4193 354.844 55.9453L354.831 55.8918L348.653 27.2678C347.077 20.038 339.451 15.3262 331.609 16.7937C323.844 18.2469 318.81 25.1557 320.23 32.2988L320.275 32.5153L329.512 75.2358C329.621 75.7408 329.3 76.2386 328.795 76.3477C328.308 76.4529 327.827 76.1583 327.695 75.6843L327.682 75.6309L318.445 32.9112C316.648 24.6305 322.413 16.6111 331.265 14.9547Z" fill="#333333"/>
<path fill-rule="evenodd" clip-rule="evenodd" d="M365.982 15.1586C366.249 6.73542 373.811 0.112662 382.798 0.376773C391.728 0.638267 398.778 7.49622 398.659 15.8004L397.655 57.7751C397.643 58.2916 397.214 58.7003 396.697 58.6879C396.198 58.676 395.8 58.2769 395.784 57.7853L395.783 57.7303L396.782 16.0006C397.015 8.64368 390.758 2.48164 382.743 2.24694C374.84 2.01466 368.22 7.74011 367.862 14.9977L367.853 15.218L366.605 54.2901C366.589 54.8065 366.156 55.2117 365.64 55.1952C365.141 55.1793 364.746 54.7771 364.734 54.2854L364.734 54.2304L365.982 15.1586Z" fill="#333333"/>
<path fill-rule="evenodd" clip-rule="evenodd" d="M411.969 26.8074C413.766 18.562 422.374 13.2432 431.187 14.8923C439.941 16.5306 445.689 24.4314 444.058 32.6004L444.006 32.848L435.237 73.4168C435.128 73.9218 434.63 74.2428 434.124 74.1337C433.637 74.0286 433.321 73.5619 433.397 73.0759L433.407 73.0218L442.176 32.4515C443.744 25.2557 438.677 18.1974 430.842 16.7313C423.078 15.2785 415.526 19.882 413.842 27.0146L413.792 27.2315L406.459 56.7928C406.335 57.2943 405.827 57.6 405.325 57.4757C404.841 57.3559 404.539 56.8799 404.63 56.3964L404.642 56.3426L411.969 26.8074Z" fill="#333333"/>
<path fill-rule="evenodd" clip-rule="evenodd" d="M450.879 55.8754C454.924 48.3547 464.697 45.3168 472.755 49.0458C480.771 52.7552 484.082 61.7726 480.203 69.2874L480.083 69.5147L441.638 141.048C441.393 141.503 440.825 141.674 440.37 141.43C439.931 141.194 439.756 140.66 439.963 140.214L439.988 140.163L478.434 68.6292C481.98 62.0361 479.105 54.046 471.968 50.7435C464.867 47.4569 456.27 50.0742 452.637 56.563L452.528 56.7608L442.761 74.9403C442.516 75.3955 441.949 75.5664 441.493 75.3221C441.055 75.0867 440.88 74.5521 441.086 74.1064L441.111 74.0553L450.879 55.8754Z" fill="#333333"/>
<path fill-rule="evenodd" clip-rule="evenodd" d="M312.708 124.003C313.146 123.767 313.689 123.917 313.947 124.335L313.975 124.384L322.401 140.069C322.645 140.525 322.474 141.092 322.019 141.336C321.58 141.571 321.038 141.422 320.78 141.004L320.751 140.954L312.326 125.269C312.081 124.814 312.252 124.247 312.708 124.003Z" fill="#333333"/>
<path fill-rule="evenodd" clip-rule="evenodd" d="M289.696 49.0457C297.673 45.3541 307.332 48.2946 311.449 55.6514L311.572 55.8757L323.118 77.3606C323.363 77.8158 323.192 78.383 322.737 78.6274C322.298 78.8628 321.755 78.7131 321.497 78.2952L321.469 78.2458L309.923 56.7611C306.355 50.1277 297.656 47.4237 290.483 50.7435C283.418 54.013 280.529 61.8768 283.913 68.431L284.018 68.6292L308.92 114.936C309.164 115.391 308.994 115.958 308.538 116.203C308.1 116.438 307.557 116.289 307.299 115.871L307.27 115.821L282.368 69.5149C278.302 61.9553 281.599 52.7927 289.696 49.0457Z" fill="#333333"/>
<path fill-rule="evenodd" clip-rule="evenodd" d="M360.653 52.8956C369.027 51.8372 376.689 58.8374 377.923 68.4859L377.959 68.779L381.404 98.9814L388.002 68.6264C390.027 59.1945 398.282 53.6111 406.5 56.1611L406.749 56.2409C414.893 58.9316 419.817 68.6075 417.915 77.9675L417.855 78.251L411.839 105.971L422.953 81.5949C426.854 73.0135 436.078 69.8951 443.593 74.5979L443.82 74.7428C451.198 79.5384 454.057 90.1951 450.33 98.7315L450.215 98.9895L431.055 141.086C430.841 141.557 430.286 141.764 429.815 141.551C429.362 141.344 429.152 140.821 429.329 140.362L429.351 140.312L448.511 98.2154C452.036 90.4604 449.457 80.6386 442.799 76.3111C436.298 72.0856 428.298 74.6629 424.763 82.1415L424.658 82.3696L409.929 114.675C409.472 115.677 407.976 115.201 408.151 114.144L408.162 114.089L416.026 77.8535C417.891 69.3014 413.434 60.4201 406.162 58.0173C399.052 55.6682 391.803 60.4292 389.889 68.7674L389.833 69.0212L382.031 104.913C381.811 105.927 380.362 105.874 380.194 104.878L380.186 104.82L376.098 68.9907C375.094 60.1655 368.238 53.8228 360.888 54.7518C353.61 55.6717 348.41 63.3959 349.283 72.1001L349.312 72.3642L353.556 109.253C353.679 110.325 352.203 110.708 351.775 109.751L351.753 109.698L342.453 85.7189C339.302 77.5957 331.301 73.8545 324.59 77.2651C317.863 80.6842 314.845 89.9665 317.862 98.0808L317.955 98.3263L334.245 140.298C334.431 140.78 334.192 141.322 333.71 141.509C333.245 141.689 332.724 141.473 332.52 141.026L332.499 140.975L316.209 99.0027C312.707 89.975 316.046 79.5086 323.742 75.5974C331.423 71.6935 340.485 75.8559 344.092 84.7711L344.199 85.0427L350.862 102.224L347.452 72.5771C346.347 62.9044 352.096 54.1394 360.4 52.93L360.653 52.8956Z" fill="#FE7624"/>
<path fill-rule="evenodd" clip-rule="evenodd" d="M446.773 139.732C449.752 139.732 452.178 142.123 452.233 145.087L452.234 145.189V161.747C452.234 164.724 449.842 167.149 446.875 167.203L446.773 167.204H439.931L427.182 221.272C427.068 221.757 426.595 222.064 426.11 221.979L426.056 221.968C425.571 221.853 425.264 221.381 425.349 220.896L425.36 220.842L438.279 166.054C438.374 165.65 438.723 165.36 439.134 165.335L439.19 165.333H446.773C448.722 165.333 450.312 163.774 450.36 161.838L450.362 161.747V145.189C450.362 143.242 448.802 141.653 446.864 141.604L446.773 141.603H314.773C312.824 141.603 311.234 143.162 311.185 145.098L311.184 145.189V161.747C311.184 163.695 312.744 165.284 314.682 165.332L314.773 165.333H322.886C323.302 165.333 323.665 165.607 323.783 166L323.798 166.054L346.235 261.224C346.353 261.727 346.041 262.231 345.538 262.349C345.053 262.464 344.567 262.178 344.426 261.706L344.412 261.653L322.145 167.204H314.773C311.794 167.204 309.368 164.814 309.313 161.85L309.312 161.747V145.189C309.312 142.212 311.704 139.788 314.67 139.733L314.773 139.732H446.773Z" fill="#333333"/>
<path fill-rule="evenodd" clip-rule="evenodd" d="M402.592 206.227C404.696 205.328 406.233 205.577 407.736 206.91C408.082 207.218 408.424 207.572 408.861 208.069L409.134 208.385C409.39 208.685 410.191 209.623 410.485 209.955C411.804 211.447 413.056 212.634 414.64 213.79C414.86 213.951 415.085 214.109 415.313 214.265L415.613 214.467C417.328 215.611 418.737 216.39 421.856 217.993L423.029 218.596C424.534 219.373 425.436 219.861 426.46 220.46C430.345 222.733 433.434 225.309 436.487 229.109C436.811 229.512 436.747 230.101 436.343 230.424C435.94 230.748 435.351 230.683 435.027 230.28C432.185 226.742 429.331 224.339 425.744 222.21L425.317 221.959C424.371 221.411 423.483 220.935 422.012 220.177L420.461 219.379C417.474 217.837 416.095 217.056 414.26 215.812C414.013 215.644 413.772 215.474 413.535 215.301C411.905 214.111 410.602 212.891 409.264 211.399L408.945 211.038C408.502 210.529 407.635 209.511 407.638 209.515L407.463 209.314C407.069 208.866 406.773 208.558 406.493 208.309C405.532 207.457 404.766 207.333 403.332 207.946C402.25 208.413 402.018 209.512 402.658 211.497C403.27 213.398 404.642 215.831 406.63 218.682C406.926 219.106 406.822 219.689 406.398 219.985C405.973 220.28 405.39 220.176 405.094 219.752C403.008 216.761 401.558 214.188 400.875 212.071C399.976 209.281 400.425 207.164 402.592 206.227Z" fill="#333333"/>
<path fill-rule="evenodd" clip-rule="evenodd" d="M371.869 212.202L372.209 212.189C375.559 212.073 380.895 212.334 386.156 213.064C393.972 214.147 400.999 216.117 406.56 219.144C407.014 219.391 407.181 219.959 406.934 220.413C406.687 220.867 406.118 221.034 405.664 220.787C400.417 217.931 393.729 216.034 386.266 214.968L385.899 214.917C380.569 214.178 375.16 213.93 371.956 214.071C370.092 214.161 369.63 215.539 371.146 217.679C371.444 218.101 371.344 218.684 370.922 218.983C370.5 219.281 369.916 219.181 369.617 218.76C367.319 215.515 368.373 212.37 371.869 212.202Z" fill="#333333"/>
<path fill-rule="evenodd" clip-rule="evenodd" d="M365.754 217.349C368.385 217.148 374.255 217.814 380.315 219.093C387.89 220.692 395.075 223.045 400.773 226.028C401.231 226.268 401.408 226.833 401.168 227.291C400.928 227.749 400.362 227.925 399.904 227.686C394.377 224.792 387.349 222.49 379.928 220.924L379.304 220.794C373.628 219.633 368.228 219.036 365.896 219.214C363.017 219.432 363.59 223.367 368.595 227.374C368.999 227.697 369.064 228.286 368.741 228.689C368.417 229.092 367.828 229.157 367.425 228.834C364.466 226.466 362.69 223.892 362.364 221.644C362.019 219.271 363.368 217.529 365.754 217.349Z" fill="#333333"/>
<path fill-rule="evenodd" clip-rule="evenodd" d="M369.087 227.014C374.271 226.759 387.95 229.929 397.788 234.329C398.26 234.54 398.471 235.093 398.26 235.565C398.049 236.037 397.495 236.248 397.023 236.037C392.046 233.811 386.346 231.955 380.731 230.625L380.249 230.512C375.442 229.398 371.116 228.788 369.183 228.883C367.75 228.959 367.035 230.036 367.338 231.861C367.722 234.176 369.658 236.975 372.952 239.526C373.361 239.843 373.435 240.43 373.119 240.839C372.802 241.247 372.214 241.322 371.805 241.005C368.166 238.187 365.961 234.997 365.491 232.167C365.017 229.313 366.449 227.155 369.087 227.014Z" fill="#333333"/>
<path fill-rule="evenodd" clip-rule="evenodd" d="M374.605 236.842C378.146 236.409 388.149 238.92 397.233 242.675C397.711 242.873 397.938 243.42 397.74 243.897C397.543 244.375 396.995 244.602 396.517 244.404L395.988 244.187C387.326 240.668 377.899 238.324 374.83 238.7C373.782 238.825 373.364 239.24 373.404 239.952C373.464 240.982 374.394 242.493 376.185 244.185C380.811 248.556 389.851 253.13 402.636 256.957C403.131 257.105 403.412 257.626 403.264 258.121C403.116 258.616 402.594 258.897 402.099 258.749C389.058 254.845 379.768 250.146 374.899 245.545C372.794 243.556 371.627 241.662 371.535 240.059C371.433 238.279 372.644 237.076 374.605 236.842Z" fill="#333333"/>
<path fill-rule="evenodd" clip-rule="evenodd" d="M406.49 218.812L406.545 218.814C418.697 219.572 428.911 223.071 436.19 228.554C442.834 233.559 446.585 239.957 446.566 246.018C446.547 252.262 442.549 257.404 435.35 260.001C427.437 262.855 416.117 262.57 402.121 258.755C401.622 258.619 401.328 258.105 401.464 257.606C401.6 257.108 402.115 256.814 402.614 256.95C416.269 260.672 427.211 260.947 434.715 258.241C441.204 255.901 444.677 251.433 444.694 246.012C444.711 240.594 441.268 234.723 435.063 230.048C428.09 224.795 418.228 221.417 406.428 220.681C405.912 220.649 405.52 220.205 405.552 219.689C405.583 219.192 405.998 218.81 406.49 218.812Z" fill="#333333"/>
<path fill-rule="evenodd" clip-rule="evenodd" d="M528.875 260.69C529.392 260.69 529.811 261.109 529.811 261.626C529.811 262.124 529.422 262.531 528.93 262.56L528.875 262.561H1.00001C0.48298 262.561 0.0638428 262.143 0.0638428 261.626C0.0638428 261.128 0.453577 260.72 0.945006 260.692L1.00001 260.69H528.875Z" fill="#333333"/>
</svg>
