<svg width="496" height="283" viewBox="0 0 496 283" fill="none" xmlns="http://www.w3.org/2000/svg">
<path fill-rule="evenodd" clip-rule="evenodd" d="M411.513 243.831C406.462 246.651 397.115 250.027 389.399 242.48C381.444 234.735 375.756 234.894 373.091 235.649C372.295 235.49 371.42 235.847 370.983 236.602L354.238 266.986C352.925 269.37 350.38 270.879 347.635 270.879H293.104C292.03 270.879 291.155 271.753 291.155 272.825C291.155 273.897 292.03 274.771 293.104 274.771H347.635C351.812 274.771 355.63 272.507 357.658 268.853L367.443 251.059C371.102 251.536 376.074 253.164 380.728 257.732C389.717 266.47 400.257 261.545 404.115 259.202C405.07 258.646 405.825 257.812 406.382 256.858L412.945 245.3C413.542 244.347 412.468 243.275 411.513 243.831Z" fill="#333333"/>
<path fill-rule="evenodd" clip-rule="evenodd" d="M140.887 208.68C140.648 208.164 140.012 207.965 139.535 208.243C139.376 208.323 137.705 209.355 130.426 212.97L127.085 214.598C111.215 222.224 87.7881 231.915 78.282 227.904C77.8842 227.745 77.4467 227.824 77.1683 228.142C77.1285 228.182 73.7079 231.876 66.2303 235.371C59.3493 238.588 47.4964 242.242 30.1945 241.408C29.5979 241.368 29.0808 241.885 29.2001 242.52C29.2797 242.997 29.6774 243.314 30.1547 243.354C31.7059 243.434 33.1776 243.473 34.6492 243.473L35.3652 248.16C35.5243 249.193 36.9164 249.471 37.4335 248.557L40.4563 243.314C42.5644 243.195 44.5929 242.997 46.5418 242.758L47.6555 246.81C47.934 247.803 49.3261 247.922 49.7636 247.008L52.1501 241.885C53.7808 241.567 55.2922 241.209 56.7241 240.852L57.6389 244.228C57.9174 245.221 59.3095 245.34 59.747 244.427L62.213 239.184C64.0427 238.548 65.6336 237.873 67.0655 237.198L67.7019 239.541C67.9803 240.534 69.3724 240.653 69.81 239.74L72.276 234.417C75.4977 232.471 77.4069 230.763 78.2422 229.929C80.2707 230.644 82.7367 230.843 85.5209 230.684L87.1915 234.815C87.5892 235.768 88.9018 235.728 89.2597 234.775L91.0894 229.969C92.8394 229.651 94.6293 229.254 96.4589 228.738L97.2146 231.955C97.4533 232.988 98.8454 233.146 99.2829 232.193L101.868 227.109C103.618 226.553 105.368 225.918 107.119 225.282L107.795 228.182C108.033 229.175 109.346 229.373 109.863 228.499L112.965 223.058C114.517 222.423 116.068 221.787 117.619 221.112L118.375 223.892C118.653 224.885 120.045 225.004 120.483 224.091L122.949 218.768C124.619 218.014 126.21 217.259 127.762 216.505L128.358 218.768C128.637 219.761 130.029 219.881 130.466 218.967L132.733 214.121C138.898 211.023 140.052 210.308 140.648 209.991C140.887 209.713 141.126 209.157 140.887 208.68Z" fill="#333333"/>
<path fill-rule="evenodd" clip-rule="evenodd" d="M188.259 194.66C187.861 194.501 187.423 194.58 187.145 194.898C187.105 194.938 183.685 198.631 176.207 202.127C169.326 205.344 157.473 208.998 140.171 208.164C139.575 208.124 139.058 208.64 139.177 209.276C139.256 209.753 139.654 210.07 140.132 210.11C141.683 210.189 143.154 210.229 144.626 210.229L145.302 214.836C145.461 215.909 146.893 216.187 147.45 215.234L150.393 210.07C152.501 209.951 154.53 209.753 156.479 209.514L157.553 213.486C157.831 214.519 159.263 214.638 159.701 213.685L162.047 208.64C163.678 208.323 165.189 207.965 166.621 207.608L167.894 211.421C168.252 212.453 169.684 212.493 170.082 211.46L172.11 205.94C173.94 205.304 175.531 204.629 176.963 203.954L177.559 206.218C177.838 207.25 179.27 207.369 179.707 206.416L182.133 201.213C185.355 199.267 187.264 197.559 188.1 196.725" fill="#333333"/>
<path fill-rule="evenodd" clip-rule="evenodd" d="M441.662 216.902C441.464 216.385 440.867 216.107 440.39 216.346C425.076 222.74 408.968 219.523 392.541 206.853C380.171 197.321 372.296 185.683 372.216 185.604C371.898 185.167 371.301 185.048 370.864 185.326C370.426 185.643 370.307 186.239 370.585 186.676C370.625 186.755 372.932 190.171 377.029 194.818L378.978 204.152C379.177 205.185 380.569 205.383 381.086 204.51L383.035 201.213C384.705 202.841 386.495 204.47 388.404 206.059L390.473 213.248C390.751 214.201 392.024 214.36 392.541 213.526L394.371 210.666C396.001 211.818 397.632 212.85 399.303 213.843L402.166 221.906C402.485 222.82 403.757 222.939 404.235 222.105L406.78 217.656C408.371 218.332 409.922 218.888 411.513 219.364L415.252 225.878C415.769 226.752 417.042 226.593 417.36 225.64L418.752 220.993C420.781 221.271 422.809 221.43 424.838 221.43C424.997 221.43 425.156 221.43 425.315 221.43L429.332 226.672C429.889 227.427 431.082 227.189 431.361 226.275L432.992 220.595C435.696 220.039 438.361 219.245 441.026 218.133C441.543 217.934 441.861 217.378 441.662 216.902Z" fill="#333333"/>
<path fill-rule="evenodd" clip-rule="evenodd" d="M29.9957 241.13C30.6312 241.13 31.1507 241.626 31.1869 242.251L31.189 242.321V281.563C31.189 282.221 30.6547 282.755 29.9957 282.755C29.3603 282.755 28.8408 282.259 28.8045 281.633L28.8025 281.563V242.321C28.8025 241.663 29.3367 241.13 29.9957 241.13Z" fill="#FE7624"/>
<path fill-rule="evenodd" clip-rule="evenodd" d="M77.8445 227.626C78.48 227.626 78.9994 228.122 79.0357 228.747L79.0377 228.817V280.928C79.0377 281.586 78.5035 282.119 77.8445 282.119C77.209 282.119 76.6896 281.623 76.6533 280.998L76.6512 280.928V228.817C76.6512 228.159 77.1855 227.626 77.8445 227.626Z" fill="#FE7624"/>
<path fill-rule="evenodd" clip-rule="evenodd" d="M140.131 207.846C140.767 207.846 141.286 208.342 141.323 208.967L141.325 209.037V280.848C141.325 281.506 140.79 282.039 140.131 282.039C139.496 282.039 138.977 281.543 138.94 280.918L138.938 280.848V209.037C138.938 208.379 139.472 207.846 140.131 207.846Z" fill="#FE7624"/>
<path fill-rule="evenodd" clip-rule="evenodd" d="M440.867 215.869C441.503 215.869 442.022 216.365 442.058 216.99L442.06 217.06V281.563C442.06 282.221 441.526 282.755 440.867 282.755C440.232 282.755 439.712 282.258 439.676 281.633L439.674 281.563V217.06C439.674 216.402 440.208 215.869 440.867 215.869Z" fill="#FE7624"/>
<path fill-rule="evenodd" clip-rule="evenodd" d="M367.682 180.56L223.698 181.513C221.391 181.513 219.322 182.704 218.368 184.531L171.911 268.933L53.8603 269.012C53.8603 269.012 51.8318 280.848 68.8156 281.563L323.373 281.246L373.091 188.106C375 184.571 372.057 180.52 367.682 180.56Z" fill="#FE7624"/>
<path fill-rule="evenodd" clip-rule="evenodd" d="M186.707 268.575L308.298 268.059L345.925 194.858C347.396 192.038 345.448 188.622 342.425 188.662L231.931 190.012L186.707 268.575Z" fill="white"/>
<path fill-rule="evenodd" clip-rule="evenodd" d="M355.778 180.639C360.99 180.592 364.541 185.45 362.358 189.807L362.29 189.939L313.049 281.808C312.738 282.388 312.015 282.607 311.434 282.296C310.875 281.997 310.651 281.316 310.913 280.748L310.945 280.683L360.183 188.821C361.609 186.125 359.351 182.99 355.8 183.022C355.141 183.028 354.602 182.499 354.596 181.841C354.59 181.183 355.119 180.645 355.778 180.639Z" fill="white"/>
<path fill-rule="evenodd" clip-rule="evenodd" d="M193.191 218.014L206.515 242.48C207.191 243.632 208.942 243.156 208.942 241.845L208.066 230.724C208.066 230.724 215.862 257.494 226.562 258.169C237.261 258.844 247.523 229.969 247.523 229.969L244.699 242.083C244.699 243.434 246.449 243.871 247.125 242.719L261.364 218.014" fill="#333333"/>
<path fill-rule="evenodd" clip-rule="evenodd" d="M176.525 123.405C176.525 123.405 144.745 166.38 148.842 204.827H218.965V122.491L176.525 123.405Z" fill="#333333"/>
<path fill-rule="evenodd" clip-rule="evenodd" d="M276.439 123.405C276.439 123.405 308.219 166.38 304.122 204.827H233.999V122.491L276.439 123.405Z" fill="#333333"/>
<path fill-rule="evenodd" clip-rule="evenodd" d="M255.08 204.827C282.007 156.49 279.064 118.122 271.228 91.8288C263.353 65.5353 244.898 36.2231 227.357 36.2231C209.816 36.2231 191.361 65.5353 183.486 91.8288C175.61 118.122 172.309 156.49 199.236 204.827L191.719 221.032H262.717L255.08 204.827Z" fill="white"/>
<path fill-rule="evenodd" clip-rule="evenodd" d="M227.357 35.0315C218.627 35.0315 209.42 41.7641 200.835 53.4614C193.148 63.9343 186.423 77.8637 182.343 91.4872C177.688 107.027 175.71 123.008 177.121 140.159L177.174 140.786C178.939 161.073 185.436 182.125 197.451 204.062L197.899 204.875L190.636 220.531C190.27 221.321 190.848 222.224 191.719 222.224H262.717L262.785 222.222C263.621 222.176 264.159 221.294 263.796 220.525L256.419 204.871L256.873 204.048C269.021 181.87 275.596 160.608 277.379 140.165C278.88 122.962 276.974 106.93 272.372 91.4888C268.291 77.8637 261.566 63.9343 253.88 53.4614C245.294 41.7641 236.087 35.0315 227.357 35.0315ZM227.357 37.4147C235.145 37.4147 243.774 43.7243 251.955 54.8703C259.474 65.115 266.08 78.7987 270.085 92.1702C274.604 107.335 276.475 123.069 275.002 139.958C273.211 160.479 266.504 181.869 254.037 204.248L254 204.321C253.85 204.641 253.849 205.012 254 205.335L260.836 219.841H193.587L200.319 205.328C200.48 204.982 200.465 204.581 200.279 204.248C187.826 181.892 181.19 160.515 179.499 139.964C178.114 123.125 180.056 107.439 184.629 92.1702C188.634 78.7987 195.24 65.115 202.759 54.8703C210.94 43.7243 219.569 37.4147 227.357 37.4147Z" fill="#2E186A"/>
<path fill-rule="evenodd" clip-rule="evenodd" d="M227.357 135.678C238.428 135.678 247.403 125.008 247.403 111.847C247.403 98.6854 238.428 88.0159 227.357 88.0159C216.286 88.0159 207.311 98.6854 207.311 111.847C207.311 125.008 216.286 135.678 227.357 135.678Z" fill="#333333"/>
<path fill-rule="evenodd" clip-rule="evenodd" d="M227.357 146.402C229.202 146.402 230.698 144.623 230.698 142.43C230.698 140.236 229.202 138.458 227.357 138.458C225.512 138.458 224.016 140.236 224.016 142.43C224.016 144.623 225.512 146.402 227.357 146.402Z" fill="#333333"/>
<path fill-rule="evenodd" clip-rule="evenodd" d="M240.244 146.402C242.089 146.402 243.585 144.623 243.585 142.43C243.585 140.236 242.089 138.458 240.244 138.458C238.399 138.458 236.903 140.236 236.903 142.43C236.903 144.623 238.399 146.402 240.244 146.402Z" fill="#333333"/>
<path fill-rule="evenodd" clip-rule="evenodd" d="M213.476 146.402C215.321 146.402 216.817 144.623 216.817 142.43C216.817 140.236 215.321 138.458 213.476 138.458C211.63 138.458 210.135 140.236 210.135 142.43C210.135 144.623 211.63 146.402 213.476 146.402Z" fill="#333333"/>
<path fill-rule="evenodd" clip-rule="evenodd" d="M227.357 127.496C235.726 127.496 242.511 119.44 242.511 109.503C242.511 99.5665 235.726 91.511 227.357 91.511C218.988 91.511 212.203 99.5665 212.203 109.503C212.203 119.44 218.988 127.496 227.357 127.496Z" fill="white"/>
<path fill-rule="evenodd" clip-rule="evenodd" d="M227.357 90.3196C218.279 90.3196 211.01 98.9498 211.01 109.504C211.01 120.057 218.279 128.687 227.357 128.687C236.436 128.687 243.704 120.057 243.704 109.504C243.704 98.9498 236.436 90.3196 227.357 90.3196ZM227.357 92.7028C235.017 92.7028 241.318 100.183 241.318 109.504C241.318 118.824 235.017 126.304 227.357 126.304C219.697 126.304 213.396 118.824 213.396 109.504C213.396 100.183 219.697 92.7028 227.357 92.7028Z" fill="#2E186A"/>
<path fill-rule="evenodd" clip-rule="evenodd" d="M230.897 35.548V7.38767C230.897 7.30823 230.897 7.2288 230.897 7.10964C231.414 6.39471 231.732 5.48119 231.732 4.52795C231.732 2.10513 229.783 0.158936 227.357 0.158936C224.931 0.158936 222.982 2.10513 222.982 4.52795C222.982 5.48119 223.3 6.39471 223.817 7.10964C223.817 7.18908 223.817 7.26851 223.817 7.38767V35.5082C216.459 37.0175 209.1 43.1739 202.379 51.4353C209.975 49.6877 218.845 48.7344 229.028 49.2905C238.136 49.8068 246.25 51.0778 253.37 52.7857C246.409 43.8888 238.613 37.2161 230.897 35.548Z" fill="#333333"/>
<path fill-rule="evenodd" clip-rule="evenodd" d="M260.012 67.4021C251.222 64.463 241.119 61.8813 227.556 61.365C213.714 60.8486 203.214 63.9466 194.583 67.3227C190.804 74.3131 187.821 81.2241 185.395 88.6514C195.736 83.6072 208.424 78.2849 227.874 78.6424C246.369 78.9602 259.097 83.0511 268.762 87.3407C266.416 80.39 263.552 73.9954 260.012 67.4021Z" fill="#333333"/>
<path fill-rule="evenodd" clip-rule="evenodd" d="M254.046 204.629C255.319 202.325 256.552 200.061 257.705 197.797C251.62 195.335 242.869 193.269 227.317 193.428C211.606 193.309 202.816 195.414 196.731 197.916C197.884 200.141 199.077 202.405 200.31 204.669C200.31 204.669 214.112 201.968 227.278 202.087C240.244 201.968 254.046 204.629 254.046 204.629Z" fill="#333333"/>
<path fill-rule="evenodd" clip-rule="evenodd" d="M327.39 268.059H264.864C264.864 268.059 255.875 259.996 260.012 253.403C264.149 246.81 275.007 245.221 278.547 251.894C278.547 251.894 280.098 239.144 293.184 240.137C306.31 241.13 305.275 254.754 305.275 254.754C305.275 254.754 321.861 243.037 321.424 261.347C321.384 261.307 322.418 268.059 327.39 268.059Z" fill="white"/>
<path fill-rule="evenodd" clip-rule="evenodd" d="M264.864 269.251H327.39L327.471 269.248C328.954 269.17 328.954 266.948 327.471 266.87L327.39 266.867C325.729 266.867 324.495 265.886 323.587 264.139C323.246 263.483 322.981 262.77 322.792 262.069C322.736 261.862 322.691 261.668 322.657 261.5L322.625 261.334L322.618 261.295L322.617 261.375C322.827 252.554 319.134 249.014 313.153 250.035C311.47 250.323 309.705 250.96 307.924 251.839L307.606 251.998C307.29 252.159 306.982 252.323 306.683 252.49L306.431 252.631L306.43 252.613C306.408 252.336 306.379 252.049 306.343 251.752C306.142 250.107 305.739 248.481 305.085 246.949C303.151 242.419 299.381 239.474 293.486 238.966L293.274 238.949C286.902 238.465 282.454 240.956 279.723 245.36L279.564 245.623C278.939 246.675 278.447 247.775 278.07 248.885L277.98 249.157L277.873 249.053C272.927 244.364 263.163 246.136 259.001 252.77C258.287 253.908 257.881 255.131 257.765 256.415C257.499 259.371 258.737 262.416 260.932 265.407C261.613 266.336 262.342 267.193 263.071 267.96L263.254 268.151C263.608 268.517 263.889 268.785 264.067 268.945C264.286 269.142 264.57 269.251 264.864 269.251ZM293.093 241.325C298.187 241.711 301.27 244.09 302.89 247.884C303.449 249.193 303.798 250.605 303.974 252.041C304.085 252.952 304.115 253.756 304.097 254.391L304.091 254.565L304.085 254.663C304.011 255.646 305.09 256.28 305.909 255.763L306.121 255.619L306.399 255.437C306.519 255.359 306.65 255.276 306.79 255.19C307.46 254.776 308.199 254.361 308.981 253.975C310.573 253.19 312.13 252.628 313.555 252.384C315.554 252.043 317.114 252.353 318.2 253.395L318.275 253.468C319.553 254.757 320.271 257.164 320.238 260.883L320.232 261.248L320.23 261.288L320.232 261.429L320.24 261.518L320.248 261.58C320.255 261.635 320.266 261.7 320.279 261.771L320.292 261.845C320.339 262.092 320.405 262.38 320.488 262.688C320.719 263.545 321.042 264.416 321.468 265.237L321.54 265.373C321.794 265.845 322.073 266.282 322.378 266.68L322.527 266.867H265.34L265.239 266.768C265.102 266.632 264.956 266.482 264.802 266.32C264.138 265.622 263.474 264.841 262.857 263.999C260.973 261.431 259.938 258.888 260.142 256.629C260.224 255.715 260.511 254.852 261.023 254.036C264.827 247.973 274.35 246.913 277.402 252.287L277.492 252.451C278.028 253.461 279.528 253.207 279.721 252.107L279.744 251.945C279.756 251.867 279.776 251.754 279.803 251.612C279.875 251.242 279.973 250.826 280.102 250.377C280.472 249.092 281.013 247.807 281.752 246.615C284.032 242.938 287.65 240.912 293.093 241.325Z" fill="#2E186A"/>
<path fill-rule="evenodd" clip-rule="evenodd" d="M128.318 268.178H190.844C190.844 268.178 199.833 260.115 195.696 253.522C191.56 246.929 180.701 245.34 177.162 252.013C177.162 252.013 175.61 239.263 162.524 240.256C149.399 241.249 150.433 254.873 150.433 254.873C150.433 254.873 133.847 243.156 134.285 261.466C134.324 261.426 133.29 268.139 128.318 268.178Z" fill="white"/>
<path fill-rule="evenodd" clip-rule="evenodd" d="M128.318 269.37H190.844C191.138 269.37 191.422 269.261 191.641 269.065L191.739 268.976C191.951 268.78 192.26 268.477 192.638 268.079C193.367 267.312 194.095 266.455 194.777 265.526C196.971 262.535 198.21 259.49 197.943 256.534C197.827 255.25 197.422 254.027 196.708 252.89L196.564 252.665C192.324 246.216 182.725 244.536 177.835 249.172L177.728 249.276L177.639 249.005C177.23 247.802 176.687 246.611 175.985 245.48C173.285 241.126 168.908 238.642 162.653 239.053L162.434 239.068C156.417 239.523 152.58 242.484 150.623 247.069C149.969 248.6 149.567 250.226 149.365 251.871L149.34 252.092C149.323 252.238 149.309 252.382 149.296 252.523L149.277 252.75L149.025 252.609C148.626 252.387 148.212 252.169 147.785 251.958C146.003 251.079 144.239 250.442 142.556 250.155L142.377 250.125C136.561 249.213 132.956 252.69 133.086 261.231L133.09 261.414L133.071 261.519C133.036 261.706 132.983 261.934 132.916 262.181C132.728 262.879 132.463 263.589 132.122 264.242L132.054 264.371C131.174 265.992 129.995 266.925 128.433 266.984L128.309 266.987C126.724 266.999 126.734 269.37 128.318 269.37ZM173.956 246.734C174.695 247.926 175.236 249.211 175.606 250.496C175.735 250.946 175.834 251.361 175.905 251.731L175.957 252.023L175.977 252.157C176.115 253.291 177.606 253.59 178.181 252.632L178.216 252.571C181.165 247.011 190.843 248.031 194.685 254.155C195.198 254.972 195.484 255.834 195.566 256.748C195.77 259.007 194.736 261.55 192.852 264.118C192.234 264.96 191.57 265.741 190.907 266.439L190.792 266.558L190.573 266.782C190.503 266.854 190.434 266.922 190.368 266.987L133.167 266.986L133.176 266.975C133.572 266.491 133.925 265.944 134.239 265.343C134.666 264.524 134.989 263.656 135.22 262.803C135.303 262.497 135.369 262.21 135.416 261.963L135.441 261.821C135.449 261.777 135.455 261.736 135.46 261.7L135.468 261.637L135.477 261.549L135.478 261.412L135.476 261.365L135.47 261.002C135.436 257.212 136.183 254.784 137.508 253.514C138.594 252.472 140.154 252.162 142.153 252.504C143.578 252.747 145.136 253.309 146.727 254.095C147.51 254.481 148.248 254.895 148.918 255.309L149.186 255.477C149.228 255.504 149.27 255.53 149.31 255.556L149.587 255.738L149.744 255.845C150.55 256.415 151.649 255.816 151.626 254.849L151.616 254.643C151.589 253.99 151.615 253.137 151.734 252.16C151.91 250.724 152.259 249.312 152.818 248.003C154.416 244.261 157.437 241.895 162.407 241.461L162.615 241.444C168.058 241.031 171.676 243.057 173.956 246.734Z" fill="#2E186A"/>
<path fill-rule="evenodd" clip-rule="evenodd" d="M494.801 280.372C495.46 280.372 495.994 280.905 495.994 281.563C495.994 282.198 495.498 282.716 494.871 282.753L494.801 282.755H1.19885C0.539846 282.755 0.00561523 282.221 0.00561523 281.563C0.00561523 280.929 0.502368 280.41 1.12874 280.374L1.19885 280.372H494.801Z" fill="#2E186A"/>
</svg>
