<svg width="488" height="323" viewBox="0 0 488 323" fill="none" xmlns="http://www.w3.org/2000/svg">
<path fill-rule="evenodd" clip-rule="evenodd" d="M347.478 0H237.196C224.032 0 213.375 10.6712 213.375 23.8534V104.829H222.054V23.9982C222.054 17.045 227.841 11.3955 235.026 11.3955H259.715V16.6587C259.715 18.3487 261.162 19.749 262.898 19.749H308.515C310.3 19.749 311.698 18.3487 311.698 16.6587V11.3955H336.387C343.572 11.3955 349.359 17.045 349.359 23.9982V111.493H357.894V22.1633C357.894 11.975 349.359 3.71803 338.847 3.71803C338.027 3.71803 337.4 3.09031 337.4 2.26945C337.4 1.44858 338.027 0.820864 338.847 0.820864C350.95 0.820864 360.787 10.3815 360.787 22.1633V111.493H371.348V23.8534C371.348 10.6712 360.643 0 347.478 0Z" fill="#333333"/>
<rect x="213.375" y="173.106" width="8.67984" height="96.6205" fill="#333333"/>
<path fill-rule="evenodd" clip-rule="evenodd" d="M349.359 139.595V205.168L357.894 206.713V139.595H349.359Z" fill="#333333"/>
<path fill-rule="evenodd" clip-rule="evenodd" d="M357.894 293.097V293.049V219.412L349.359 218.06V296.96C349.359 303.913 343.572 309.562 336.387 309.562H235.026C228.179 309.562 222.537 304.396 222.103 297.829H213.423C214.098 310.383 224.851 321.199 237.534 321.199L340.583 320.379C340.583 319.703 341.017 319.123 341.692 318.978C348.684 317.288 353.554 312.508 356.11 304.734C358.087 298.698 357.894 293.145 357.894 293.097Z" fill="#333333"/>
<path fill-rule="evenodd" clip-rule="evenodd" d="M360.787 139.595V208.017L366.043 213.328L360.787 216.805V293C360.787 293.531 360.932 299.229 358.907 305.506C356.592 312.653 352.3 317.723 346.466 320.379H347.478C360.643 320.379 371.3 309.707 371.3 296.525V139.595H360.787Z" fill="#333333"/>
<path fill-rule="evenodd" clip-rule="evenodd" d="M340.631 320.668C340.775 321.344 341.402 321.779 342.029 321.779C342.126 321.779 342.27 321.779 342.367 321.731C343.813 321.393 345.164 320.91 346.466 320.33H340.583C340.583 320.475 340.583 320.572 340.631 320.668Z" fill="#333333"/>
<path fill-rule="evenodd" clip-rule="evenodd" d="M318.427 93.4874C318.851 92.8088 319.743 92.6021 320.421 93.0257C328.765 98.2413 338.27 100.933 350.489 101.111C351.288 101.123 351.926 101.781 351.915 102.581C351.903 103.381 351.246 104.02 350.447 104.008C337.711 103.823 327.689 100.984 318.889 95.4833C318.211 95.0597 318.004 94.1661 318.427 93.4874Z" fill="#333333"/>
<path fill-rule="evenodd" clip-rule="evenodd" d="M227.923 40.8394C234.297 39.8839 239.588 39.4549 245.242 39.6649C252.702 39.9421 259.764 41.3833 266.454 44.272C272.484 46.8758 278.083 50.6109 283.201 55.6066C285.868 58.2318 288.494 60.9804 291.26 64.0169C291.798 64.6079 291.757 65.5241 291.166 66.0633C290.576 66.6025 289.661 66.5605 289.123 65.9695C286.39 62.9697 283.799 60.2584 281.177 57.677C276.318 52.9341 271.016 49.3968 265.308 46.9323C258.968 44.1946 252.255 42.8246 245.135 42.5601C239.865 42.3644 234.894 42.7473 228.949 43.6161L228.346 43.7062C227.908 43.7778 222.779 44.5833 221.261 44.776L221.059 44.8005C220.265 44.8897 219.549 44.3175 219.46 43.5225C219.371 42.7274 219.942 42.0106 220.736 41.9214L221.088 41.8773C222.857 41.6416 228.291 40.7842 227.923 40.8394Z" fill="#333333"/>
<path fill-rule="evenodd" clip-rule="evenodd" d="M220.731 227.292C226.191 226.662 232.436 226.539 239.131 227.242C239.926 227.326 240.502 228.039 240.419 228.834C240.336 229.63 239.624 230.207 238.829 230.124C232.36 229.444 226.324 229.563 221.063 230.17C220.269 230.262 219.552 229.692 219.46 228.897C219.369 228.103 219.938 227.384 220.731 227.292Z" fill="#333333"/>
<path fill-rule="evenodd" clip-rule="evenodd" d="M275.367 242.795C275.866 242.171 276.776 242.069 277.4 242.569C279.45 244.211 281.352 245.885 283.196 247.685L284.345 248.802C296.555 260.639 303.442 265.929 311.734 269.417C320.716 273.195 331.338 274.641 350.487 274.893C351.286 274.904 351.925 275.561 351.915 276.361C351.904 277.161 351.248 277.801 350.449 277.79C331.153 277.536 320.239 276.074 310.896 272.206L310.613 272.088C301.64 268.314 294.354 262.621 281.177 249.759C279.402 248.027 277.571 246.416 275.593 244.831C274.969 244.332 274.868 243.42 275.367 242.795Z" fill="#333333"/>
<path fill-rule="evenodd" clip-rule="evenodd" d="M318.69 63.3031H255.375C254.443 63.3031 253.688 64.0598 253.688 64.9931V128.393C253.688 129.326 254.443 130.083 255.375 130.083H318.69C319.622 130.083 320.378 129.326 320.378 128.393V64.9931C320.378 64.0598 319.622 63.3031 318.69 63.3031ZM317.002 66.6827V126.702H257.063V66.6827H317.002Z" fill="#FE7624"/>
<path fill-rule="evenodd" clip-rule="evenodd" d="M272.783 132.111H256.484C255.552 132.111 254.797 132.868 254.797 133.801V150.122C254.797 151.055 255.552 151.812 256.484 151.812H272.783C273.715 151.812 274.471 151.055 274.471 150.122V133.801C274.471 132.868 273.715 132.111 272.783 132.111ZM271.095 135.49V148.431H258.172V135.49H271.095Z" fill="#FE7624"/>
<path fill-rule="evenodd" clip-rule="evenodd" d="M271.59 132.606C272.249 131.946 273.318 131.946 273.977 132.606C274.612 133.242 274.635 134.26 274.045 134.924L273.977 134.996L257.678 151.317C257.019 151.977 255.95 151.977 255.291 151.317C254.655 150.68 254.633 149.663 255.223 148.999L255.291 148.927L271.59 132.606Z" fill="#FE7624"/>
<path fill-rule="evenodd" clip-rule="evenodd" d="M295.013 132.111H278.714C277.782 132.111 277.027 132.868 277.027 133.801V150.122C277.027 151.055 277.782 151.812 278.714 151.812H295.013C295.945 151.812 296.701 151.055 296.701 150.122V133.801C296.701 132.868 295.945 132.111 295.013 132.111ZM293.325 135.491V148.432H280.402V135.491H293.325Z" fill="#FE7624"/>
<path fill-rule="evenodd" clip-rule="evenodd" d="M293.82 132.606C294.479 131.946 295.547 131.946 296.207 132.606C296.842 133.242 296.865 134.26 296.275 134.924L296.207 134.996L279.908 151.317C279.249 151.977 278.18 151.977 277.521 151.317C276.885 150.68 276.863 149.663 277.453 148.999L277.521 148.927L293.82 132.606Z" fill="#FE7624"/>
<path fill-rule="evenodd" clip-rule="evenodd" d="M317.292 132.111H300.993C300.061 132.111 299.305 132.868 299.305 133.801V150.122C299.305 151.055 300.061 151.812 300.993 151.812H317.292C318.224 151.812 318.979 151.055 318.979 150.122V133.801C318.979 132.868 318.224 132.111 317.292 132.111ZM315.603 135.491V148.432H302.68V135.491H315.603Z" fill="#FE7624"/>
<path fill-rule="evenodd" clip-rule="evenodd" d="M316.098 132.606C316.757 131.946 317.826 131.946 318.485 132.606C319.121 133.242 319.143 134.26 318.553 134.924L318.485 134.996L302.186 151.317C301.527 151.977 300.458 151.977 299.799 151.317C299.164 150.68 299.141 149.663 299.731 148.999L299.799 148.927L316.098 132.606Z" fill="#FE7624"/>
<path fill-rule="evenodd" clip-rule="evenodd" d="M323.801 167.553H252.723C244.799 167.553 238.401 173.959 238.401 181.894V190.054C238.401 197.989 244.799 204.395 252.723 204.395H323.801C331.71 204.395 338.123 197.957 338.123 190.054V181.894C338.123 173.959 331.726 167.553 323.801 167.553ZM252.723 170.933H323.801C329.861 170.933 334.748 175.826 334.748 181.894V190.054C334.748 196.092 329.844 201.015 323.801 201.015H252.723C246.663 201.015 241.777 196.122 241.777 190.054V181.894C241.777 175.826 246.663 170.933 252.723 170.933Z" fill="#FE7624"/>
<path fill-rule="evenodd" clip-rule="evenodd" d="M323.319 207.727H252.241C244.317 207.727 237.919 214.133 237.919 222.068V230.228C237.919 238.163 244.317 244.569 252.241 244.569H323.319C331.228 244.569 337.641 238.131 337.641 230.228V222.068C337.641 214.133 331.243 207.727 323.319 207.727ZM252.241 211.107H323.319C329.379 211.107 334.265 216 334.265 222.068V230.228C334.265 236.266 329.362 241.189 323.319 241.189H252.241C246.181 241.189 241.295 236.296 241.295 230.228V222.068C241.295 216 246.181 211.107 252.241 211.107Z" fill="#FE7624"/>
<path fill-rule="evenodd" clip-rule="evenodd" d="M316.381 64.287C317.037 63.6237 318.106 63.6184 318.768 64.275C319.407 64.9083 319.435 65.9258 318.848 66.5925L318.78 66.665L256.575 129.582C255.919 130.245 254.85 130.251 254.188 129.594C253.549 128.961 253.521 127.943 254.108 127.276L254.176 127.204L316.381 64.287Z" fill="#FE7624"/>
<path fill-rule="evenodd" clip-rule="evenodd" d="M233.049 103.381H135.304C128.67 103.381 123.297 108.761 123.297 115.404V162.531C123.297 169.174 128.67 174.554 135.304 174.554H233.049C239.674 174.554 245.056 169.182 245.056 162.579V115.404C245.056 108.761 239.683 103.381 233.049 103.381ZM135.304 106.278H233.049C238.085 106.278 242.163 110.361 242.163 115.404V162.579C242.163 167.58 238.078 171.657 233.049 171.657H135.304C130.268 171.657 126.19 167.574 126.19 162.531V115.404C126.19 110.361 130.268 106.278 135.304 106.278Z" fill="#333333"/>
<path fill-rule="evenodd" clip-rule="evenodd" d="M170.94 135.926H170.602C169.59 135.926 168.818 135.105 168.818 134.139V132.352C168.818 131.338 169.638 130.566 170.602 130.566H170.94C171.953 130.566 172.724 131.387 172.724 132.352V134.139C172.724 135.105 171.904 135.926 170.94 135.926Z" fill="#FE7624"/>
<path fill-rule="evenodd" clip-rule="evenodd" d="M164.864 135.926H142.73C141.38 135.926 140.319 134.863 140.319 133.511V132.98C140.319 131.628 141.38 130.566 142.73 130.566H164.864C166.214 130.566 167.275 131.628 167.275 132.98V133.511C167.275 134.863 166.214 135.926 164.864 135.926Z" fill="#333333"/>
<path fill-rule="evenodd" clip-rule="evenodd" d="M167.323 160.889H142.73C141.38 160.889 140.319 159.827 140.319 158.475V157.944C140.319 156.592 141.38 155.53 142.73 155.53H167.323C168.673 155.53 169.734 156.592 169.734 157.944V158.475C169.734 159.827 168.625 160.889 167.323 160.889Z" fill="#333333"/>
<path fill-rule="evenodd" clip-rule="evenodd" d="M190.952 152.584H150.205C148.854 152.584 147.793 151.522 147.793 150.17V149.639C147.793 148.287 148.854 147.224 150.205 147.224H190.952C192.302 147.224 193.363 148.287 193.363 149.639V150.17C193.363 151.522 192.254 152.584 190.952 152.584Z" fill="#FE7624"/>
<path fill-rule="evenodd" clip-rule="evenodd" d="M218.1 152.584H198.281C196.931 152.584 195.87 151.522 195.87 150.17V149.639C195.87 148.287 196.931 147.224 198.281 147.224H218.1C219.45 147.224 220.511 148.287 220.511 149.639V150.17C220.511 151.522 219.45 152.584 218.1 152.584Z" fill="#FE7624"/>
<path fill-rule="evenodd" clip-rule="evenodd" d="M227.069 144.279H226.732C225.719 144.279 224.948 143.458 224.948 142.492V140.706C224.948 139.692 225.768 138.919 226.732 138.919H227.069C228.082 138.919 228.854 139.74 228.854 140.706V142.492C228.854 143.458 228.082 144.279 227.069 144.279Z" fill="#333333"/>
<path fill-rule="evenodd" clip-rule="evenodd" d="M185.069 144.279H142.73C141.38 144.279 140.319 143.217 140.319 141.865V141.334C140.319 139.982 141.38 138.919 142.73 138.919H185.069C186.419 138.919 187.48 139.982 187.48 141.334V141.865C187.48 143.168 186.371 144.279 185.069 144.279Z" fill="#333333"/>
<path fill-rule="evenodd" clip-rule="evenodd" d="M199.005 135.926H176.871C175.521 135.926 174.46 134.863 174.46 133.511V132.98C174.46 131.628 175.521 130.566 176.871 130.566H199.005C200.355 130.566 201.416 131.628 201.416 132.98V133.511C201.416 134.863 200.307 135.926 199.005 135.926Z" fill="#333333"/>
<path fill-rule="evenodd" clip-rule="evenodd" d="M220.415 144.279H191.964C190.614 144.279 189.553 143.217 189.553 141.865V141.285C189.553 139.933 190.614 138.871 191.964 138.871H220.415C221.765 138.871 222.826 139.933 222.826 141.285V141.865C222.826 143.168 221.765 144.279 220.415 144.279Z" fill="#FE7624"/>
<path fill-rule="evenodd" clip-rule="evenodd" d="M145.383 118.88L152.326 114.68C152.423 114.631 152.568 114.583 152.664 114.583C152.857 114.583 153.002 114.631 153.146 114.776C153.291 114.921 153.339 115.066 153.339 115.259C153.339 115.5 153.243 115.694 153.002 115.887L147.022 119.46L153.002 123.033C153.243 123.178 153.339 123.371 153.339 123.661C153.339 123.854 153.291 123.999 153.146 124.144C153.002 124.289 152.857 124.337 152.664 124.337C152.519 124.337 152.423 124.289 152.326 124.24L145.383 120.039C145.141 119.894 144.997 119.653 144.997 119.412C144.997 119.267 145.141 119.025 145.383 118.88Z" fill="#333333"/>
<path fill-rule="evenodd" clip-rule="evenodd" d="M160.572 112.024C160.717 111.879 160.862 111.831 161.054 111.831C161.247 111.831 161.392 111.879 161.537 112.024C161.681 112.169 161.73 112.314 161.73 112.507C161.73 112.603 161.73 112.7 161.681 112.796L156.088 126.799C156.039 126.848 155.991 126.944 155.943 126.993C155.798 127.137 155.654 127.186 155.461 127.186C155.268 127.186 155.123 127.137 154.979 126.993C154.834 126.848 154.786 126.703 154.786 126.51C154.786 126.413 154.786 126.317 154.834 126.22L160.428 112.217C160.476 112.12 160.524 112.072 160.572 112.024Z" fill="#333333"/>
<path fill-rule="evenodd" clip-rule="evenodd" d="M171.567 119.508C171.567 119.75 171.422 119.991 171.181 120.136L164.237 124.337C164.141 124.385 163.996 124.433 163.9 124.433C163.707 124.433 163.562 124.385 163.417 124.24C163.273 124.095 163.224 123.951 163.224 123.757C163.224 123.516 163.321 123.323 163.562 123.13L169.541 119.556L163.562 115.983C163.321 115.838 163.224 115.645 163.224 115.356C163.224 115.162 163.273 115.018 163.417 114.873C163.562 114.728 163.707 114.68 163.9 114.68C164.044 114.68 164.141 114.728 164.237 114.776L171.181 118.977C171.422 119.025 171.567 119.267 171.567 119.508Z" fill="#333333"/>
<path fill-rule="evenodd" clip-rule="evenodd" d="M483.607 265.912C483.848 259.055 480.087 252.73 474.011 249.591L458.966 241.334L457.809 246.501C456.555 252.15 450.961 255.772 445.271 254.516C439.629 253.261 436.013 247.66 437.266 241.962L438.761 235.154C436.881 233.85 435.386 232.063 434.662 229.745C434.518 229.311 434.421 228.876 434.325 228.442C429.84 227.09 425.018 227.186 420.534 228.78L398.159 236.747L369.515 206.278L350.034 226.752L386.393 268.616C388.756 271.32 392.517 272.286 395.892 271.03L402.065 268.23L391.167 321.006L401.149 321.199C398.496 320.717 399.798 318.592 401.534 317.964C402.643 317.578 404.235 316.854 405.585 316.323C403.801 316.902 401.486 317.771 400.136 318.64C398.4 319.316 396.471 318.157 396.278 317.578C396.134 317.192 396.809 316.467 398.014 315.598L397.58 315.791C394.253 316.612 392.662 316.419 393.53 314.584C394.156 313.329 402.595 308.935 404.235 308.452C405.874 307.969 420.292 305.893 420.292 305.893L424.005 321.248L474.927 321.586C480.183 321.586 484.379 318.061 484.33 312.798L483.607 265.912ZM457.905 298.843L422.993 306.617C422.896 306.617 422.8 306.665 422.655 306.665C421.98 306.665 421.402 306.182 421.257 305.506C421.064 304.734 421.594 303.961 422.366 303.768L456.025 296.284L454.771 278.852C454.723 278.032 455.301 277.356 456.121 277.307C456.941 277.259 457.616 277.838 457.664 278.659L459.014 297.346C459.062 298.022 458.58 298.65 457.905 298.843Z" fill="#333333"/>
<path fill-rule="evenodd" clip-rule="evenodd" d="M336.726 210.204L335.789 209.853C335.558 209.768 335.329 209.685 335.16 209.626L334.898 209.538L334.796 209.504L335.038 209.678L335.2 209.791C336.31 210.565 337.728 211.449 339.35 212.398L339.968 212.757C341.142 213.452 342.552 214.038 344.147 214.517C346.018 215.08 348.038 215.469 350.06 215.711C350.668 215.784 351.238 215.839 351.759 215.879L352.015 215.897C352.219 215.911 352.4 215.922 352.554 215.929L352.729 215.936C353.528 215.96 354.156 216.627 354.132 217.427C354.109 218.227 353.442 218.856 352.643 218.832L352.361 218.82C352.215 218.813 352.033 218.802 351.818 218.788C351.182 218.744 350.476 218.679 349.716 218.588C347.54 218.327 345.362 217.908 343.315 217.292C341.631 216.786 340.107 216.165 338.79 215.421L337.806 214.851C333.063 212.086 330.604 210.311 330.336 208.764C330.065 207.307 330.998 206.305 332.357 206.169C333.067 206.098 333.904 206.232 334.917 206.514C335.273 206.614 335.644 206.731 336.033 206.863L336.368 206.981C336.592 207.061 336.848 207.155 337.074 207.24L337.689 207.472C338.442 207.738 338.837 208.565 338.571 209.32C338.305 210.074 337.479 210.47 336.726 210.204Z" fill="#333333"/>
<path fill-rule="evenodd" clip-rule="evenodd" d="M332.02 205.463C331.619 203.139 333.466 201.788 335.789 202.129C337.733 202.414 339.861 203.761 341.523 205.861C342.02 206.488 341.914 207.399 341.288 207.896C340.662 208.393 339.752 208.288 339.256 207.661C338.028 206.11 336.539 205.167 335.37 204.996C335.282 204.983 335.202 204.975 335.132 204.972L335.045 204.969L335.09 205.018C335.271 205.211 335.505 205.444 335.783 205.709L335.906 205.825C336.73 206.602 337.871 207.597 339.136 208.645L339.679 209.092C342.151 211.113 344.545 212.887 345.673 213.51C347.934 214.768 351.113 215.794 355.132 216.437C355.484 216.493 355.801 216.677 356.025 216.951L356.084 217.028L358.447 220.36C358.909 221.012 358.756 221.917 358.105 222.38C357.478 222.825 356.619 222.701 356.143 222.111L356.088 222.038L354.073 219.197L353.92 219.171C350.058 218.493 346.896 217.459 344.501 216.171L344.272 216.045C342.924 215.301 340.34 213.381 337.681 211.198L336.928 210.575C333.774 207.948 332.169 206.406 332.02 205.463Z" fill="#333333"/>
<path fill-rule="evenodd" clip-rule="evenodd" d="M340.766 201.066C341.193 200.388 341.982 200.062 342.883 200.119C343.638 200.166 344.554 200.47 345.706 201.043L345.927 201.156L346.882 201.667C347.476 201.982 348.079 202.298 348.664 202.6L349.411 202.983C350.423 203.496 351.254 203.898 351.827 204.147L352.043 204.238L352.341 204.281C352.718 204.338 353.137 204.406 353.587 204.489C354.876 204.725 356.167 205.022 357.382 205.388C359.608 206.059 361.336 206.879 362.416 207.936L366.068 211.642L366.295 211.869C366.86 212.435 366.86 213.352 366.295 213.918C365.73 214.484 364.814 214.484 364.249 213.918L360.395 210.01C359.71 209.35 358.35 208.705 356.548 208.162C355.448 207.83 354.258 207.557 353.067 207.339C352.649 207.262 352.262 207.199 351.915 207.147L351.496 207.088C351.377 207.074 351.261 207.044 351.149 207.001L350.938 206.916C350.273 206.641 349.31 206.179 348.104 205.567L347.784 205.404C347.233 205.123 346.664 204.827 346.094 204.527L345.073 203.985L344.554 203.705L344.4 203.628L344.531 203.74C345.185 204.297 346.045 204.957 346.912 205.571L347.113 205.712C347.406 205.917 347.687 206.107 347.944 206.275L348.046 206.342L348.209 206.434L348.542 206.619C348.649 206.677 348.753 206.733 348.852 206.786L349.283 207.011C350.768 207.754 350.036 210.009 348.398 209.735C348.084 209.683 347.518 209.4 346.833 208.986L346.765 208.944L346.354 208.711C345.766 208.372 345.182 208.014 344.617 207.643L344.197 207.363C342.944 206.51 341.92 205.669 341.191 204.836C341.053 204.679 340.925 204.522 340.809 204.365L340.79 204.338C340.613 204.182 340.382 204.046 340.117 203.938L340.042 203.909L340.108 203.998C340.402 204.392 340.759 204.851 341.198 205.4L341.754 206.089C342.278 206.736 343.121 207.467 344.184 208.225C344.922 208.75 345.719 209.256 346.516 209.72L346.841 209.907C346.946 209.966 347.047 210.023 347.144 210.076L347.563 210.303C348.273 210.67 348.552 211.544 348.185 212.255C347.818 212.965 346.946 213.244 346.236 212.877L345.903 212.699C345.648 212.56 345.366 212.401 345.062 212.224C344.193 211.719 343.324 211.167 342.507 210.586C341.25 209.69 340.227 208.802 339.508 207.916L338.954 207.229C338.133 206.203 337.571 205.46 337.152 204.835C336.827 204.351 336.594 203.945 336.444 203.58C336.154 202.87 336.097 202.217 336.596 201.574C337.305 200.661 339.08 200.567 340.686 201.077L340.748 201.097L340.766 201.066Z" fill="#333333"/>
<path fill-rule="evenodd" clip-rule="evenodd" d="M421.676 305.469L421.698 305.552L425.411 320.907C425.625 321.791 424.983 322.643 424.09 322.694L424.005 322.696L403.173 322.696L403.059 322.703C400.313 322.853 398.475 322.101 398.254 320.347L398.244 320.262L398.194 320.254C396.72 320.012 395.384 319.195 394.986 318.172L394.954 318.084C394.915 317.966 394.889 317.848 394.875 317.729L394.872 317.701L394.75 317.703C394.377 317.707 394.044 317.679 393.744 317.615L393.634 317.59C391.91 317.162 391.444 315.61 392.236 313.936C392.723 312.961 394.627 311.707 397.806 309.959L398.339 309.668C400.647 308.421 402.938 307.324 403.827 307.062L403.974 307.022C404.823 306.805 407.125 306.415 410.68 305.863L411.969 305.665L414.712 305.25L418.108 304.747L420.087 304.459C420.796 304.357 421.469 304.79 421.676 305.469ZM422.166 319.799L419.197 307.515L417.97 307.695C416.547 307.904 415.125 308.116 413.756 308.323L411.166 308.72C407.656 309.264 405.257 309.673 404.676 309.832L404.643 309.842C403.972 310.039 401.606 311.182 399.359 312.41L399.199 312.498C397.958 313.18 396.854 313.832 396.031 314.375L395.759 314.557C395.716 314.586 395.673 314.615 395.632 314.644L395.5 314.736L395.528 314.733C395.905 314.677 396.356 314.591 396.872 314.471L397.249 314.381L397.359 314.306C398.005 313.867 398.753 313.439 399.574 313.028L399.74 312.946C400.224 312.708 400.75 312.464 401.31 312.218C402.332 311.767 403.423 311.325 404.512 310.909L404.956 310.741C405.099 310.688 405.238 310.636 405.37 310.587L405.973 310.369C406.726 310.103 407.552 310.5 407.818 311.254C408.073 311.982 407.715 312.777 407.013 313.071L406.557 313.238C406.251 313.349 405.911 313.476 405.543 313.616C404.495 314.017 403.448 314.441 402.475 314.87C401.95 315.101 401.461 315.327 401.015 315.547C399.934 316.078 399.004 316.663 398.356 317.198L398.243 317.293L398.314 317.318C398.714 317.451 399.112 317.482 399.458 317.401L399.553 317.375L399.564 317.368C400.382 316.867 401.465 316.363 402.769 315.851L403.033 315.748C403.539 315.553 404.062 315.363 404.593 315.178L404.759 315.121L405.665 314.759C407.283 314.127 407.756 314.042 408.352 314.182L408.395 314.193C409.833 314.553 409.865 316.588 408.438 316.992L408.071 317.1L407.497 317.274C407.361 317.316 407.222 317.36 407.078 317.406C406.735 317.514 406.393 317.626 406.053 317.74L405.779 317.835L402.785 319.054L402.059 319.332C401.842 319.408 401.627 319.531 401.45 319.675L401.367 319.748L401.388 319.752C401.736 319.819 402.231 319.846 402.868 319.812L403.03 319.802L403.126 319.799L422.166 319.799Z" fill="#333333"/>
<path fill-rule="evenodd" clip-rule="evenodd" d="M460.99 228.559C461.192 227.785 461.982 227.321 462.755 227.523C463.501 227.718 463.958 228.461 463.809 229.207L463.789 229.29L459.213 246.845L459.176 247.008C457.678 253.279 451.475 257.259 445.151 255.971L444.957 255.93C438.584 254.512 434.514 248.239 435.813 241.84L435.854 241.646L437.253 235.369C437.427 234.588 438.2 234.097 438.98 234.271C439.732 234.439 440.215 235.165 440.093 235.916L440.077 236L438.679 242.274C437.601 247.171 440.702 252.016 445.582 253.102C450.42 254.169 455.205 251.144 456.359 246.347L456.409 246.135L460.99 228.559Z" fill="#333333"/>
<path fill-rule="evenodd" clip-rule="evenodd" d="M452.973 192.165C454.391 192.315 455.846 192.691 457.277 193.227C458.251 193.592 459.057 193.967 459.734 194.327C466.263 197.816 469.064 202.692 469.157 208.475C469.191 210.565 468.86 212.648 468.275 214.633C468.062 215.356 467.827 216.023 467.585 216.622L467.533 216.749C467.448 216.956 467.37 217.135 467.302 217.284L467.204 217.492L467.103 217.67L465.46 220.696C464.701 222.089 463.999 223.358 463.308 224.585L462.762 225.548L462.346 226.273C460.824 228.913 459.642 230.796 458.959 231.624L458.718 231.904C456.461 234.487 455.251 235.179 450.928 236.15L450.697 236.202C444.965 237.483 437.744 234.543 436.142 229.32C435.719 227.943 435.508 226.324 435.49 224.515C435.468 222.246 435.746 219.803 436.23 217.34L436.346 216.772L436.427 216.4C436.499 216.077 436.582 215.727 436.666 215.379L437.13 213.486L437.16 213.495C438.927 207.466 441.471 201.258 444.444 196.198C446.366 192.935 449.267 191.772 452.973 192.165ZM469.633 219.075L469.085 220.016C468.74 220.584 469.169 219.654 468.466 219.654C469.014 219.654 469.514 219.344 469.759 218.853L469.781 218.81L469.875 218.614C469.99 218.369 470.123 218.066 470.268 217.707C470.544 217.024 470.809 216.27 471.05 215.453C471.713 213.204 472.089 210.836 472.05 208.429C471.94 201.62 468.579 195.77 461.094 191.77C460.311 191.354 459.395 190.927 458.291 190.513C456.646 189.897 454.961 189.462 453.277 189.284C448.596 188.788 444.626 190.343 442.066 194.535L441.951 194.728C438.846 200.013 436.214 206.436 434.384 212.679L434.358 212.779C434.343 212.846 434.334 212.915 434.329 212.983L434.324 213.084L434.324 213.069C434.318 213.001 434.274 213.107 434.247 213.177L434.228 213.228L434.146 213.528L434.103 213.687C433.892 214.482 433.685 215.352 433.49 216.29C432.91 219.095 432.571 221.899 432.597 224.543C432.617 226.613 432.864 228.501 433.376 230.171C435.481 237.034 444.262 240.609 451.325 239.03L451.816 238.919C456.708 237.795 458.379 236.744 461.172 233.49C462.006 232.478 463.235 230.525 464.829 227.762L465.445 226.685L465.618 226.38C466.385 225.024 467.157 223.63 467.999 222.086L469.633 219.075Z" fill="#333333"/>
<path fill-rule="evenodd" clip-rule="evenodd" d="M435.723 213.087C437.266 207.824 439.774 201.208 443.149 195.462C443.294 195.221 443.487 194.931 443.632 194.69C440.883 192.517 436.398 197.007 433.312 206.134C431.721 210.866 427.333 213.28 427.333 213.28C430.66 216.225 433.698 214.922 435.675 213.28C435.723 213.183 435.723 213.087 435.723 213.087Z" fill="#333333"/>
<path fill-rule="evenodd" clip-rule="evenodd" d="M442.192 209.507C442.489 208.764 443.331 208.403 444.072 208.7C444.788 208.986 445.149 209.78 444.908 210.503L444.878 210.583L441.866 218.123L443.399 218.677C444.124 218.939 444.512 219.72 444.296 220.45L444.269 220.531C444.008 221.257 443.228 221.646 442.498 221.429L442.417 221.403L439.476 220.34C438.734 220.072 438.348 219.261 438.594 218.522L438.624 218.44L442.192 209.507Z" fill="#333333"/>
<path fill-rule="evenodd" clip-rule="evenodd" d="M441.151 209.435C441.466 208.7 441.345 207.942 440.88 207.742C440.415 207.543 439.782 207.977 439.467 208.712C439.152 209.447 439.274 210.205 439.739 210.405C440.204 210.605 440.836 210.171 441.151 209.435Z" fill="#333333"/>
<path fill-rule="evenodd" clip-rule="evenodd" d="M449.245 212.919C449.417 212.138 449.156 211.416 448.662 211.307C448.168 211.197 447.628 211.742 447.456 212.523C447.284 213.305 447.545 214.026 448.039 214.136C448.533 214.245 449.073 213.7 449.245 212.919Z" fill="#333333"/>
<path fill-rule="evenodd" clip-rule="evenodd" d="M450.797 206.907C450.957 206.123 451.721 205.617 452.504 205.776C453.838 206.049 454.901 206.704 455.694 207.615C456.068 208.045 456.357 208.504 456.574 208.966C456.71 209.255 456.796 209.496 456.842 209.666C457.051 210.438 456.595 211.234 455.824 211.443C455.08 211.645 454.315 211.227 454.074 210.505L454.04 210.395C454.026 210.358 453.999 210.29 453.957 210.2C453.848 209.968 453.7 209.734 453.512 209.518C453.15 209.102 452.684 208.801 452.071 208.648L451.926 208.615C451.143 208.456 450.638 207.691 450.797 206.907Z" fill="#333333"/>
<path fill-rule="evenodd" clip-rule="evenodd" d="M440.951 200.642C442.1 200.522 443.216 200.884 444.288 201.534C444.817 201.855 445.226 202.177 445.482 202.414C446.068 202.957 446.104 203.874 445.562 204.461C445.04 205.026 444.174 205.081 443.587 204.602L443.458 204.489C443.438 204.473 443.414 204.454 443.387 204.431L443.343 204.396C443.177 204.266 442.99 204.134 442.789 204.012C442.207 203.66 441.658 203.481 441.252 203.524C441.116 203.538 440.993 203.577 440.874 203.648L440.802 203.695C440.15 204.157 439.247 204.002 438.786 203.349C438.324 202.695 438.479 201.791 439.132 201.329C439.685 200.937 440.301 200.71 440.951 200.642Z" fill="#333333"/>
<path fill-rule="evenodd" clip-rule="evenodd" d="M486.018 213.328L477.145 208.789C478.254 202.174 477.579 191.889 465.138 186.095C445.705 177.065 438.617 196.525 438.617 196.525L483.125 219.026C484.716 219.847 486.645 219.219 487.465 217.626C488.236 216.08 487.609 214.149 486.018 213.328Z" fill="#FE7624"/>
<path fill-rule="evenodd" clip-rule="evenodd" d="M441.413 226.607C439.436 222.551 448.695 225.303 448.695 225.303C448.695 225.303 446.091 234.622 441.413 226.607Z" fill="#333333"/>
<path fill-rule="evenodd" clip-rule="evenodd" d="M476.085 215.549L457.326 206.085C455.157 212.894 452.408 226.559 464.029 230.132C464.029 230.132 473.143 233.125 475.747 230.18C475.747 230.18 469.526 225.593 470.925 221.875C470.925 221.875 477.29 231.339 484.813 226.317C484.813 226.221 475.94 223.372 476.085 215.549Z" fill="#333333"/>
<path fill-rule="evenodd" clip-rule="evenodd" d="M424.391 110.044H336.725C330.091 110.044 324.718 115.425 324.718 122.067V129.021C324.718 135.663 330.091 141.044 336.725 141.044H424.391C430.975 141.044 436.344 135.668 436.398 129.033L436.398 122.067C436.398 115.425 431.025 110.044 424.391 110.044ZM336.725 112.941H424.391C429.427 112.941 433.505 117.025 433.505 122.067V129.021C433.464 134.059 429.381 138.147 424.391 138.147H336.725C331.689 138.147 327.611 134.063 327.611 129.021V122.067C327.611 117.025 331.689 112.941 336.725 112.941Z" fill="#333333"/>
<path fill-rule="evenodd" clip-rule="evenodd" d="M421.691 121.198C422.49 121.198 423.137 121.847 423.137 122.647C423.137 123.418 422.535 124.049 421.776 124.093L421.691 124.095H340.149C339.35 124.095 338.702 123.447 338.702 122.647C338.702 121.875 339.304 121.245 340.064 121.201L340.149 121.198H421.691Z" fill="#333333"/>
<path fill-rule="evenodd" clip-rule="evenodd" d="M378.822 128.151C379.621 128.151 380.269 128.8 380.269 129.6C380.269 130.371 379.666 131.002 378.907 131.046L378.822 131.049H340.149C339.35 131.049 338.702 130.4 338.702 129.6C338.702 128.829 339.304 128.198 340.064 128.154L340.149 128.151H378.822Z" fill="#333333"/>
<path fill-rule="evenodd" clip-rule="evenodd" d="M283.923 268.278H196.256C189.622 268.278 184.249 273.658 184.249 280.301V287.254C184.249 293.897 189.622 299.277 196.256 299.277H283.923C290.556 299.277 295.93 293.897 295.93 287.254V280.301C295.93 273.658 290.556 268.278 283.923 268.278ZM196.256 271.175H283.923C288.958 271.175 293.036 275.258 293.036 280.301V287.254C293.036 292.297 288.958 296.38 283.923 296.38H196.256C191.22 296.38 187.142 292.297 187.142 287.254V280.301C187.142 275.258 191.22 271.175 196.256 271.175Z" fill="#333333"/>
<path fill-rule="evenodd" clip-rule="evenodd" d="M281.222 279.432C282.021 279.432 282.669 280.08 282.669 280.88C282.669 281.652 282.067 282.283 281.307 282.327L281.222 282.329H199.728C198.929 282.329 198.281 281.681 198.281 280.88C198.281 280.109 198.884 279.478 199.643 279.434L199.728 279.432H281.222Z" fill="#333333"/>
<path fill-rule="evenodd" clip-rule="evenodd" d="M238.402 286.385C239.201 286.385 239.848 287.034 239.848 287.834C239.848 288.605 239.246 289.236 238.487 289.28L238.402 289.282H199.728C198.929 289.282 198.281 288.634 198.281 287.834C198.281 287.062 198.884 286.432 199.643 286.388L199.728 286.385H238.402Z" fill="#333333"/>
<path fill-rule="evenodd" clip-rule="evenodd" d="M158.306 50.3624H70.6396C64.0058 50.3624 58.6324 55.743 58.6324 62.3857V69.3389C58.6324 75.9815 64.0058 81.3621 70.6396 81.3621H158.306C164.89 81.3621 170.258 75.9862 170.313 69.3509L170.313 62.3857C170.313 55.743 164.94 50.3624 158.306 50.3624ZM70.6396 53.2596H158.306C163.342 53.2596 167.42 57.3431 167.42 62.3857V69.3389C167.378 74.3769 163.296 78.465 158.306 78.465H70.6396C65.6037 78.465 61.5257 74.3815 61.5257 69.3389V62.3857C61.5257 57.3431 65.6037 53.2596 70.6396 53.2596Z" fill="#333333"/>
<path fill-rule="evenodd" clip-rule="evenodd" d="M155.606 61.5165C156.405 61.5165 157.052 62.1651 157.052 62.9651C157.052 63.7366 156.45 64.3672 155.691 64.4112L155.606 64.4137H74.0633C73.2644 64.4137 72.6167 63.7651 72.6167 62.9651C72.6167 62.1937 73.2189 61.5631 73.9783 61.519L74.0633 61.5165H155.606Z" fill="#333333"/>
<path fill-rule="evenodd" clip-rule="evenodd" d="M112.737 68.4697C113.536 68.4697 114.183 69.1183 114.183 69.9183C114.183 70.6898 113.581 71.3204 112.822 71.3645L112.737 71.3669H74.0633C73.2644 71.3669 72.6167 70.7184 72.6167 69.9183C72.6167 69.1469 73.2189 68.5163 73.9783 68.4722L74.0633 68.4697H112.737Z" fill="#333333"/>
<path fill-rule="evenodd" clip-rule="evenodd" d="M96.7909 188.337C97.099 187.599 97.9463 187.25 98.6835 187.559C104.539 190.009 107.825 194.237 109.13 199.733L109.188 199.985L109.259 200.022C111.273 201.082 113.371 202.589 115.733 204.607L116.902 205.622C117.869 206.474 118.706 207.253 120.375 208.859L124.464 212.81C125.893 214.186 126.976 215.203 128.054 216.174L128.249 216.349L128.279 216.368C128.37 216.43 128.452 216.498 128.548 216.589L128.689 216.728L129.042 217.051C141.522 228.663 146.167 246.484 140.987 262.776L140.826 263.274L137.161 274.428C137.036 274.807 136.762 275.116 136.404 275.285L136.239 275.354L132.276 276.892C130.918 277.417 129.47 277.975 127.943 278.56L126.392 279.154C118.883 282.025 111.235 284.897 103.902 287.577L101.96 288.285L100.049 288.978C80.8752 295.91 68.2564 299.905 64.3707 299.905C58.9007 299.905 43.439 289.179 32.3488 277.275C17.9012 261.768 12.1576 246.691 19.5632 235.189C24.7429 227.153 30.5353 220.338 36.6877 214.659C40.9259 210.747 45.0652 207.617 48.8823 205.226L49.0518 205.12L49.0358 205.047C47.4985 197.745 53.1613 191.797 66.7199 187.822L67.1553 187.696C67.9235 187.476 68.7243 187.921 68.9441 188.69C69.164 189.459 68.7195 190.261 67.9513 190.481C54.7101 194.275 50.2444 199.345 52.106 205.367C52.3033 206.005 52.0393 206.696 51.4669 207.039C47.5167 209.406 43.1468 212.638 38.6486 216.789C32.6721 222.306 27.0384 228.934 21.9945 236.759C15.5389 246.786 20.8232 260.657 34.4644 275.299C39.8977 281.131 46.344 286.669 52.4498 290.905L52.916 291.226C58.1758 294.825 62.6028 297.008 64.3707 297.008C67.7005 297.008 80.2271 293.052 98.5105 286.453L100.973 285.561C101.613 285.329 102.259 285.093 102.91 284.855C109.706 282.371 116.774 279.722 123.751 277.062L126.398 276.05C127.939 275.46 129.403 274.896 130.779 274.365L134.625 272.874L138.078 262.366C143.158 247.012 138.85 230.131 127.072 219.174L126.713 218.843L126.613 218.746L126.584 218.728C126.557 218.71 126.531 218.691 126.506 218.671L126.433 218.61L126.12 218.329C124.921 217.249 123.725 216.122 122.085 214.539L119.615 212.153C113.071 205.86 110.665 203.885 107.292 202.274C106.877 202.076 106.58 201.692 106.494 201.239C105.526 196.177 102.806 192.424 97.5678 190.232C96.8307 189.923 96.4828 189.075 96.7909 188.337Z" fill="#333333"/>
<path fill-rule="evenodd" clip-rule="evenodd" d="M106.516 200.387C107.191 203.912 106.95 207.244 106.854 209.272C106.468 217.722 103.334 222.309 102.369 225.448C108.541 221.778 114.232 213.28 117.028 207.727C115.196 206.085 109.602 201.884 106.516 200.387Z" fill="#333333"/>
<path fill-rule="evenodd" clip-rule="evenodd" d="M72.8095 226.076C69.7715 224.675 54.2443 214.632 51.6403 204.878C48.5059 206.568 43.6356 209.514 40.5977 213.135C44.1178 215.26 63.9368 227.041 72.6648 226.414C72.8095 226.414 72.9059 226.414 73.0024 226.365C72.9059 226.269 72.8577 226.172 72.8095 226.076Z" fill="#333333"/>
<path fill-rule="evenodd" clip-rule="evenodd" d="M96.6308 226.172C99.958 216.418 97.4505 205.602 95.0877 202.416C92.5802 212.169 86.9383 218.157 86.9383 218.157C77.4387 207.341 67.5533 201.208 67.5533 201.208L67.8426 200.87C67.4086 200.87 67.1675 200.919 67.1675 200.919L63.5991 204.588C63.5991 204.588 80.4766 217.432 85.9738 248.432C89.5422 268.568 91.3746 287.447 91.3746 287.447L101.839 286.868C101.887 286.868 93.0142 236.747 96.6308 226.172Z" fill="#FE7624"/>
<path fill-rule="evenodd" clip-rule="evenodd" d="M62.4073 178.098C63.1428 177.785 63.992 178.129 64.3041 178.866C64.6161 179.602 64.2728 180.452 63.5373 180.765C61.4248 181.662 60.4709 183.067 61.5351 185.338C62.4441 187.293 64.0749 187.347 66.374 186.081C67.074 185.695 67.9537 185.951 68.3387 186.652C68.7237 187.353 68.4683 188.234 67.7683 188.62C66.3499 189.401 64.9023 189.865 63.4907 189.818C61.5157 189.752 59.8918 188.667 58.914 186.565C57.8704 184.338 58.0003 182.309 59.1179 180.663C59.9103 179.496 61.0962 178.655 62.4073 178.098Z" fill="#333333"/>
<path fill-rule="evenodd" clip-rule="evenodd" d="M92.4895 161.133C93.234 160.843 94.0725 161.212 94.3623 161.957C97.3768 169.714 99.1464 179.881 99.2826 186.839C99.2983 187.639 98.6634 188.3 97.8646 188.316C97.0658 188.331 96.4056 187.696 96.3899 186.896C96.26 180.259 94.5482 170.424 91.666 163.008C91.3763 162.263 91.7449 161.423 92.4895 161.133Z" fill="#333333"/>
<path fill-rule="evenodd" clip-rule="evenodd" d="M71.0251 193.434L71.1101 193.437C71.8792 193.482 72.4725 194.121 72.4719 194.883L72.4693 194.968L72.3246 197.431C72.3081 197.713 72.2094 197.983 72.042 198.209L71.976 198.292L69.7232 200.907L69.9469 201.06C71.2218 201.938 72.6398 202.974 74.1653 204.164C78.3447 207.425 82.523 211.197 86.4472 215.449L86.902 215.945L87.1062 215.682L87.2418 215.503C88.2932 214.106 89.3475 212.478 90.3322 210.64C92.4229 206.738 93.9073 202.444 94.5216 197.83C94.6272 197.037 95.3548 196.48 96.1468 196.586C96.9387 196.691 97.4951 197.42 97.3895 198.213C96.7262 203.194 95.1285 207.816 92.8818 212.009C91.824 213.984 90.6897 215.735 89.5526 217.246L89.328 217.542C88.744 218.302 88.2809 218.843 87.9899 219.151C87.4051 219.772 86.4144 219.754 85.8519 219.113C85.504 218.717 85.1524 218.324 84.7971 217.933C80.8502 213.593 76.618 209.75 72.3871 206.45C71.0218 205.385 69.7478 204.448 68.5933 203.645L68.3072 203.447C67.9403 203.194 67.6095 202.971 67.3176 202.779L66.9346 202.53C66.8705 202.489 66.8225 202.459 66.7914 202.44C66.0615 201.987 65.8886 201.007 66.4003 200.333L66.4578 200.262L69.4652 196.77L69.581 194.798C69.6263 194.028 70.2645 193.434 71.0251 193.434Z" fill="#333333"/>
<path fill-rule="evenodd" clip-rule="evenodd" d="M66.903 178.105L63.431 179.264C62.631 179.531 62.2334 180.42 62.5505 181.189L62.6289 181.357L63.6069 183.371L64.3852 184.963C64.8184 185.846 65.2503 186.722 65.6739 187.575L66.5121 189.257C68.034 192.296 69.1936 194.523 69.8736 195.679L70.1383 196.119C72.1911 199.481 73.7408 200.728 78.394 202.601C81.2141 203.736 85.0782 204.002 88.5654 203.259C92.6186 202.396 95.842 200.285 97.4466 197.019C98.8565 194.15 99.3717 190.46 99.2523 186.307C99.2106 184.859 99.0924 183.449 98.9234 182.124L98.8617 181.66C98.8304 181.435 98.7986 181.221 98.7668 181.018L98.7349 180.818C98.6991 180.599 98.6681 180.422 98.6438 180.292L98.6296 180.217C98.5021 179.56 97.9408 179.075 97.2723 179.046C96.1924 178.999 94.5697 179.187 92.5479 179.534C92.0218 179.625 91.4939 179.722 90.9762 179.823L90.1858 179.981L89.4257 180.141L89.366 180.155C86.9387 180.797 84.599 181.564 82.3596 182.43C79.9045 183.38 77.6949 184.398 75.7636 185.419L75.5127 185.552L75.0341 185.812L74.6192 186.042L74.5677 185.962C72.7213 183.088 69.4225 179.049 68.1186 178.246C67.7541 178.021 67.309 177.97 66.903 178.105ZM65.9099 181.491L67.0711 181.103L67.151 181.181C68.6267 182.632 71.7723 186.694 72.8323 188.703C73.2287 189.454 74.1831 189.704 74.8961 189.243L75.1298 189.098C75.2159 189.045 75.3209 188.982 75.4444 188.91C75.9171 188.631 76.4749 188.318 77.1136 187.981C78.9486 187.011 81.0563 186.04 83.4022 185.133L83.9888 184.909C85.756 184.245 87.5866 183.646 89.4733 183.127L90.0746 182.964L90.6435 182.844C90.7629 182.819 90.8927 182.793 91.0317 182.765C91.6862 182.633 92.365 182.506 93.0377 182.39L93.2464 182.354C94.1959 182.194 95.0458 182.075 95.7476 182.006L95.9851 181.983L96.0324 182.329C96.0394 182.382 96.0463 182.436 96.0533 182.491C96.211 183.727 96.3214 185.044 96.3601 186.39C96.4672 190.115 96.0116 193.377 94.8505 195.74C92.5776 200.366 84.7441 202.034 79.4731 199.913L79.0541 199.742C75.3125 198.207 74.2581 197.323 72.596 194.591L72.4121 194.285C71.7903 193.242 70.6274 191.011 69.0982 187.958L68.2646 186.286C67.8431 185.436 67.4132 184.564 66.9819 183.685L65.9099 181.491Z" fill="#333333"/>
<path fill-rule="evenodd" clip-rule="evenodd" d="M65.1904 182.232C65.1904 182.232 61.188 178.466 58.9698 174.12C56.8481 170.015 57.7643 164.945 61.2845 162C64.2742 159.537 67.071 160.213 67.071 160.213C67.071 160.213 62.0078 154.998 66.0101 148.287C67.4568 145.921 69.7714 144.231 72.4718 143.651C79.0781 142.203 82.4536 147.273 82.4536 147.273C82.4536 147.273 86.3113 132.642 102.562 136.698C104.201 137.133 106.371 138.871 107.529 140.126C114.424 147.707 101.356 162 93.3999 164.849C84.6718 167.987 79.0781 167.794 75.6544 166.297C78.1137 166.973 79.0299 180.976 65.1904 182.232Z" fill="#333333"/>
<path fill-rule="evenodd" clip-rule="evenodd" d="M89.0395 176.286C89.7619 176.018 90.5617 176.365 90.8669 177.062L90.8987 177.141L93.9367 185.35C94.2768 186.269 93.6269 187.245 92.6658 187.299L92.5802 187.302H89.4458C88.6468 187.302 87.9991 186.653 87.9991 185.853C87.9991 185.082 88.6014 184.451 89.3608 184.407L89.4458 184.405L90.5009 184.404L88.1857 178.148C87.918 177.425 88.2639 176.624 88.9607 176.318L89.0395 176.286Z" fill="#333333"/>
<path fill-rule="evenodd" clip-rule="evenodd" d="M93.6711 178.134C94.1365 178.019 94.3636 177.317 94.1784 176.566C93.9932 175.815 93.4658 175.3 93.0005 175.415C92.5351 175.53 92.308 176.232 92.4932 176.983C92.6784 177.734 93.2058 178.249 93.6711 178.134Z" fill="#333333"/>
<path fill-rule="evenodd" clip-rule="evenodd" d="M85.8466 179.999C86.3253 179.974 86.6795 179.326 86.6377 178.554C86.5959 177.782 86.174 177.177 85.6953 177.203C85.2166 177.229 84.8625 177.876 84.9043 178.648C84.9461 179.421 85.368 180.025 85.8466 179.999Z" fill="#333333"/>
<path fill-rule="evenodd" clip-rule="evenodd" d="M83.2671 171.707C84.0655 171.676 84.7371 172.3 84.7673 173.099C84.7963 173.87 84.2183 174.523 83.4611 174.596L83.3762 174.602C82.6503 174.629 82.0887 174.889 81.6354 175.317C81.3731 175.564 81.2056 175.806 81.1363 175.938L81.1185 175.975C80.7879 176.703 79.9302 177.025 79.2029 176.694C78.4755 176.363 78.1539 175.504 78.4845 174.776L78.5467 174.648C78.6068 174.532 78.6879 174.391 78.792 174.233C79.0219 173.882 79.3058 173.534 79.6502 173.209C80.5893 172.322 81.8015 171.762 83.2671 171.707Z" fill="#333333"/>
<path fill-rule="evenodd" clip-rule="evenodd" d="M93.188 166.855C94.1753 166.874 95.082 167.21 95.806 167.914C96.3793 168.471 96.393 169.388 95.8365 169.962C95.3023 170.513 94.4369 170.548 93.8613 170.057L93.7909 169.993C93.6254 169.832 93.4237 169.757 93.1332 169.751C92.7525 169.744 92.2796 169.864 91.7911 170.077C91.4901 170.208 91.2612 170.337 91.1549 170.406C90.4866 170.845 89.5899 170.658 89.152 169.988C88.7142 169.319 88.901 168.421 89.5693 167.983L89.7252 167.885C89.9538 167.747 90.2636 167.583 90.6376 167.42C91.4744 167.056 92.3294 166.839 93.188 166.855Z" fill="#333333"/>
<path fill-rule="evenodd" clip-rule="evenodd" d="M90.3716 188.282L90.3709 188.27L85.597 188.56C84.4728 188.628 83.8542 189.9 84.4936 190.828C84.5815 190.956 84.718 191.12 84.9084 191.306C85.1913 191.582 85.5378 191.849 85.9516 192.093C86.8479 192.621 87.9531 192.975 89.2711 193.091C89.3258 193.095 89.3807 193.097 89.4356 193.096C90.9967 193.055 91.9581 192.084 92.0577 190.754C92.0864 190.371 92.0429 189.996 91.9538 189.64C91.9222 189.513 91.8856 189.393 91.8477 189.289L91.8171 189.209L91.7629 189.085C91.7506 189.061 91.733 189.03 91.6859 188.947L91.665 188.903C91.6268 188.83 91.5615 188.777 91.1483 188.442L90.9968 188.37C90.8639 188.311 90.7786 188.296 90.5405 188.287L90.3716 188.282Z" fill="#333333"/>
<path fill-rule="evenodd" clip-rule="evenodd" d="M74.1145 222.429C74.8214 222.122 75.6387 222.424 75.9812 223.105L76.0283 223.207L76.2145 223.648L76.4343 224.18C76.5805 224.538 76.737 224.928 76.9018 225.346C77.5601 227.019 78.2183 228.813 78.8331 230.659C79.5034 232.672 80.0815 234.628 80.5402 236.484C81.0624 238.598 81.4177 240.534 81.5794 242.261C81.6539 243.058 81.0695 243.764 80.2741 243.839C79.4786 243.913 78.7733 243.328 78.6987 242.532C78.5519 240.963 78.2217 239.163 77.7316 237.18C77.2928 235.404 76.7359 233.52 76.0884 231.576C75.5574 229.981 74.9923 228.424 74.4234 226.955L74.21 226.409C74.0821 226.084 73.9594 225.777 73.8431 225.49L73.5452 224.766L73.3628 224.334C73.045 223.6 73.3815 222.747 74.1145 222.429Z" fill="#333333"/>
<path fill-rule="evenodd" clip-rule="evenodd" d="M99.8336 222.798C100.601 222.731 101.28 223.278 101.389 224.032L101.405 224.185L101.74 227.958L101.931 230.044C102.115 232.048 102.303 234.036 102.491 235.955L102.651 237.581C102.734 238.408 102.815 239.207 102.895 239.975L103.036 241.326C103.12 242.122 102.545 242.835 101.75 242.919C100.984 243.001 100.294 242.468 100.17 241.717L100.159 241.632L100.017 240.275C99.9528 239.657 99.8878 239.019 99.8219 238.364L99.5306 235.409C99.3962 234.021 99.2618 232.602 99.129 231.17L98.7943 227.506L98.5167 224.365C98.448 223.568 99.0376 222.866 99.8336 222.798Z" fill="#333333"/>
<path fill-rule="evenodd" clip-rule="evenodd" d="M61.8674 239.043C62.465 238.512 63.3793 238.567 63.9096 239.165C64.4195 239.741 64.3887 240.609 63.8544 241.147L63.7878 241.21L56.5064 247.681C56.0276 248.106 55.3265 248.166 54.7827 247.828C50.7793 245.337 47.4825 245.419 44.8007 246.992C44.3951 247.229 44.0434 247.483 43.7497 247.733L43.5915 247.872C43.5479 247.911 43.5134 247.944 43.4883 247.969L43.4505 248.008C42.912 248.599 41.997 248.641 41.4068 248.102C40.8165 247.563 40.7746 246.647 41.313 246.056C41.4264 245.931 41.6146 245.747 41.8766 245.525C42.294 245.17 42.7815 244.818 43.3385 244.492C46.6501 242.549 50.7076 242.312 55.2254 244.738L55.3697 244.817L61.8674 239.043Z" fill="#333333"/>
<path fill-rule="evenodd" clip-rule="evenodd" d="M53.6144 245.493C54.0102 244.798 54.8937 244.556 55.5877 244.953L69.9465 253.132C72.6693 254.677 74.3433 255.62 74.5654 255.731C75.2801 256.089 75.5697 256.959 75.2124 257.675C74.8683 258.364 74.0498 258.658 73.3515 258.36L73.2715 258.323C73.0387 258.206 71.8346 257.531 69.7873 256.371L62.2455 252.084L54.1544 247.469C53.4603 247.073 53.2186 246.188 53.6144 245.493Z" fill="#333333"/>
<path fill-rule="evenodd" clip-rule="evenodd" d="M114.76 236.434C115.465 236.124 116.284 236.423 116.629 237.102L116.665 237.179L120.282 245.436C120.603 246.169 120.27 247.023 119.538 247.344C118.833 247.654 118.014 247.355 117.669 246.677L117.632 246.6L114.016 238.343C113.695 237.61 114.028 236.756 114.76 236.434Z" fill="#333333"/>
<path fill-rule="evenodd" clip-rule="evenodd" d="M73.0024 289.137C73.0024 289.137 54.9194 281.605 32.5447 266.057C10.17 250.509 -4.05531 274.555 1.92413 284.405C7.22848 293.097 37.0293 322.889 37.0293 322.889L138.439 322.069C138.439 322.069 162.26 292.035 166.021 287.351C178.655 271.465 168.239 263.015 154.304 261.807C141.236 260.649 105.889 286.433 101.549 289.765L73.0024 289.137Z" fill="#333333"/>
<path fill-rule="evenodd" clip-rule="evenodd" d="M135.063 245.149H69.8679C69 245.149 68.2766 245.728 68.0837 246.549L59.2592 283.971H42.864C42.864 283.971 41.3691 291.648 50.049 291.648C52.2671 291.648 55.5462 291.648 59.211 291.648C59.3557 291.697 59.5486 291.745 59.7415 291.745H124.937C125.805 291.745 126.528 291.165 126.721 290.345L136.847 247.418C137.137 246.259 136.269 245.149 135.063 245.149Z" fill="#FE7624"/>
</svg>
