<svg width="528" height="272" viewBox="0 0 528 272" fill="none" xmlns="http://www.w3.org/2000/svg">
<path fill-rule="evenodd" clip-rule="evenodd" d="M175.081 127.087C175.613 127.087 176.044 127.519 176.044 128.051C176.044 128.564 175.643 128.983 175.138 129.012L175.081 129.014H133.688C109.759 129.014 92.7659 148.051 95.3507 171.747L95.435 172.466L103.27 234.95C103.337 235.478 102.962 235.96 102.434 236.026C101.925 236.09 101.459 235.744 101.367 235.246L101.359 235.19L93.5232 172.706C90.3991 147.78 107.999 127.497 132.931 127.094L133.688 127.087H175.081Z" fill="#333333"/>
<path fill-rule="evenodd" clip-rule="evenodd" d="M203.487 106.933C203.893 106.873 204.293 107.077 204.483 107.441L205.606 109.591C205.647 109.669 205.677 109.753 205.696 109.839L205.707 109.905L207.056 119.602C207.086 119.823 207.039 120.048 206.923 120.237L206.887 120.293L201.749 127.517C201.44 127.951 200.839 128.052 200.405 127.744C199.988 127.448 199.878 126.88 200.145 126.452L200.178 126.401L205.094 119.488L203.821 110.336L203.093 108.942L202.99 108.958C190.473 110.915 182.64 114.487 179.051 119.393L178.941 119.545C175.821 123.941 176.061 129.461 179.314 135.968C179.599 136.538 179.263 137.222 178.637 137.344C157.49 141.474 140.281 159.207 130.014 184.666C120.763 207.604 118.683 233.719 124.673 250.48L125.646 253.228C127.705 259.016 128.954 261.827 130.812 264.325C133.201 267.536 136.162 269.164 140.248 269.202C140.78 269.207 141.207 269.642 141.202 270.174C141.197 270.706 140.762 271.133 140.23 271.128C135.517 271.084 132.002 269.152 129.266 265.475L129.111 265.264C127.239 262.69 125.97 259.85 123.998 254.343L122.899 251.241C122.885 251.203 122.872 251.165 122.858 251.128C116.694 233.88 118.812 207.29 128.227 183.945C138.506 158.457 155.684 140.458 176.96 135.727L177.054 135.706L176.989 135.564C174.062 129.07 173.994 123.312 177.263 118.583L177.37 118.43C181.346 112.828 189.915 108.952 203.487 106.933Z" fill="#333333"/>
<path fill-rule="evenodd" clip-rule="evenodd" d="M215.607 152.935C215.607 152.871 215.607 152.807 215.607 152.743C217.116 152.903 218.593 152.903 220.038 151.683C223.571 148.633 224.823 147.701 224.823 147.701C224.823 147.701 225.144 148.087 225.722 148.729C226.429 147.445 227.135 146.096 227.874 144.747C212.62 132.931 200.963 126.959 200.963 126.959L200.096 126.349L194.509 133.188C194.509 133.188 203.629 139.449 215.607 152.935Z" fill="#FE7624"/>
<path fill-rule="evenodd" clip-rule="evenodd" d="M289.337 263.776C289.337 263.776 264.931 198.145 268.046 177.82C269.748 166.71 267.083 154.155 263.422 144.426L256.421 144.876L248.04 164.655C248.586 164.783 249.132 164.912 249.678 164.976C249.678 164.976 249.357 167.063 248.554 171.815C248.008 174.994 248.939 175.347 249.646 177.563C250.577 179.04 251.284 180.71 250.513 183.31C250.256 184.145 249.646 192.108 248.265 202.897C250.834 208.323 253.274 214.103 255.587 220.268C270.39 259.73 268.849 264.032 268.849 264.032L289.337 263.776Z" fill="#FE7624"/>
<path fill-rule="evenodd" clip-rule="evenodd" d="M258.561 109.147C258.733 108.644 259.281 108.376 259.784 108.548C269.542 111.891 276.353 117.169 280.798 124.061C284.019 129.056 285.733 134.255 286.87 140.825L286.916 141.098L287.566 141.594C318.656 165.401 340.871 192.246 355.633 220.411L356.083 221.274C361.632 231.983 365.814 242.348 368.817 252.143C370.929 259.03 372.24 264.886 372.946 269.506C373.026 270.032 372.665 270.523 372.139 270.604C371.613 270.684 371.122 270.323 371.041 269.797L370.966 269.316C370.258 264.861 368.985 259.264 366.975 252.708C364.005 243.021 359.867 232.763 354.372 222.16C339.593 193.641 317.123 166.453 285.446 142.4C285.25 142.251 285.119 142.033 285.079 141.79C283.982 135.147 282.337 130.003 279.178 125.105C274.971 118.58 268.511 113.574 259.16 110.371C258.657 110.199 258.388 109.651 258.561 109.147Z" fill="#333333"/>
<path fill-rule="evenodd" clip-rule="evenodd" d="M273.906 173.101C274.593 173.126 275.134 173.687 275.143 174.367L275.141 174.45L275.135 174.663C275.129 174.857 275.124 175.087 275.118 175.35C274.974 182.582 275.338 191.337 276.633 199.711C277.22 203.504 277.974 206.97 278.908 210.036C279.115 210.714 278.733 211.432 278.054 211.639C277.376 211.846 276.658 211.463 276.451 210.785C275.478 207.593 274.699 204.01 274.094 200.104C272.797 191.718 272.417 183.002 272.542 175.717L272.561 174.803L272.575 174.337C272.6 173.649 273.161 173.108 273.841 173.1L273.906 173.101Z" fill="#333333"/>
<path fill-rule="evenodd" clip-rule="evenodd" d="M285.066 141.376C285.29 142.757 285.483 144.009 285.644 145.101C287.603 157.88 283.396 166.389 280.602 172.265C288.084 166.967 293.158 156.885 295.695 149.211C292.644 146.77 288.437 143.88 285.066 141.376Z" fill="#333333"/>
<path fill-rule="evenodd" clip-rule="evenodd" d="M179.223 135.821C173.989 136.881 165.383 139.514 159.153 143.784C163.488 146.16 184.972 159.004 202.505 166.71C202.633 166.646 203.597 165.04 204.078 164.398C194.38 156.724 184.169 145.743 179.223 135.821Z" fill="#333333"/>
<path fill-rule="evenodd" clip-rule="evenodd" d="M193.1 83.742C193.613 83.6023 194.143 83.9051 194.283 84.4184C194.417 84.9134 194.141 85.4234 193.66 85.5845L193.492 85.6344C193.441 85.6502 193.377 85.6705 193.3 85.6957C193.038 85.782 192.745 85.8891 192.427 86.018C191.519 86.3866 190.611 86.8523 189.769 87.4191C186.224 89.8064 184.948 93.0773 187.127 97.6813C188.495 100.574 190.405 101.801 192.843 101.79C194.784 101.78 196.942 101.002 199.3 99.6635C199.762 99.4009 200.351 99.563 200.613 100.026C200.876 100.488 200.714 101.076 200.251 101.339C197.631 102.826 195.195 103.705 192.852 103.716C189.658 103.732 187.07 102.068 185.385 98.505C182.759 92.9547 184.418 88.6997 188.693 85.8212C189.654 85.1738 190.679 84.6485 191.703 84.2329C192.32 83.9821 192.807 83.8217 193.1 83.742Z" fill="#333333"/>
<path fill-rule="evenodd" clip-rule="evenodd" d="M224.07 40.0136C222.069 40.4148 220.354 40.8925 218.925 41.3742L218.732 41.4399C206.6 45.5696 199.266 52.8065 195.944 62.2419C193.51 69.1569 193.437 76.4949 194.766 83.3418C194.933 84.2025 195.111 84.9851 195.291 85.68L195.37 85.9807L195.424 86.1792C195.459 86.3045 195.49 86.4158 195.519 86.5127L195.57 86.6876C195.607 87.3143 196.231 87.7457 196.837 87.5439L200.137 86.4439L200.182 86.4783C202.931 88.6284 210.319 97.9314 212.699 102.458C212.963 102.96 213.6 103.127 214.076 102.818L214.359 102.64L214.652 102.46C214.755 102.397 214.866 102.331 214.983 102.261L215.225 102.117C216.183 101.55 217.312 100.917 218.601 100.234C222.292 98.2804 226.528 96.3255 231.245 94.5003L231.85 94.268C235.69 92.8046 239.684 91.4932 243.814 90.3697L244.462 90.1958L245.14 90.0464C245.294 90.013 245.456 89.9782 245.626 89.9421L245.975 89.8683C247.172 89.6169 248.441 89.3655 249.726 89.131C250.748 88.9443 251.739 88.7762 252.681 88.6311L253.327 88.5344C255.652 88.1954 257.531 88.0286 258.795 88.0744C259.388 88.0958 259.86 87.5811 259.786 86.9922C258.253 74.7292 255.348 62.1829 251.184 51.631C247.995 43.5403 241.632 39.7292 233.297 39.2708C230.281 39.1048 227.166 39.3927 224.07 40.0136ZM233.192 41.1944C240.829 41.6145 246.505 45.0143 249.392 52.3377L249.58 52.8184C253.391 62.623 256.117 74.1642 257.656 85.5523L257.735 86.1513L257.71 86.1523C256.296 86.2017 254.499 86.4024 252.389 86.727C251.427 86.8749 250.419 87.046 249.38 87.2358C248.24 87.4438 247.113 87.6648 246.037 87.8874L245.225 88.0578C244.995 88.1066 244.779 88.1531 244.578 88.197L244.006 88.3237L243.971 88.3322C239.321 89.5705 234.839 91.044 230.55 92.7036C225.76 94.5571 221.455 96.5435 217.699 98.5313L217.181 98.8075C216.078 99.3999 215.097 99.9539 214.244 100.459L213.904 100.661L213.869 100.6C210.781 95.3104 203.333 86.107 200.791 84.5556L200.734 84.5235C200.504 84.4033 200.233 84.3812 199.985 84.464L197.207 85.3897C197.02 84.6875 196.833 83.8776 196.657 82.9748C195.388 76.4352 195.458 69.4261 197.762 62.8815C200.855 54.0931 207.642 47.3395 219.01 43.3818L219.356 43.2627C220.749 42.7839 222.449 42.3036 224.449 41.9025C227.396 41.3114 230.353 41.0382 233.192 41.1944Z" fill="#333333"/>
<path fill-rule="evenodd" clip-rule="evenodd" d="M199.983 84.4323C200.253 84.342 200.549 84.3754 200.791 84.5235C203.308 86.0594 210.633 95.095 213.775 100.408L213.904 100.629L214.244 100.427L214.646 100.19C215.539 99.6705 216.558 99.1033 217.699 98.4992C221.455 96.5114 225.76 94.525 230.55 92.6715C234.635 91.0909 238.894 89.6792 243.308 88.4786L243.971 88.3001L244.428 88.1973L245.221 88.0254L245.574 87.9505C246.784 87.6954 248.066 87.4403 249.367 87.2021C250.262 87.0381 251.134 86.888 251.973 86.7548L252.39 86.6895C255.167 86.2618 257.402 86.0501 258.936 86.1173C259.379 86.1367 259.752 86.4559 259.839 86.8907L259.884 87.1269L259.973 87.6253C259.994 87.7447 260.015 87.8709 260.038 88.0038L260.111 88.455C260.233 89.2231 260.354 90.0707 260.468 90.9871C261.142 96.4077 261.335 102.032 260.752 107.307C260.731 107.497 260.708 107.686 260.685 107.875C260.621 108.403 260.14 108.779 259.612 108.714C259.084 108.649 258.708 108.169 258.773 107.641C258.795 107.46 258.816 107.278 258.837 107.095C259.401 101.991 259.213 96.5085 258.556 91.2249L258.488 90.6968C258.386 89.9172 258.28 89.1945 258.173 88.5367L258.089 88.0336L257.992 88.0356C256.696 88.0646 254.961 88.2485 252.898 88.5608L252.684 88.5936C251.736 88.7395 250.741 88.9089 249.714 89.0971C248.592 89.3026 247.482 89.5211 246.423 89.7412L245.457 89.9451L244.679 90.1149L244.446 90.1672L243.814 90.3376C239.683 91.4611 235.69 92.7725 231.85 94.2359L231.245 94.4682C226.528 96.2933 222.292 98.2483 218.601 100.202L218.094 100.472C217.097 101.007 216.204 101.51 215.419 101.97L214.983 102.229C214.866 102.298 214.755 102.365 214.652 102.428L214.148 102.74C214.117 102.76 214.093 102.775 214.076 102.786C213.6 103.095 212.963 102.928 212.699 102.426C210.343 97.9445 203.079 88.7818 200.265 86.5129L200.137 86.4121L194.832 88.1887L196.616 91.7972L197.985 94.5509C199.011 96.6095 200.032 98.6461 201.024 100.611L202.398 103.323C205.299 109.024 207.493 113.181 208.694 115.194C212.532 121.601 214.793 123.509 223.469 126.928C226.384 128.056 230.1 128.693 233.911 128.693C234.443 128.693 234.874 129.124 234.874 129.656C234.874 130.188 234.443 130.619 233.911 130.619C229.871 130.619 225.92 129.942 222.768 128.722L221.968 128.404C213.709 125.081 211.084 122.847 207.282 116.583L207.04 116.182C205.826 114.147 203.663 110.054 200.801 104.434L199.962 102.78C198.656 100.202 197.289 97.4769 195.918 94.7226L194.741 92.3529L192.617 88.0497C192.368 87.544 192.606 86.939 193.121 86.732L193.176 86.7121L199.983 84.4323Z" fill="#333333"/>
<path fill-rule="evenodd" clip-rule="evenodd" d="M194.316 90.5474C194.316 90.5474 188.183 83.4192 183.751 74.9103C179.577 66.9152 181.311 56.9935 188.215 51.2139C193.995 46.3654 199.519 47.6498 199.519 47.6498C199.519 47.6498 189.532 37.5033 197.399 24.3387C200.161 19.715 204.753 16.3756 210.051 15.2197C222.961 12.3941 229.64 22.2195 229.64 22.2195C229.64 22.2195 237.058 -6.42178 268.913 1.47704C272.125 2.27977 276.363 5.68332 278.611 8.1236C292.195 22.9259 266.633 50.8607 251.091 56.4477C234.039 62.6126 223.057 62.2915 216.345 59.4017C221.194 60.8787 221.355 88.075 194.316 90.5474Z" fill="#333333"/>
<path fill-rule="evenodd" clip-rule="evenodd" d="M243.092 80.4835C243.735 80.2412 244.45 80.5484 244.722 81.1713L244.747 81.2325L250.784 97.2549C251.094 98.0788 250.503 98.9568 249.635 98.991L249.575 98.9921L243.377 98.96C242.668 98.9563 242.096 98.3783 242.1 97.669C242.103 96.9811 242.647 96.4224 243.327 96.3925L243.391 96.3913L247.721 96.4137L242.343 82.1382C242.1 81.4951 242.407 80.7798 243.03 80.5083L243.092 80.4835Z" fill="#333333"/>
<path fill-rule="evenodd" clip-rule="evenodd" d="M240.237 111.579C241.922 111.579 243.288 110.213 243.288 108.529C243.288 106.844 241.922 105.478 240.237 105.478C238.552 105.478 237.186 106.844 237.186 108.529C237.186 110.213 238.552 111.579 240.237 111.579Z" fill="#333333"/>
<path fill-rule="evenodd" clip-rule="evenodd" d="M250.675 82.9796C251.604 82.7472 252.065 81.3873 251.703 79.9422C251.341 78.4972 250.295 77.5141 249.366 77.7465C248.437 77.979 247.977 79.3388 248.339 80.7839C248.7 82.2289 249.746 83.212 250.675 82.9796Z" fill="#333333"/>
<path fill-rule="evenodd" clip-rule="evenodd" d="M234.333 86.7719C235.262 86.5395 235.722 85.1796 235.36 83.7345C234.999 82.2895 233.953 81.3064 233.024 81.5388C232.094 81.7713 231.634 83.1311 231.996 84.5762C232.358 86.0212 233.404 87.0043 234.333 86.7719Z" fill="#333333"/>
<path fill-rule="evenodd" clip-rule="evenodd" d="M229.517 67.9807C230.223 67.9128 230.851 68.4302 230.919 69.1363C230.987 69.8423 230.469 70.4698 229.763 70.5376C228.001 70.707 226.627 71.414 225.563 72.4971C225.13 72.937 224.78 73.4095 224.508 73.8792L224.435 74.0084C224.333 74.1924 224.267 74.3317 224.235 74.4103L224.226 74.4342C223.975 75.0975 223.233 75.4316 222.57 75.1803C221.906 74.929 221.572 74.1876 221.824 73.5243C221.904 73.3129 222.054 72.9894 222.286 72.5904C222.661 71.9434 223.138 71.2992 223.73 70.6969C225.2 69.2006 227.124 68.2108 229.517 67.9807Z" fill="#333333"/>
<path fill-rule="evenodd" clip-rule="evenodd" d="M245.587 63.5128C246.756 63.1071 247.964 62.9313 249.146 63.1325C250.604 63.3809 251.841 64.1922 252.702 65.6049C253.071 66.2107 252.879 67.001 252.273 67.37C251.667 67.739 250.877 67.547 250.508 66.9412C250.042 66.1763 249.454 65.7907 248.715 65.6648C248.024 65.5472 247.225 65.6635 246.43 65.9395C246.223 66.0111 246.035 66.0875 245.87 66.1629L245.726 66.2316L245.7 66.2453C245.077 66.5843 244.297 66.3541 243.958 65.731C243.619 65.1079 243.849 64.328 244.472 63.989L244.583 63.9309C244.821 63.8098 245.163 63.66 245.587 63.5128Z" fill="#333333"/>
<path fill-rule="evenodd" clip-rule="evenodd" d="M435.095 180.902H310.242C308.604 180.902 307.191 182.026 306.806 183.631L289.433 257.097H244.187C244.187 257.097 241.682 270.037 256.293 270.037C263.711 270.037 415.699 270.037 415.699 270.037C417.337 270.037 418.749 268.913 419.135 267.307L438.531 185.237C439.044 183.021 437.375 180.902 435.095 180.902Z" fill="#333333"/>
<path fill-rule="evenodd" clip-rule="evenodd" d="M385.545 72.1168H384.55C383.651 72.1168 382.944 71.4104 382.944 70.5114V67.9748C382.944 67.0757 383.651 66.3693 384.55 66.3693H385.545C386.445 66.3693 387.151 67.0757 387.151 67.9748V70.5114C387.151 71.4104 386.445 72.1168 385.545 72.1168Z" fill="#FE7624"/>
<path fill-rule="evenodd" clip-rule="evenodd" d="M379.733 72.1168H354.107C353.208 72.1168 352.502 71.4104 352.502 70.5114V67.9748C352.502 67.0757 353.208 66.3693 354.107 66.3693H379.733C380.632 66.3693 381.339 67.0757 381.339 67.9748V70.5114C381.339 71.4104 380.632 72.1168 379.733 72.1168Z" fill="#333333"/>
<path fill-rule="evenodd" clip-rule="evenodd" d="M382.366 98.7994H354.14C353.24 98.7994 352.534 98.093 352.534 97.1939V94.6573C352.534 93.7583 353.24 93.0519 354.14 93.0519H382.366C383.265 93.0519 383.972 93.7583 383.972 94.6573V97.1939C383.972 98.093 383.233 98.7994 382.366 98.7994Z" fill="#333333"/>
<path fill-rule="evenodd" clip-rule="evenodd" d="M407.639 89.9052H362.071C361.172 89.9052 360.466 89.1988 360.466 88.2998V85.7632C360.466 84.8641 361.172 84.1577 362.071 84.1577H407.639C408.538 84.1577 409.244 84.8641 409.244 85.7632V88.2998C409.244 89.1988 408.538 89.9052 407.639 89.9052Z" fill="#FE7624"/>
<path fill-rule="evenodd" clip-rule="evenodd" d="M436.7 89.9052H413.579C412.68 89.9052 411.974 89.1988 411.974 88.2998V85.7632C411.974 84.8641 412.68 84.1577 413.579 84.1577H436.7C437.599 84.1577 438.306 84.8641 438.306 85.7632V88.2998C438.306 89.1988 437.599 89.9052 436.7 89.9052Z" fill="#FE7624"/>
<path fill-rule="evenodd" clip-rule="evenodd" d="M445.627 81.0432H444.632C443.733 81.0432 443.026 80.3368 443.026 79.4377V76.9011C443.026 76.0021 443.733 75.2957 444.632 75.2957H445.627C446.527 75.2957 447.233 76.0021 447.233 76.9011V79.4377C447.233 80.3047 446.527 81.0432 445.627 81.0432Z" fill="#333333"/>
<path fill-rule="evenodd" clip-rule="evenodd" d="M401.345 81.011H354.107C353.208 81.011 352.502 80.3046 352.502 79.4055V76.8689C352.502 75.9699 353.208 75.2635 354.107 75.2635H401.345C402.244 75.2635 402.95 75.9699 402.95 76.8689V79.4055C402.95 80.3046 402.244 81.011 401.345 81.011Z" fill="#333333"/>
<path fill-rule="evenodd" clip-rule="evenodd" d="M416.245 72.1168H390.619C389.72 72.1168 389.013 71.4104 389.013 70.5114V67.9748C389.013 67.0757 389.72 66.3693 390.619 66.3693H416.245C417.144 66.3693 417.85 67.0757 417.85 67.9748V70.5114C417.85 71.4104 417.112 72.1168 416.245 72.1168Z" fill="#333333"/>
<path fill-rule="evenodd" clip-rule="evenodd" d="M439.173 81.0431H406.804C405.904 81.0431 405.198 80.3367 405.198 79.4377V76.8689C405.198 75.9699 405.904 75.2635 406.804 75.2635H439.173C440.072 75.2635 440.779 75.9699 440.779 76.8689V79.4377C440.779 80.3046 440.072 81.0431 439.173 81.0431Z" fill="#FE7624"/>
<path fill-rule="evenodd" clip-rule="evenodd" d="M379.733 129.72H354.107C353.208 129.72 352.502 129.014 352.502 128.115V125.578C352.502 124.679 353.208 123.973 354.107 123.973H379.733C380.632 123.973 381.339 124.679 381.339 125.578V128.115C381.339 129.014 380.632 129.72 379.733 129.72Z" fill="#333333"/>
<path fill-rule="evenodd" clip-rule="evenodd" d="M382.366 156.403H354.14C353.24 156.403 352.534 155.697 352.534 154.798V152.261C352.534 151.362 353.24 150.655 354.14 150.655H382.366C383.265 150.655 383.972 151.362 383.972 152.261V154.798C383.972 155.664 383.233 156.403 382.366 156.403Z" fill="#333333"/>
<path fill-rule="evenodd" clip-rule="evenodd" d="M407.639 147.509H362.071C361.172 147.509 360.466 146.802 360.466 145.903V143.367C360.466 142.468 361.172 141.761 362.071 141.761H407.639C408.538 141.761 409.244 142.468 409.244 143.367V145.903C409.244 146.802 408.538 147.509 407.639 147.509Z" fill="#FE7624"/>
<path fill-rule="evenodd" clip-rule="evenodd" d="M436.7 147.509H413.579C412.68 147.509 411.974 146.802 411.974 145.903V143.367C411.974 142.468 412.68 141.761 413.579 141.761H436.7C437.599 141.761 438.306 142.468 438.306 143.367V145.903C438.306 146.802 437.599 147.509 436.7 147.509Z" fill="#FE7624"/>
<path fill-rule="evenodd" clip-rule="evenodd" d="M445.627 138.647H444.632C443.733 138.647 443.026 137.94 443.026 137.041V134.505C443.026 133.606 443.733 132.899 444.632 132.899H445.627C446.527 132.899 447.233 133.606 447.233 134.505V137.041C447.233 137.908 446.527 138.647 445.627 138.647Z" fill="#333333"/>
<path fill-rule="evenodd" clip-rule="evenodd" d="M452.949 129.72H451.954C451.055 129.72 450.348 129.014 450.348 128.115V125.578C450.348 124.679 451.055 123.973 451.954 123.973H452.949C453.848 123.973 454.555 124.679 454.555 125.578V128.115C454.555 129.014 453.848 129.72 452.949 129.72Z" fill="#333333"/>
<path fill-rule="evenodd" clip-rule="evenodd" d="M401.345 138.615H354.107C353.208 138.615 352.502 137.908 352.502 137.009V134.473C352.502 133.573 353.208 132.867 354.107 132.867H401.345C402.244 132.867 402.95 133.573 402.95 134.473V137.009C402.95 137.908 402.244 138.615 401.345 138.615Z" fill="#333333"/>
<path fill-rule="evenodd" clip-rule="evenodd" d="M416.245 129.72H384.582C383.683 129.72 382.976 129.014 382.976 128.115V125.578C382.976 124.679 383.683 123.973 384.582 123.973H416.245C417.144 123.973 417.85 124.679 417.85 125.578V128.115C417.85 129.014 417.112 129.72 416.245 129.72Z" fill="#FE7624"/>
<path fill-rule="evenodd" clip-rule="evenodd" d="M447.297 129.72H421.672C420.773 129.72 420.066 129.014 420.066 128.115V125.578C420.066 124.679 420.773 123.973 421.672 123.973H447.297C448.196 123.973 448.903 124.679 448.903 125.578V128.115C448.903 129.014 448.196 129.72 447.297 129.72Z" fill="#FE7624"/>
<path fill-rule="evenodd" clip-rule="evenodd" d="M385.545 121.115H384.55C383.651 121.115 382.944 120.409 382.944 119.51V116.973C382.944 116.074 383.651 115.368 384.55 115.368H385.545C386.445 115.368 387.151 116.074 387.151 116.973V119.51C387.151 120.377 386.445 121.115 385.545 121.115Z" fill="#FE7624"/>
<path fill-rule="evenodd" clip-rule="evenodd" d="M379.733 121.115H354.107C353.208 121.115 352.502 120.409 352.502 119.51V116.973C352.502 116.074 353.208 115.368 354.107 115.368H379.733C380.632 115.368 381.339 116.074 381.339 116.973V119.51C381.339 120.377 380.632 121.115 379.733 121.115Z" fill="#333333"/>
<path fill-rule="evenodd" clip-rule="evenodd" d="M416.245 121.115H390.619C389.72 121.115 389.013 120.409 389.013 119.51V116.973C389.013 116.074 389.72 115.368 390.619 115.368H416.245C417.144 115.368 417.85 116.074 417.85 116.973V119.51C417.85 120.377 417.112 121.115 416.245 121.115Z" fill="#333333"/>
<path fill-rule="evenodd" clip-rule="evenodd" d="M439.173 138.647H406.804C405.904 138.647 405.198 137.94 405.198 137.041V134.473C405.198 133.573 405.904 132.867 406.804 132.867H439.173C440.072 132.867 440.779 133.573 440.779 134.473V137.041C440.779 137.908 440.072 138.647 439.173 138.647Z" fill="#FE7624"/>
<path fill-rule="evenodd" clip-rule="evenodd" d="M479.047 234.88C484.204 234.486 488.683 238.355 489.04 243.506C489.434 248.662 485.565 253.14 480.389 253.499C479.581 253.54 478.922 253.523 478.271 253.426C477.745 253.347 477.382 252.856 477.461 252.33C477.54 251.804 478.031 251.442 478.557 251.521C479.062 251.596 479.602 251.61 480.274 251.576C484.365 251.292 487.432 247.743 487.119 243.646C486.835 239.555 483.285 236.489 479.201 236.801C478.533 236.856 477.87 236.995 477.242 237.204C476.737 237.372 476.191 237.1 476.023 236.595C475.855 236.09 476.128 235.545 476.632 235.376C477.404 235.119 478.218 234.949 479.047 234.88Z" fill="#333333"/>
<path fill-rule="evenodd" clip-rule="evenodd" d="M444.182 222.027C444.577 221.703 445.154 221.746 445.497 222.116L445.538 222.162L457.515 236.771C457.853 237.183 457.793 237.79 457.381 238.127C456.986 238.451 456.409 238.408 456.065 238.039L456.025 237.993L444.047 223.383C443.71 222.972 443.77 222.365 444.182 222.027Z" fill="#333333"/>
<path fill-rule="evenodd" clip-rule="evenodd" d="M443.026 232.854V260.404C443.026 265.734 447.329 270.037 452.66 270.037H468.909C474.239 270.037 478.543 265.734 478.543 260.404V232.854H443.026ZM457.413 253.019C457.637 253.179 457.734 253.34 457.734 253.597C457.734 253.79 457.669 253.918 457.541 254.046C457.413 254.175 457.252 254.239 457.091 254.239C456.963 254.239 456.867 254.207 456.77 254.143L450.348 250.29C450.123 250.129 449.995 249.936 449.995 249.712C449.995 249.487 450.123 249.294 450.348 249.134L456.77 245.281C456.867 245.216 456.963 245.184 457.091 245.184C457.284 245.184 457.413 245.249 457.541 245.377C457.669 245.505 457.734 245.666 457.734 245.827C457.734 246.051 457.637 246.244 457.413 246.404L451.889 249.712L457.413 253.019ZM465.441 243.515L460.271 256.422C460.238 256.487 460.206 256.551 460.142 256.615C460.014 256.744 459.853 256.808 459.693 256.808C459.5 256.808 459.371 256.744 459.243 256.615C459.115 256.487 459.05 256.326 459.05 256.166C459.05 256.069 459.082 255.973 459.115 255.877L464.285 242.969C464.317 242.905 464.349 242.84 464.413 242.776C464.542 242.648 464.702 242.583 464.863 242.583C465.055 242.583 465.184 242.648 465.312 242.776C465.441 242.905 465.505 243.065 465.505 243.226C465.505 243.354 465.473 243.45 465.441 243.515ZM474.175 250.29L467.753 254.143C467.656 254.207 467.56 254.239 467.432 254.239C467.239 254.239 467.11 254.175 466.982 254.046C466.854 253.918 466.789 253.757 466.789 253.597C466.789 253.372 466.886 253.179 467.11 253.019L472.634 249.712L467.11 246.404C466.886 246.244 466.789 246.083 466.789 245.827C466.789 245.634 466.854 245.505 466.982 245.377C467.11 245.249 467.271 245.184 467.432 245.184C467.56 245.184 467.656 245.216 467.753 245.281L474.175 249.134C474.4 249.294 474.528 249.487 474.528 249.712C474.528 249.936 474.432 250.161 474.175 250.29Z" fill="#333333"/>
<path fill-rule="evenodd" clip-rule="evenodd" d="M77.7527 234.879C78.3764 234.84 78.9331 234.849 79.4494 234.918C79.9768 234.988 80.3473 235.473 80.277 236C80.2066 236.527 79.7221 236.898 79.1947 236.828C78.817 236.777 78.3808 236.77 77.8795 236.802C73.7998 237.085 70.7495 240.626 71.0348 244.732C71.3189 248.823 74.8688 251.889 78.9597 251.577C79.4902 251.536 79.9531 251.934 79.9936 252.464C80.0341 252.994 79.6369 253.457 79.1064 253.498C73.9495 253.892 69.4708 250.023 69.1126 244.866C68.754 239.702 72.6004 235.237 77.7527 234.879Z" fill="#333333"/>
<path fill-rule="evenodd" clip-rule="evenodd" d="M77.9412 232.855V260.404C77.9412 265.734 82.2442 270.037 87.5749 270.037H103.824C109.154 270.037 113.457 265.734 113.457 260.404V232.855H77.9412ZM92.2954 253.019C92.5202 253.18 92.6165 253.34 92.6165 253.597C92.6165 253.79 92.5523 253.918 92.4238 254.046C92.2954 254.175 92.1348 254.239 91.9743 254.239C91.8458 254.239 91.7495 254.207 91.6531 254.143L85.2307 250.29C85.0059 250.129 84.8774 249.937 84.8774 249.712C84.8774 249.487 85.0059 249.294 85.2307 249.134L91.6531 245.281C91.7495 245.217 91.8458 245.184 91.9743 245.184C92.1669 245.184 92.2954 245.249 92.4238 245.377C92.5523 245.506 92.6165 245.666 92.6165 245.827C92.6165 246.051 92.5202 246.244 92.2954 246.405L86.7721 249.712L92.2954 253.019ZM105.847 250.29L99.4243 254.143C99.328 254.207 99.2316 254.239 99.1032 254.239C98.9105 254.239 98.7821 254.175 98.6536 254.046C98.5252 253.918 98.4609 253.758 98.4609 253.597C98.4609 253.372 98.5573 253.18 98.7821 253.019L104.305 249.712L98.7821 246.405C98.5573 246.244 98.4609 246.083 98.4609 245.827C98.4609 245.634 98.5252 245.506 98.6536 245.377C98.7821 245.249 98.9426 245.184 99.1032 245.184C99.2316 245.184 99.328 245.217 99.4243 245.281L105.847 249.134C106.072 249.294 106.2 249.487 106.2 249.712C106.2 249.937 106.072 250.161 105.847 250.29Z" fill="#333333"/>
<path fill-rule="evenodd" clip-rule="evenodd" d="M132.644 212.939C133.093 212.691 133.653 212.838 133.923 213.266L133.953 213.316L138.353 221.279C138.61 221.745 138.441 222.331 137.975 222.588C137.527 222.836 136.967 222.688 136.696 222.261L136.666 222.211L132.267 214.248C132.01 213.782 132.179 213.196 132.644 212.939Z" fill="#333333"/>
<path fill-rule="evenodd" clip-rule="evenodd" d="M152.089 221.648C152.621 221.648 153.052 222.08 153.052 222.612C153.052 223.125 152.651 223.544 152.145 223.573L152.089 223.575H127.747C127.215 223.575 126.784 223.144 126.784 222.612C126.784 222.099 127.185 221.679 127.691 221.65L127.747 221.648H152.089Z" fill="#333333"/>
<path fill-rule="evenodd" clip-rule="evenodd" d="M148.717 248.556C148.364 248.203 147.914 248.01 147.368 248.01C146.854 248.01 146.405 248.203 146.019 248.556C145.666 248.909 145.473 249.359 145.473 249.904C145.473 250.418 145.666 250.868 146.019 251.253C146.373 251.606 146.822 251.799 147.368 251.799C147.882 251.799 148.331 251.606 148.717 251.253C149.07 250.9 149.263 250.45 149.263 249.904C149.263 249.359 149.102 248.909 148.717 248.556Z" fill="#333333"/>
<path fill-rule="evenodd" clip-rule="evenodd" d="M147.4 245.73C147.914 245.73 148.364 245.538 148.749 245.184C149.102 244.831 149.295 244.382 149.295 243.836C149.295 243.322 149.102 242.873 148.749 242.487C148.396 242.134 147.946 241.941 147.4 241.941C146.886 241.941 146.437 242.134 146.052 242.487C145.698 242.84 145.506 243.29 145.506 243.836C145.506 244.35 145.698 244.799 146.052 245.184C146.437 245.538 146.854 245.73 147.4 245.73Z" fill="#333333"/>
<path fill-rule="evenodd" clip-rule="evenodd" d="M148.717 257.257C149.07 256.904 149.263 256.455 149.263 255.909C149.263 255.395 149.07 254.946 148.717 254.56C148.364 254.207 147.914 254.014 147.368 254.014C146.854 254.014 146.405 254.207 146.019 254.56C145.666 254.913 145.473 255.363 145.473 255.909C145.473 256.423 145.666 256.872 146.019 257.257C146.373 257.611 146.822 257.803 147.368 257.803C147.914 257.803 148.364 257.611 148.717 257.257Z" fill="#333333"/>
<path fill-rule="evenodd" clip-rule="evenodd" d="M154.497 228.424L150.226 222.869H129.642L125.371 228.424C124.954 228.969 124.729 229.579 124.729 230.222V264.032C124.729 265.092 125.307 266.055 126.302 266.698C127.619 267.532 129.321 268.785 129.417 270.005H150.387C150.515 268.785 152.185 267.5 153.502 266.698C154.497 266.087 155.075 265.092 155.075 264.032V230.222C155.107 229.579 154.914 228.937 154.497 228.424ZM145.57 234.91L147.818 231.153C147.914 231.024 148.01 230.96 148.171 230.96C148.299 230.96 148.428 231.024 148.524 231.153L150.772 234.91C150.804 234.974 150.804 235.038 150.804 235.102C150.804 235.199 150.772 235.295 150.708 235.359C150.644 235.423 150.547 235.455 150.451 235.455C150.322 235.455 150.194 235.391 150.13 235.263L148.203 232.052L146.276 235.263C146.18 235.391 146.084 235.455 145.955 235.455C145.859 235.455 145.762 235.423 145.698 235.359C145.634 235.295 145.602 235.199 145.602 235.102C145.506 235.006 145.538 234.942 145.57 234.91ZM145.698 236.322C145.762 236.29 145.827 236.258 145.923 236.258C146.019 236.258 146.116 236.29 146.18 236.354C146.244 236.419 146.276 236.515 146.276 236.611C146.276 236.708 146.244 236.804 146.18 236.868C146.116 236.932 146.051 236.965 146.051 236.997C145.698 237.35 145.506 237.799 145.506 238.345C145.506 238.859 145.666 239.276 145.987 239.598C146.084 239.662 146.18 239.726 146.308 239.726C146.469 239.726 146.565 239.63 146.597 239.501L147.368 237.189C147.464 236.9 147.593 236.708 147.689 236.579C147.914 236.354 148.171 236.258 148.492 236.258C148.813 236.258 149.07 236.387 149.295 236.611C149.744 237.061 150.001 237.639 150.001 238.377C150.001 239.18 149.68 239.854 149.07 240.4C149.006 240.464 148.942 240.464 148.845 240.464C148.749 240.464 148.653 240.432 148.588 240.368C148.524 240.304 148.492 240.208 148.492 240.111C148.492 240.015 148.524 239.919 148.588 239.854C148.653 239.79 148.717 239.758 148.717 239.726C149.07 239.373 149.263 238.923 149.263 238.377C149.263 237.864 149.102 237.446 148.781 237.125C148.685 237.061 148.588 236.997 148.46 236.997C148.299 236.997 148.203 237.093 148.171 237.221L147.4 239.533C147.304 239.822 147.175 240.015 147.079 240.143C146.854 240.368 146.597 240.464 146.276 240.464C145.955 240.464 145.698 240.336 145.473 240.111C145.024 239.662 144.767 239.084 144.767 238.345C144.767 237.543 145.056 236.868 145.698 236.322ZM145.538 241.974C146.051 241.46 146.662 241.203 147.4 241.203C148.139 241.203 148.749 241.46 149.263 241.974C149.776 242.487 150.033 243.097 150.033 243.836C150.033 244.574 149.776 245.184 149.263 245.698C148.749 246.212 148.139 246.469 147.4 246.469C146.662 246.469 146.051 246.212 145.538 245.698C145.024 245.184 144.767 244.574 144.767 243.836C144.767 243.097 145.024 242.487 145.538 241.974ZM144.863 258.445C144.799 258.381 144.767 258.285 144.767 258.189C144.767 258.092 144.799 257.996 144.863 257.932C144.928 257.868 145.024 257.835 145.12 257.835H145.538C145.024 257.322 144.735 256.679 144.735 255.941C144.735 255.202 144.992 254.592 145.506 254.079C146.019 253.565 146.629 253.308 147.368 253.308C148.107 253.308 148.717 253.565 149.231 254.079C149.744 254.592 150.001 255.202 150.001 255.941C150.001 256.679 149.744 257.29 149.231 257.803C148.717 258.317 148.107 258.574 147.368 258.574H145.12C145.024 258.542 144.928 258.51 144.863 258.445ZM150.74 259.858L148.492 263.615C148.396 263.743 148.299 263.808 148.139 263.808C148.01 263.808 147.882 263.743 147.786 263.615L145.538 259.858C145.506 259.794 145.506 259.73 145.506 259.666C145.506 259.569 145.538 259.473 145.602 259.409C145.666 259.345 145.762 259.312 145.859 259.312C145.987 259.312 146.116 259.377 146.18 259.505L148.107 262.716L150.033 259.505C150.13 259.377 150.226 259.312 150.355 259.312C150.451 259.312 150.547 259.345 150.611 259.409C150.676 259.473 150.708 259.569 150.708 259.666C150.772 259.762 150.772 259.794 150.74 259.858ZM152.185 252.409C152.121 252.473 152.024 252.505 151.928 252.505H147.4C146.662 252.505 146.051 252.248 145.538 251.735C145.024 251.221 144.767 250.611 144.767 249.872C144.767 249.134 145.024 248.524 145.538 248.01C146.051 247.496 146.662 247.239 147.4 247.239C148.139 247.239 148.749 247.496 149.263 248.01C149.776 248.524 150.033 249.134 150.033 249.872C150.033 250.611 149.776 251.221 149.263 251.735C149.263 251.735 149.263 251.735 149.231 251.767H151.928C152.024 251.767 152.121 251.799 152.185 251.863C152.249 251.927 152.281 252.024 152.281 252.12C152.281 252.216 152.249 252.345 152.185 252.409Z" fill="#333333"/>
<path fill-rule="evenodd" clip-rule="evenodd" d="M231.585 112.948C232.984 111.04 235.487 111.547 238.04 114.185C240.525 116.757 242.122 120.17 243.004 123.878C243.128 124.396 242.808 124.915 242.29 125.038C241.773 125.162 241.253 124.842 241.13 124.324C240.32 120.924 238.864 117.811 236.654 115.524C234.817 113.624 233.651 113.389 233.138 114.087C232.514 114.938 232.596 116.874 233.521 118.729L233.578 118.843C234.919 121.436 235.294 126.544 235.098 132.865C235.082 133.397 234.638 133.814 234.106 133.798C233.574 133.781 233.156 133.337 233.173 132.805L233.191 132.131C233.327 126.553 232.961 121.948 231.91 119.812L231.867 119.728C230.585 117.251 230.448 114.496 231.585 112.948Z" fill="#333333"/>
<path fill-rule="evenodd" clip-rule="evenodd" d="M274.565 108.464C269.404 108.464 265.22 112.648 265.22 117.808C265.22 122.968 269.404 127.152 274.565 127.152C279.726 127.152 283.91 122.968 283.91 117.808C283.91 112.648 279.726 108.464 274.565 108.464ZM274.565 110.391C278.662 110.391 281.983 113.712 281.983 117.808C281.983 121.904 278.662 125.225 274.565 125.225C270.468 125.225 267.147 121.904 267.147 117.808C267.147 113.712 270.468 110.391 274.565 110.391Z" fill="#333333"/>
<path fill-rule="evenodd" clip-rule="evenodd" d="M224.548 148.462C224.954 148.169 225.512 148.236 225.837 148.608L226.012 148.828C226.129 148.975 226.267 149.146 226.426 149.339C226.883 149.894 227.414 150.513 228.011 151.18C229.718 153.087 231.615 154.994 233.647 156.772C238.529 161.042 243.39 163.872 247.905 164.603C248.278 164.663 248.581 164.936 248.68 165.299L248.701 165.382C248.734 165.52 248.771 165.722 248.807 165.99C248.995 167.413 248.965 169.373 248.577 171.903L248.542 172.127C248.342 173.384 248.647 174.266 249.66 175.819L250.167 176.584C250.903 177.708 251.266 178.396 251.537 179.31C251.928 180.625 251.914 182.017 251.438 183.58L251.431 183.609C251.316 184.253 250.359 193.554 249.902 197.552L249.86 197.915C248.647 208.353 247.19 218.097 245.31 227.325C242.833 239.491 239.827 249.625 236.192 257.191C231.811 266.311 226.602 271.497 220.399 271.961C219.869 272 219.406 271.602 219.367 271.072C219.327 270.541 219.725 270.079 220.255 270.039C225.547 269.644 230.246 265.014 234.332 256.612L234.456 256.356C238.01 248.959 240.974 238.964 243.422 226.941C245.239 218.021 246.66 208.605 247.848 198.533L248.026 196.998C248.47 193.047 249.435 183.696 249.587 183.048L249.591 183.03C250.242 180.895 249.913 179.705 248.472 177.514L248.134 177.005C246.813 175.008 246.339 173.708 246.639 171.824C247.009 169.506 247.061 167.732 246.924 166.468L246.913 166.38L246.735 166.344C242.129 165.367 237.359 162.537 232.602 158.416L232.379 158.222C230.283 156.388 228.332 154.427 226.575 152.464C226.072 151.902 225.614 151.373 225.205 150.884L224.953 150.581L224.517 150.93C223.676 151.608 222.603 152.5 221.274 153.635C220.427 154.359 219.502 154.743 218.457 154.862L218.298 154.878C217.648 154.939 217.093 154.904 215.981 154.776L215.845 154.76C213.219 154.452 212.137 154.66 210.721 156.248L210.647 156.331C209.737 157.37 205.088 164.818 197.99 176.512L195.743 180.222L194.824 181.742C192.668 185.312 190.429 189.033 188.172 192.794L182.653 202.015L181.239 204.385C180.967 204.842 180.376 204.992 179.919 204.72C179.478 204.458 179.323 203.9 179.555 203.451L181.176 200.73L184.098 195.845C187.005 190.989 189.923 186.132 192.711 181.514L196.146 175.838C203.517 163.687 208.165 156.24 209.197 155.063C210.285 153.817 211.461 153.111 212.783 152.838C213.659 152.657 214.354 152.66 215.624 152.796L216.334 152.877C218.306 153.092 219.08 152.976 220.023 152.171L220.829 151.485C221.808 150.656 222.631 149.976 223.309 149.429L223.813 149.027C223.936 148.93 224.048 148.842 224.15 148.764L224.482 148.51C224.51 148.49 224.532 148.474 224.548 148.462Z" fill="#333333"/>
<path fill-rule="evenodd" clip-rule="evenodd" d="M248.586 171.847C249.389 167.063 249.71 165.008 249.71 165.008C237.443 163.114 224.823 147.701 224.823 147.701C224.823 147.701 223.571 148.633 220.038 151.683C218.625 152.903 217.148 152.903 215.607 152.743C214.515 166.132 238.567 178.044 249.935 178.622C249.228 175.412 247.976 175.476 248.586 171.847Z" fill="#333333"/>
<path fill-rule="evenodd" clip-rule="evenodd" d="M178.779 188.246C182.376 187.79 185.544 188.625 188.07 190.987C188.459 191.351 188.479 191.96 188.116 192.349C187.752 192.737 187.143 192.758 186.754 192.394C184.678 190.453 182.083 189.769 179.021 190.157C176.242 190.509 173.221 191.723 170.158 193.532C168.852 194.303 167.628 195.13 166.522 195.957L166.241 196.17C166.059 196.309 165.887 196.442 165.728 196.568L165.497 196.753C165.415 196.819 165.341 196.88 165.277 196.933L165.145 197.044C164.742 197.391 164.134 197.346 163.786 196.944C163.439 196.541 163.484 195.933 163.887 195.585L164.02 195.473C164.076 195.426 164.144 195.37 164.223 195.305L164.53 195.059C164.783 194.858 165.064 194.642 165.368 194.414C166.527 193.548 167.808 192.682 169.178 191.873C172.447 189.942 175.698 188.636 178.779 188.246Z" fill="#333333"/>
<path fill-rule="evenodd" clip-rule="evenodd" d="M259.197 113.284L259.113 113.294C257.821 113.48 254.265 115.502 249.255 118.732L248.23 119.396C243.675 122.365 239.196 125.516 237.71 126.811L237.628 126.884C236.296 128.137 233.292 133.076 228.892 140.963L228.616 141.46C228.358 141.923 228.097 142.394 227.832 142.873L227.053 144.286C225.617 146.899 224.139 149.629 222.667 152.376L221.39 154.769C220.923 155.647 220.483 156.476 220.076 157.247L219.217 158.878C218.978 159.335 219.141 159.899 219.587 160.158L243.863 174.254L243.916 174.282C244.409 174.53 245.016 174.312 245.235 173.796L257.126 145.674L257.29 145.671C262.314 145.556 265.674 144.225 267.191 142.081C268.65 140.017 267.949 137.376 265.778 137.205L265.72 137.201C265.437 137.182 265.062 137.182 264.599 137.199L264.303 137.211L264.339 137.2C267.256 136.231 269.012 134.756 269.569 132.959C270.197 130.931 269.005 128.807 267.207 128.695L267.165 128.692C266.736 128.668 265.956 128.756 264.845 128.945L264.67 128.975L264.735 128.941C266.336 128.063 267.389 126.743 267.729 125.255C268.16 123.365 267.305 121.573 265.562 121.115L265.509 121.102C264.505 120.884 261.869 121.401 258.241 122.417L257.853 122.526L258.03 122.424C259.162 121.766 260.128 121.176 260.901 120.668C263.014 119.277 263.739 117.389 263 115.652C262.368 114.169 260.748 113.151 259.197 113.284ZM261.227 116.407C261.576 117.227 261.222 118.15 259.842 119.058L259.587 119.224C258.671 119.815 257.49 120.52 256.094 121.315L255.395 121.71C255.227 121.804 255.056 121.9 254.883 121.996C253.531 122.75 252.091 123.529 250.641 124.296L249.676 124.805L248.156 125.596L247.922 125.716C246.856 126.262 247.544 127.876 248.676 127.484L249.39 127.238C257.065 124.612 263.988 122.696 265.074 122.979C265.719 123.148 266.067 123.877 265.851 124.826C265.578 126.019 264.517 127.114 262.775 127.702L262.617 127.753L249.547 132.409C248.413 132.813 248.901 134.494 250.048 134.264L250.152 134.239L251.968 133.79L252.42 133.68C254.177 133.251 255.973 132.822 257.705 132.423L258.464 132.248L259.543 132.004C263.592 131.095 266.417 130.565 267.072 130.617C267.544 130.646 268.011 131.477 267.728 132.39C267.272 133.863 265.253 135.217 261.431 135.964L260.148 136.209C253.383 137.519 250.969 138.379 250.596 139.219C250.296 139.893 250.834 140.632 251.556 140.57L253.295 140.337C254.587 140.166 255.928 139.995 257.25 139.836L257.929 139.755L259.447 139.581C262.573 139.233 264.802 139.06 265.626 139.125C266.089 139.162 266.309 139.991 265.618 140.968C264.443 142.63 261.394 143.766 256.488 143.752L256.424 143.754C256.062 143.777 255.741 144.003 255.598 144.34L243.885 172.038L221.353 158.955L222.936 155.964C223.141 155.58 223.351 155.186 223.566 154.783L224.366 153.286C226.101 150.046 227.845 146.831 229.518 143.805L230.299 142.397L231.083 140.993C235.105 133.821 237.987 129.124 238.975 128.263C242.483 125.208 257.666 115.349 259.362 115.204C260.067 115.143 260.915 115.676 261.227 116.407Z" fill="#333333"/>
<path fill-rule="evenodd" clip-rule="evenodd" d="M205.546 234.88C210.703 234.486 215.182 238.355 215.54 243.506C215.934 248.662 212.065 253.14 206.898 253.499C205.667 253.574 204.499 253.447 203.453 253.098C202.948 252.93 202.675 252.384 202.843 251.88C203.012 251.375 203.557 251.102 204.062 251.27C204.859 251.536 205.783 251.636 206.773 251.576C210.864 251.292 213.931 247.743 213.618 243.646C213.334 239.555 209.784 236.489 205.688 236.802C205.284 236.83 204.879 236.888 204.473 236.975C203.953 237.087 203.441 236.755 203.329 236.235C203.218 235.715 203.549 235.203 204.069 235.092C204.563 234.986 205.057 234.915 205.546 234.88Z" fill="#333333"/>
<path fill-rule="evenodd" clip-rule="evenodd" d="M169.558 232.855V260.404C169.558 265.734 173.861 270.037 179.191 270.037H195.44C200.771 270.037 205.074 265.734 205.074 260.404V232.855H169.558ZM183.912 253.019C184.137 253.18 184.233 253.34 184.233 253.597C184.233 253.79 184.169 253.918 184.04 254.046C183.912 254.175 183.751 254.239 183.591 254.239C183.462 254.239 183.366 254.207 183.27 254.143L176.847 250.29C176.622 250.129 176.494 249.937 176.494 249.712C176.494 249.487 176.622 249.294 176.847 249.134L183.27 245.281C183.366 245.217 183.462 245.184 183.591 245.184C183.783 245.184 183.912 245.249 184.04 245.377C184.169 245.506 184.233 245.666 184.233 245.827C184.233 246.051 184.137 246.244 183.912 246.405L178.389 249.712L183.912 253.019ZM191.94 243.515L186.77 256.423C186.738 256.487 186.706 256.551 186.641 256.615C186.513 256.744 186.352 256.808 186.192 256.808C185.999 256.808 185.871 256.744 185.742 256.615C185.614 256.487 185.55 256.326 185.55 256.166C185.55 256.069 185.582 255.973 185.614 255.877L190.784 242.969C190.816 242.905 190.848 242.84 190.912 242.776C191.041 242.648 191.201 242.584 191.362 242.584C191.555 242.584 191.683 242.648 191.812 242.776C191.94 242.905 192.004 243.065 192.004 243.226C192.004 243.354 191.972 243.451 191.94 243.515ZM200.675 250.29L194.252 254.143C194.156 254.207 194.059 254.239 193.931 254.239C193.738 254.239 193.61 254.175 193.481 254.046C193.353 253.918 193.289 253.758 193.289 253.597C193.289 253.372 193.385 253.18 193.61 253.019L199.133 249.712L193.61 246.405C193.385 246.244 193.289 246.083 193.289 245.827C193.289 245.634 193.353 245.506 193.481 245.377C193.61 245.249 193.77 245.184 193.931 245.184C194.059 245.184 194.156 245.217 194.252 245.281L200.675 249.134C200.899 249.294 201.028 249.487 201.028 249.712C201.06 249.937 200.931 250.161 200.675 250.29Z" fill="#333333"/>
<path fill-rule="evenodd" clip-rule="evenodd" d="M526.743 269.876C527.275 269.876 527.706 270.307 527.706 270.839C527.706 271.352 527.305 271.772 526.8 271.801L526.743 271.803H1.25695C0.724894 271.803 0.293579 271.371 0.293579 270.839C0.293579 270.326 0.694636 269.907 1.20034 269.878L1.25695 269.876H526.743Z" fill="#333333"/>
<path fill-rule="evenodd" clip-rule="evenodd" d="M274.437 134.055L272.67 106.57L237.218 108.85L238.439 127.441C241.586 124.744 257.064 114.404 259.312 114.212C261.56 114.019 264.257 117.294 260.404 119.831C256.55 122.367 248.393 126.542 248.393 126.542C255.169 124.166 263.743 121.597 265.349 122.014C267.789 122.656 267.629 127.152 262.973 128.629L249.903 133.285C249.903 133.285 265.124 129.464 267.179 129.624C269.234 129.785 271.033 135.115 261.463 136.913C251.894 138.743 251.508 139.578 251.508 139.578C251.508 139.578 263.294 137.908 265.734 138.133C268.175 138.358 268.239 144.715 256.518 144.683L256.454 144.844L265.477 144.266C270.744 143.945 274.79 139.353 274.437 134.055Z" fill="#333333"/>
</svg>
