<svg width="541" height="308" viewBox="0 0 541 308" fill="none" xmlns="http://www.w3.org/2000/svg">
<path fill-rule="evenodd" clip-rule="evenodd" d="M187.761 220.348L183.477 258.52C183.477 258.52 160.162 283.929 138.753 291.87C110.37 302.378 99.934 287.362 111.903 260.69L138.753 215.176L156.8 196.253L187.793 210.421" fill="white"/>
<path fill-rule="evenodd" clip-rule="evenodd" d="M155.948 195.441C156.276 195.097 156.777 194.985 157.216 195.152L157.289 195.182L188.282 209.35C188.873 209.621 189.133 210.319 188.863 210.91C188.602 211.48 187.944 211.743 187.367 211.518L187.303 211.491L157.072 197.672L139.698 215.89L112.951 261.23L112.807 261.554C107.292 274.017 106.772 283.892 110.981 289.318L111.112 289.483C115.564 295 125.051 295.688 138.344 290.767C139.897 290.191 141.49 289.509 143.121 288.727C149.539 285.649 156.389 281.092 163.426 275.448C168.262 271.57 172.899 267.411 177.171 263.253L177.761 262.677L178.334 262.112L178.891 261.56L179.43 261.02L179.951 260.493L180.455 259.98L180.941 259.48L181.614 258.781L182.129 258.238L182.35 258.002L186.592 220.216C186.661 219.593 187.205 219.139 187.823 219.172L187.892 219.178C188.515 219.248 188.97 219.792 188.936 220.41L188.931 220.479L184.647 258.651C184.619 258.899 184.513 259.132 184.344 259.316L183.961 259.727L183.589 260.12L183.173 260.557L182.632 261.118L182.139 261.624C182.055 261.71 181.971 261.796 181.886 261.883L181.366 262.41C181.278 262.499 181.189 262.588 181.1 262.679L180.554 263.226L179.99 263.785L179.41 264.357L178.813 264.94C174.491 269.148 169.798 273.355 164.899 277.285C157.732 283.032 150.74 287.684 144.139 290.85C142.445 291.662 140.785 292.372 139.162 292.974C110.395 303.623 98.153 288.456 110.83 260.208L110.858 260.149L110.89 260.092L137.74 214.578C137.77 214.527 137.804 214.477 137.842 214.431L137.902 214.364L155.948 195.441Z" fill="#333333"/>
<path fill-rule="evenodd" clip-rule="evenodd" d="M341.415 182.764C341.415 182.764 373.875 206.878 393.914 246.973C406.939 274.74 353.686 273.622 316.138 269.502C291.944 254.832 292.081 249.814 292.081 249.814L341.415 182.764Z" fill="white"/>
<path fill-rule="evenodd" clip-rule="evenodd" d="M340.467 182.066L291.133 249.116C291.009 249.285 290.932 249.484 290.91 249.692L290.904 249.798C290.899 250.168 291.014 250.626 291.281 251.181L291.365 251.351C291.38 251.379 291.395 251.408 291.411 251.437L291.509 251.616C291.613 251.797 291.73 251.987 291.863 252.186L292.001 252.388L292.15 252.597C292.175 252.632 292.201 252.667 292.228 252.703L292.392 252.921C292.477 253.031 292.566 253.144 292.659 253.259L292.85 253.492C292.883 253.532 292.916 253.572 292.95 253.612L293.159 253.855C293.195 253.896 293.231 253.937 293.267 253.979L293.494 254.231C293.532 254.274 293.571 254.317 293.611 254.36L293.855 254.623C293.897 254.667 293.939 254.712 293.981 254.757L294.244 255.029L294.484 255.274L294.733 255.523L294.989 255.774L295.253 256.028L295.525 256.285L295.805 256.545C295.852 256.588 295.9 256.632 295.948 256.676L296.239 256.941L296.539 257.208L296.847 257.479L297.162 257.753L297.486 258.03L297.818 258.31L298.158 258.593L298.507 258.879L298.863 259.168L299.228 259.46L299.602 259.756L299.983 260.055L300.373 260.356L300.772 260.661L301.179 260.969L301.594 261.28L302.019 261.595L302.451 261.912L302.893 262.233L303.343 262.557L303.802 262.884L304.269 263.214L304.987 263.716L305.477 264.054L305.976 264.396L306.484 264.741L307.262 265.264L308.061 265.795L308.88 266.333L309.72 266.879L310.581 267.432L311.462 267.993L312.365 268.561L312.978 268.943L313.916 269.524L314.876 270.112L315.528 270.509C315.674 270.598 315.839 270.653 316.009 270.672L317.402 270.823L318.787 270.968L320.165 271.109L321.536 271.245L322.899 271.376L324.254 271.501C324.48 271.522 324.704 271.542 324.929 271.562L326.273 271.68L327.609 271.792L328.936 271.9C329.157 271.917 329.377 271.934 329.597 271.951L330.912 272.051C331.131 272.067 331.349 272.083 331.567 272.098L332.869 272.19L334.163 272.276L335.448 272.356L336.724 272.431L337.991 272.501L339.248 272.564C339.457 272.575 339.665 272.585 339.873 272.594L341.117 272.65L342.35 272.699C342.555 272.707 342.76 272.715 342.964 272.722L344.183 272.763C355.716 273.127 365.898 272.71 374.181 271.357C383.093 269.9 389.593 267.383 393.367 263.62C397.676 259.325 398.3 253.552 394.979 246.473C389.769 236.048 383.47 226.156 376.308 216.812C368.837 207.066 360.833 198.423 352.828 190.978L352.132 190.333C352.016 190.226 351.901 190.121 351.786 190.015L351.103 189.392C350.989 189.289 350.876 189.187 350.764 189.085L350.094 188.482L349.432 187.893C349.323 187.797 349.214 187.7 349.105 187.604L348.458 187.037L347.821 186.484C347.61 186.302 347.401 186.122 347.194 185.945L346.577 185.42C346.475 185.334 346.373 185.249 346.272 185.164L345.671 184.661L345.081 184.172L344.678 183.842L344.103 183.375L343.564 182.943L343.061 182.546L342.59 182.18L342.116 181.819C341.593 181.43 340.853 181.541 340.467 182.066ZM293.368 250.05L341.649 184.43L341.951 184.668L342.33 184.97L342.729 185.291L343.147 185.631L343.585 185.99L344.166 186.471L344.759 186.966L345.361 187.476L345.974 188L346.598 188.539L347.231 189.091L347.874 189.658C347.982 189.753 348.09 189.85 348.199 189.946L348.856 190.534C348.966 190.633 349.077 190.733 349.188 190.833L349.858 191.442L350.537 192.065C350.765 192.275 350.995 192.487 351.225 192.701C359.139 200.062 367.054 208.609 374.44 218.245C381.515 227.474 387.734 237.241 392.861 247.499C398.397 259.301 391.542 266.134 373.801 269.033L373.371 269.102C367.731 269.994 361.185 270.452 353.917 270.524L352.821 270.532C351.72 270.537 350.603 270.533 349.47 270.521L348.333 270.506C347.571 270.494 346.802 270.479 346.027 270.46L344.86 270.428C344.469 270.417 344.076 270.404 343.682 270.391L342.496 270.348L341.299 270.3C341.099 270.292 340.898 270.283 340.697 270.274L339.487 270.218C339.285 270.209 339.082 270.199 338.879 270.188L337.655 270.124L336.422 270.055C336.216 270.043 336.009 270.031 335.802 270.018L334.556 269.941C334.348 269.928 334.139 269.914 333.93 269.901L332.672 269.816L331.405 269.726L330.13 269.631L328.846 269.531C328.632 269.513 328.417 269.496 328.202 269.479L326.907 269.371L325.604 269.258C325.386 269.239 325.168 269.22 324.95 269.2L323.636 269.08L322.314 268.955C322.093 268.934 321.872 268.912 321.651 268.891L320.318 268.759L318.979 268.622C318.755 268.598 318.531 268.575 318.307 268.551L316.957 268.407L316.525 268.36L315.474 267.718L314.851 267.334L314.237 266.954L313.335 266.39L312.745 266.019L311.878 265.468L311.311 265.104L310.479 264.566L309.667 264.035L309.137 263.685L308.36 263.167L307.853 262.825L307.355 262.487L306.865 262.152L306.385 261.821L305.914 261.493L305.451 261.168L304.774 260.687L304.116 260.213L303.478 259.747L302.86 259.288L302.26 258.837L301.871 258.54L301.491 258.246C301.428 258.197 301.366 258.149 301.304 258.1L300.936 257.811L300.576 257.526L300.225 257.243L299.882 256.964L299.548 256.688L299.221 256.415L298.747 256.012L298.441 255.747L298.143 255.485L297.853 255.227L297.571 254.971L297.297 254.719L297.031 254.47L296.773 254.224L296.523 253.981L296.28 253.742L296.045 253.505L295.931 253.388C295.839 253.293 295.749 253.2 295.662 253.108L295.408 252.836C295.367 252.791 295.327 252.747 295.287 252.703L295.055 252.444C294.905 252.274 294.765 252.11 294.635 251.951L294.446 251.717L294.271 251.492C294.215 251.418 294.161 251.345 294.109 251.274L293.961 251.065L293.826 250.864C293.697 250.668 293.588 250.483 293.496 250.311L293.452 250.225L293.399 250.118L293.368 250.05Z" fill="#333333"/>
<path fill-rule="evenodd" clip-rule="evenodd" d="M322.324 238.21C335.761 231.485 351.139 230.309 365.446 235.742C366.053 235.972 366.359 236.652 366.128 237.26C365.898 237.868 365.218 238.173 364.61 237.943C350.94 232.752 336.244 233.875 323.377 240.316C322.796 240.607 322.089 240.371 321.798 239.79C321.507 239.208 321.742 238.501 322.324 238.21Z" fill="#333333"/>
<path fill-rule="evenodd" clip-rule="evenodd" d="M158.843 246.632C158.958 247.248 158.57 247.841 157.97 247.99L156.957 248.189L156.063 248.37L155.372 248.514L154.658 248.666L153.922 248.825L153.164 248.992L152.387 249.167L151.59 249.349C151.455 249.38 151.32 249.412 151.184 249.443C146.138 250.618 141.092 251.979 136.39 253.51L136.029 253.628L135.314 253.865L134.61 254.103L133.916 254.343L133.232 254.583L132.559 254.825L131.896 255.068C131.786 255.109 131.677 255.15 131.569 255.19L130.922 255.435C130.709 255.517 130.497 255.599 130.287 255.681L129.663 255.928C129.147 256.135 128.643 256.342 128.152 256.551L127.567 256.802C124.772 258.018 122.387 259.271 120.482 260.555C119.943 260.919 119.211 260.776 118.848 260.237C118.485 259.698 118.628 258.966 119.167 258.603C121.505 257.027 124.473 255.517 127.974 254.073L128.617 253.811C128.725 253.768 128.833 253.724 128.942 253.681L129.602 253.421L130.274 253.163C130.951 252.905 131.645 252.65 132.355 252.396L133.071 252.144L133.798 251.893C133.92 251.851 134.042 251.809 134.165 251.768L134.908 251.519C135.157 251.436 135.408 251.353 135.661 251.271C140.435 249.717 145.543 248.339 150.651 247.15L151.466 246.962C151.601 246.932 151.734 246.901 151.867 246.871L152.654 246.694L153.42 246.525L154.165 246.364L155.24 246.137L156.326 245.914L157.26 245.73L157.471 245.69C158.11 245.571 158.724 245.993 158.843 246.632Z" fill="#333333"/>
<path fill-rule="evenodd" clip-rule="evenodd" d="M296.981 149.829C318.413 156.366 348.767 187.57 348.767 187.57L314.164 224.671L322.85 245.67L307.068 264.782L314.078 306.733L178.11 307.298L189.095 257.292L132.21 222.541L159.001 179.919C159.001 179.919 166.129 166.63 189.546 161.176C208.448 156.77 276.455 143.563 296.981 149.829Z" fill="#333333"/>
<path fill-rule="evenodd" clip-rule="evenodd" d="M257.554 141.111L257.193 150.665L265.204 150.104C268.276 152.003 273.015 182.611 244.317 188.775C222.096 193.546 211.402 171.044 208.295 158.147L217.102 155.887L223.701 117.958L257.554 141.111Z" fill="white"/>
<path fill-rule="evenodd" clip-rule="evenodd" d="M222.541 117.756L216.073 154.936L208.002 157.007C207.379 157.167 207 157.797 207.151 158.423C209.101 166.517 212.972 174.856 218.254 180.864C225.167 188.725 233.999 192.194 244.564 189.925C257.71 187.102 265.264 179.073 267.82 168.107C268.538 165.025 268.785 161.699 268.666 158.694L268.645 158.234C268.605 157.472 268.541 156.733 268.455 156.027L268.401 155.607C268.382 155.469 268.362 155.331 268.342 155.196L268.277 154.793C267.798 151.938 266.932 149.789 265.823 149.103L265.751 149.062C265.558 148.96 265.34 148.914 265.121 148.93L258.418 149.399L258.73 141.155C258.745 140.751 258.552 140.368 258.218 140.139L224.365 116.986C223.658 116.503 222.688 116.912 222.541 117.756ZM224.547 119.963L256.353 141.716L256.017 150.62L256.016 150.69C256.029 151.357 256.6 151.886 257.275 151.839L264.769 151.314L264.785 151.34C264.879 151.491 264.981 151.703 265.087 151.969L265.159 152.154L265.231 152.354L265.303 152.568C265.316 152.605 265.328 152.643 265.34 152.681L265.412 152.916L265.485 153.164L265.556 153.425L265.626 153.698L265.695 153.982L265.762 154.276L265.827 154.581C265.837 154.633 265.848 154.685 265.858 154.737L265.919 155.056L265.977 155.383L266.031 155.718L266.081 156.061C266.089 156.119 266.097 156.177 266.105 156.235C266.571 159.756 266.417 163.758 265.528 167.573C263.171 177.684 256.288 184.999 244.07 187.624C234.391 189.702 226.401 186.564 220.022 179.309L219.792 179.045C215.211 173.728 211.736 166.477 209.804 159.304L209.722 158.996L217.395 157.027C217.843 156.912 218.182 156.545 218.262 156.089L224.547 119.963Z" fill="#333333"/>
<rect width="8.67283" height="15.2677" transform="matrix(-0.943533 0.331277 -0.331212 -0.943556 226.153 39.978)" fill="#FE7624"/>
<ellipse cx="211.214" cy="15.3333" rx="15.3277" ry="15.3294" fill="#333333"/>
<path fill-rule="evenodd" clip-rule="evenodd" d="M223.54 107.392L220.421 108.016C220.421 108.016 202.347 110.135 203.363 93.5574C204.148 81.002 216.522 81.7436 222.457 82.8461" fill="white"/>
<path fill-rule="evenodd" clip-rule="evenodd" d="M210.623 81.9579C214.178 80.8315 218.377 80.8909 222.672 81.6888C223.311 81.8075 223.733 82.4219 223.614 83.061C223.496 83.7002 222.881 84.1221 222.242 84.0034C218.293 83.2698 214.449 83.2154 211.334 84.2021C207.256 85.4943 204.862 88.4422 204.538 93.6294C204.118 100.489 207.016 104.306 212.236 106.006C214.695 106.806 217.308 107.023 219.58 106.9L219.896 106.88L220.183 106.857L220.241 106.851L223.309 106.238C223.924 106.115 224.522 106.495 224.679 107.094L224.694 107.161C224.817 107.776 224.437 108.374 223.838 108.531L223.771 108.546L220.652 109.17L220.605 109.178L220.517 109.189L220.358 109.205L220.146 109.222L219.975 109.234C217.376 109.404 214.384 109.181 211.507 108.244C205.312 106.227 201.699 101.469 202.189 93.484C202.575 87.3069 205.634 83.5385 210.623 81.9579Z" fill="#333333"/>
<path fill-rule="evenodd" clip-rule="evenodd" d="M288.048 100.408C287.468 107.969 280.845 142.347 256.608 142.1C232.371 141.853 218.746 118.166 218.895 95.4721C219.044 72.7782 231.265 55.2869 246.612 55.0907C261.959 54.8946 292.25 45.6742 288.048 100.408Z" fill="white"/>
<path fill-rule="evenodd" clip-rule="evenodd" d="M253.946 53.4887L250.181 53.7525L248.902 53.8326L248.137 53.8715L247.607 53.8919L247.147 53.9044L246.597 53.9138C230.423 54.1206 217.87 72.3103 217.718 95.4644C217.641 107.27 221.198 119.052 227.656 127.898C234.721 137.573 244.738 143.156 256.596 143.277C267.903 143.392 276.374 136.457 282.252 124.709C286.228 116.762 288.735 106.832 289.222 100.498C290.608 82.4343 288.371 70.1842 282.902 62.683C278.407 56.5179 272.045 53.7762 263.588 53.2938L263.135 53.2701L262.766 53.2537L262.216 53.2337L261.667 53.2195L261.117 53.211L260.56 53.2081L260.185 53.2094L259.612 53.216L259.222 53.2235L258.623 53.2395L258.212 53.2533L257.36 53.2883L256.69 53.3211L255.748 53.3734L254.483 53.4527L253.946 53.4887ZM281 64.07C286.082 71.04 288.222 82.761 286.875 100.318C286.41 106.363 283.978 115.999 280.147 123.655C274.631 134.679 266.877 141.027 256.62 140.923C245.536 140.81 236.199 135.607 229.557 126.509C223.406 118.084 219.998 106.795 220.072 95.4799C220.217 73.4656 231.955 56.4554 246.627 56.2678L247.072 56.2607L247.502 56.2505L248.046 56.2318L248.627 56.2052L249.597 56.1495L251.112 56.0486L253.822 55.8569L254.874 55.7863L255.618 55.7397L256.553 55.686L257.432 55.6419L258.059 55.6152L258.463 55.6004L259.052 55.5828L259.623 55.5707L260.178 55.564L260.542 55.5627L261.079 55.5652L261.434 55.5699L261.963 55.5816L262.491 55.5988L262.845 55.6134L263.2 55.6304C271.144 56.0369 276.933 58.4913 281 64.07Z" fill="#333333"/>
<path fill-rule="evenodd" clip-rule="evenodd" d="M224.568 34.8295C238.193 30.5135 252.814 28.5164 265.694 33.6289C304.686 51.2614 304.788 80.6685 288.389 94.0518C289.013 73.2176 283.921 63.1145 276.761 58.3473C268.939 70.8164 243.67 81.618 220.527 81.8887C220.476 82.0967 220.433 82.3046 220.386 82.5126C214.038 81.7279 204.054 82.2928 203.363 93.5456C202.41 109.067 218.201 108.2 220.233 108.024C220.5 109.252 223.736 120.351 223.736 120.351L220.237 136.277L168.754 128.301C167.287 128.268 165.923 127.539 165.081 126.337C164.238 125.136 164.017 123.606 164.485 122.215C170.676 103.774 180.766 49.3545 224.568 34.8295Z" fill="#333333"/>
<path fill-rule="evenodd" clip-rule="evenodd" d="M266.037 80.6897C266.663 80.6573 267.2 81.1202 267.268 81.7355L267.274 81.8044L268.772 110.792C268.809 111.498 268.221 112.071 267.525 112.027L267.455 112.021L260.257 111.15C259.611 111.072 259.151 110.485 259.229 109.84C259.305 109.218 259.853 108.768 260.47 108.807L260.539 108.813L266.349 109.516L264.923 81.926C264.89 81.3 265.353 80.7629 265.968 80.6953L266.037 80.6897Z" fill="#333333"/>
<path fill-rule="evenodd" clip-rule="evenodd" d="M277.924 80.1239C279.714 80.4082 281.191 81.3715 282.146 83.096C282.46 83.6647 282.255 84.381 281.686 84.6959C281.117 85.0107 280.401 84.8049 280.086 84.2362C279.498 83.1729 278.655 82.6237 277.555 82.4489C276.666 82.3076 275.667 82.4225 274.684 82.7067C274.49 82.7628 274.31 82.8219 274.146 82.8812L273.975 82.9457L273.816 83.0111C273.224 83.2803 272.527 83.0189 272.257 82.4272C271.988 81.8356 272.249 81.1376 272.841 80.8684L272.901 80.8415L273.038 80.7837L273.197 80.7212L273.377 80.6551L273.576 80.5864L273.794 80.5161L274.031 80.4451C275.318 80.073 276.644 79.9204 277.924 80.1239Z" fill="#333333"/>
<path fill-rule="evenodd" clip-rule="evenodd" d="M246.359 78.9202C247.892 78.1999 249.474 77.8573 251.018 78.1306C252.295 78.3567 253.44 79.0015 254.38 80.0917C254.805 80.5839 254.75 81.3271 254.258 81.7519C253.766 82.1766 253.023 82.1219 252.598 81.6298C252.014 80.9522 251.355 80.5809 250.608 80.4487C249.622 80.2742 248.493 80.5186 247.36 81.051C247.107 81.1697 246.87 81.2953 246.655 81.4217L246.443 81.5496L246.278 81.6563L246.207 81.7055C245.682 82.0888 244.946 81.9739 244.563 81.4488C244.18 80.9237 244.295 80.1873 244.82 79.8041C244.862 79.7729 244.909 79.7402 244.959 79.7059L245.119 79.5992C245.434 79.3966 245.853 79.1576 246.359 78.9202Z" fill="#333333"/>
<ellipse rx="3.71953" ry="2.40488" transform="matrix(0.153831 -0.988097 0.988092 0.153865 250.219 89.0082)" fill="#333333"/>
<ellipse rx="3.71954" ry="2.4049" transform="matrix(0.106774 -0.994283 0.994281 0.106796 276.312 91.2387)" fill="#333333"/>
<path fill-rule="evenodd" clip-rule="evenodd" d="M215.644 106.57C216.208 106.299 216.881 106.518 217.181 107.058L217.214 107.122L222.549 118.241C222.831 118.827 222.584 119.531 221.997 119.812C221.433 120.083 220.76 119.864 220.46 119.324L220.427 119.26L215.092 108.14C214.81 107.554 215.058 106.851 215.644 106.57Z" fill="#FE7624"/>
<path fill-rule="evenodd" clip-rule="evenodd" d="M216.874 81.4903C217.407 81.1623 218.099 81.3104 218.454 81.8163L218.493 81.8762L229.701 100.101C230.042 100.655 229.869 101.38 229.316 101.72C228.782 102.048 228.09 101.9 227.736 101.395L227.696 101.335L216.488 83.1096C216.148 82.5559 216.32 81.8309 216.874 81.4903Z" fill="#FE7624"/>
<path fill-rule="evenodd" clip-rule="evenodd" d="M226.545 96.7511C226.545 96.7511 226.078 115.584 218.895 116.028C221.586 124.302 244.76 157.735 270.877 139.848C275.724 136.458 279.72 131.991 282.552 126.798C288.903 115.419 288.437 108.106 288.437 108.106C288.437 108.106 277.569 96.9865 268.958 95.1935C260.347 93.4004 256.906 99.6271 245.506 101.769C238.753 103.028 231.792 101.186 226.545 96.7511Z" fill="#FEBA91"/>
<path fill-rule="evenodd" clip-rule="evenodd" d="M230.56 85.3613C228.806 96.9335 234.566 107.513 243.625 108.886C252.684 110.26 261.319 101.863 263.073 90.2909C264.827 78.7187 259.068 68.1395 250.009 66.7659C240.95 65.3923 232.314 73.7891 230.56 85.3613ZM232.888 85.7142C234.465 75.3093 242.044 67.9393 249.656 69.0934C257.268 70.2475 262.323 79.5332 260.746 89.9381C259.169 100.343 251.589 107.713 243.977 106.559C236.366 105.405 231.311 96.119 232.888 85.7142Z" fill="#FE7624"/>
<path fill-rule="evenodd" clip-rule="evenodd" d="M269.868 90.1898C268.22 101.057 273.632 110.999 282.156 112.292C290.679 113.584 298.794 105.693 300.441 94.8254C302.088 83.9581 296.676 74.016 288.153 72.7236C279.629 71.4313 271.515 79.3225 269.868 90.1898ZM272.195 90.5427C273.665 80.8427 280.724 73.9783 287.8 75.0512C294.876 76.1241 299.584 84.7725 298.114 94.4725C296.643 104.172 289.585 111.037 282.508 109.964C275.432 108.891 270.725 100.243 272.195 90.5427Z" fill="#FE7624"/>
<path fill-rule="evenodd" clip-rule="evenodd" d="M261.154 87.9008C261.223 87.2776 261.766 86.8217 262.384 86.8535L262.453 86.859L271.393 87.8399C272.04 87.9108 272.506 88.4921 272.435 89.1383C272.367 89.7615 271.824 90.2174 271.206 90.1856L271.137 90.1801L262.196 89.1992C261.55 89.1283 261.083 88.547 261.154 87.9008Z" fill="#FE7624"/>
<path fill-rule="evenodd" clip-rule="evenodd" d="M231.731 80.404C232.38 80.3626 232.939 80.855 232.981 81.5037C233.021 82.1293 232.564 82.6719 231.95 82.747L231.881 82.7534L217.566 83.6676C216.917 83.709 216.358 83.2167 216.316 82.5679C216.276 81.9423 216.733 81.3997 217.347 81.3246L217.416 81.3182L231.731 80.404Z" fill="#FE7624"/>
<path fill-rule="evenodd" clip-rule="evenodd" d="M339.582 216.546C343.549 209.365 351.466 200.341 375.993 200.871C403.372 201.463 404.44 218.025 418.273 252.289C419.367 255.766 404.714 263.401 404.64 280.335C384.663 266.602 399.857 229.799 369.783 233.181C348.205 236.105 343.745 231.047 343.745 231.047L339.582 216.546Z" fill="white"/>
<path fill-rule="evenodd" clip-rule="evenodd" d="M349.505 204.789C344.484 207.586 341.189 211.203 338.552 215.976C338.402 216.249 338.365 216.571 338.451 216.87L342.614 231.372C342.662 231.54 342.747 231.695 342.862 231.826L342.928 231.896L342.968 231.936C343.891 232.825 345.661 233.73 348.534 234.387L348.942 234.477C349.011 234.492 349.081 234.507 349.152 234.521C349.781 234.65 350.443 234.764 351.137 234.86L351.604 234.923C352.549 235.042 353.551 235.132 354.613 235.191L355.149 235.218C356.051 235.258 356.995 235.276 357.981 235.272L358.577 235.267C358.878 235.263 359.183 235.256 359.492 235.248L360.114 235.229L360.747 235.204C360.853 235.2 360.96 235.195 361.067 235.19L361.716 235.156C361.934 235.144 362.153 235.131 362.375 235.117L363.045 235.072C363.157 235.064 363.27 235.056 363.383 235.048L364.069 234.994C364.299 234.975 364.531 234.955 364.765 234.934L365.472 234.869C365.591 234.857 365.71 234.846 365.829 234.834L366.552 234.759C366.795 234.733 367.04 234.706 367.286 234.679L368.031 234.592C368.156 234.577 368.281 234.562 368.407 234.546L369.169 234.45C369.424 234.417 369.681 234.383 369.941 234.348C377.443 233.504 382.191 235.178 385.278 239.181L385.438 239.392L385.595 239.605L385.748 239.82L385.898 240.037L386.045 240.258L386.189 240.481L386.329 240.707C386.353 240.745 386.376 240.783 386.399 240.822L386.536 241.054C386.558 241.093 386.581 241.132 386.603 241.171L386.736 241.409C386.758 241.449 386.78 241.489 386.801 241.529L386.93 241.773L387.057 242.022C387.078 242.064 387.099 242.106 387.12 242.149L387.244 242.405L387.365 242.667L387.485 242.935C387.505 242.98 387.525 243.025 387.545 243.071L387.662 243.347L387.778 243.63L387.892 243.92L388.005 244.216L388.116 244.519C388.135 244.57 388.153 244.622 388.172 244.674L388.282 244.988C388.3 245.041 388.318 245.094 388.336 245.148L388.445 245.474L388.553 245.809L388.66 246.152L388.767 246.503L388.926 247.047L389.032 247.422L389.138 247.806L389.297 248.4L389.403 248.81L389.509 249.23L389.616 249.66L389.777 250.327L389.94 251.02L390.105 251.739L390.328 252.742L390.499 253.527L391.542 258.43L391.846 259.779L392.005 260.461L392.164 261.126C392.191 261.235 392.217 261.344 392.244 261.452L392.405 262.093C392.458 262.304 392.512 262.513 392.566 262.719L392.73 263.331C392.921 264.036 393.117 264.713 393.318 265.367L393.492 265.921C394.135 267.932 394.841 269.721 395.675 271.422C397.702 275.556 400.382 278.836 403.973 281.305C404.752 281.84 405.812 281.285 405.817 280.34C405.846 273.58 408.174 268.008 412.417 262.508C412.522 262.371 412.628 262.236 412.735 262.1L413.057 261.695C413.112 261.627 413.167 261.56 413.222 261.492L413.558 261.081C413.673 260.944 413.789 260.804 413.908 260.663L414.273 260.233L414.657 259.788L415.397 258.942L416.676 257.494L417.086 257.022L417.371 256.686L417.484 256.552L417.699 256.291C417.734 256.248 417.768 256.206 417.802 256.164L418 255.916L418.185 255.675C419.351 254.138 419.754 253.076 419.395 251.936C419.386 251.906 419.375 251.877 419.364 251.849L419.008 250.958L418.587 249.887L417.795 247.849L416.271 243.89L411.807 232.23L410.62 229.151L409.789 227.014L409.255 225.659L408.95 224.894L408.689 224.252L408.525 223.858L408.39 223.54L408.121 222.912C408.076 222.808 408.031 222.705 407.987 222.603L407.719 221.993L407.452 221.394L407.186 220.807L406.921 220.232C406.877 220.137 406.832 220.043 406.788 219.949L406.523 219.39C406.479 219.298 406.435 219.206 406.391 219.115L406.126 218.573C406.082 218.483 406.038 218.394 405.994 218.306L405.73 217.78L405.465 217.265C405.421 217.18 405.377 217.095 405.332 217.011L405.067 216.511C404.979 216.346 404.89 216.183 404.801 216.021L404.535 215.541C404.357 215.225 404.179 214.915 404 214.611L403.73 214.16C403.551 213.863 403.37 213.572 403.188 213.287L402.915 212.864C401.089 210.072 399.156 207.873 396.936 206.055C391.872 201.907 385.309 199.895 376.018 199.694C374.08 199.652 372.222 199.668 370.443 199.741L369.735 199.773C367.391 199.891 365.185 200.108 363.112 200.423L362.494 200.521C357.376 201.356 353.081 202.796 349.505 204.789ZM414.812 256.05L413.292 257.771L412.875 258.249L412.479 258.709C412.351 258.859 412.225 259.007 412.102 259.153L411.74 259.586L411.391 260.012C411.334 260.082 411.277 260.153 411.221 260.223L410.884 260.645L410.553 261.07L410.366 261.315C406.448 266.461 404.073 271.748 403.565 277.93L403.557 278.035L403.446 277.941C400.518 275.443 398.425 272.293 396.76 268.071L396.579 267.606C396.431 267.215 396.286 266.815 396.143 266.406L395.974 265.91C395.89 265.66 395.808 265.406 395.726 265.15L395.564 264.631C395.51 264.457 395.457 264.281 395.404 264.103L395.247 263.566L395.092 263.019L394.939 262.462C394.914 262.369 394.889 262.275 394.864 262.18L394.714 261.609C394.689 261.513 394.665 261.416 394.64 261.319L394.493 260.733L394.348 260.136L394.205 259.529C394.181 259.427 394.157 259.324 394.134 259.221L393.883 258.113L393.498 256.329L392.915 253.564L392.677 252.463L392.56 251.932L392.388 251.16L392.217 250.415L392.104 249.934L391.936 249.233L391.825 248.781L391.659 248.122L391.492 247.487L391.382 247.076L391.271 246.676L391.16 246.285L390.992 245.715L390.88 245.347L390.766 244.987L390.652 244.636C390.633 244.578 390.614 244.52 390.595 244.463L390.479 244.123C390.46 244.067 390.44 244.012 390.421 243.956L390.303 243.628C390.284 243.574 390.264 243.52 390.244 243.467L390.124 243.15L390.003 242.839L389.88 242.535C389.839 242.435 389.798 242.335 389.756 242.237L389.629 241.945C389.608 241.897 389.586 241.849 389.565 241.801L389.435 241.518L389.303 241.24L389.168 240.967L389.031 240.698L388.891 240.434C388.844 240.347 388.797 240.26 388.749 240.174L388.603 239.918L388.455 239.666L388.303 239.417L388.148 239.171L387.99 238.928C387.963 238.887 387.936 238.847 387.909 238.807L387.745 238.568C387.718 238.528 387.69 238.488 387.662 238.449L387.493 238.212L387.319 237.977C387.261 237.899 387.202 237.821 387.142 237.744C383.777 233.38 378.743 231.376 371.405 231.855L370.913 231.89C370.499 231.923 370.079 231.964 369.651 232.012L369.278 232.062L368.541 232.157C368.297 232.188 368.055 232.218 367.815 232.247L367.099 232.33L366.394 232.408C366.161 232.433 365.93 232.457 365.7 232.48L365.017 232.547C364.678 232.579 364.343 232.609 364.011 232.636L363.354 232.689L362.708 232.736C362.601 232.743 362.495 232.75 362.389 232.757L361.758 232.796L361.137 232.829L360.527 232.857C360.426 232.862 360.326 232.866 360.226 232.869L359.631 232.889C358.157 232.933 356.779 232.928 355.493 232.876L354.984 232.854C354.143 232.811 353.344 232.749 352.584 232.667L352.133 232.616C352.058 232.607 351.984 232.598 351.911 232.589L351.474 232.531C351.258 232.501 351.045 232.469 350.836 232.435L350.423 232.366C350.151 232.319 349.884 232.268 349.624 232.215C347.99 231.88 346.715 231.453 345.757 230.978L345.648 230.923C345.414 230.803 345.218 230.691 345.058 230.588L344.909 230.488C344.863 230.456 344.821 230.425 344.782 230.396L340.849 216.693L340.881 216.638C343.271 212.462 346.218 209.315 350.65 206.845C356.62 203.519 364.856 201.808 375.968 202.048C384.769 202.238 390.829 204.096 395.445 207.876C396.79 208.978 398.029 210.245 399.21 211.737L399.481 212.085C399.842 212.555 400.197 213.047 400.549 213.561L400.811 213.952C400.942 214.149 401.073 214.35 401.203 214.555L401.463 214.968L401.722 215.39C401.98 215.817 402.237 216.259 402.494 216.715L402.75 217.177C402.835 217.332 402.92 217.489 403.005 217.648L403.261 218.13L403.516 218.622C403.559 218.705 403.601 218.789 403.644 218.873L403.9 219.381C403.985 219.552 404.07 219.725 404.155 219.9L404.411 220.43L404.668 220.972L404.925 221.524L405.183 222.089L405.442 222.665L405.702 223.252L405.963 223.852L406.225 224.464L406.457 225.015L406.827 225.924L407.521 227.676L408.371 229.86L410.564 235.564L415.032 247.229L416.207 250.265L416.959 252.176L417.156 252.667L417.159 252.688C417.166 252.775 417.135 252.901 417.059 253.07L417.008 253.177C416.999 253.195 416.989 253.214 416.979 253.234L416.912 253.356C416.9 253.377 416.887 253.399 416.874 253.421L416.79 253.559C416.775 253.582 416.759 253.607 416.743 253.631L416.641 253.785C416.623 253.812 416.604 253.839 416.585 253.866L416.465 254.036C416.444 254.065 416.422 254.095 416.4 254.125L416.261 254.312L416.109 254.509C416.082 254.543 416.055 254.577 416.027 254.612L415.855 254.827L415.669 255.053L415.369 255.408L414.987 255.849L414.812 256.05Z" fill="#333333"/>
<path fill-rule="evenodd" clip-rule="evenodd" d="M354.927 230.862C355.168 230.259 355.852 229.964 356.456 230.205C357.038 230.437 357.333 231.082 357.137 231.669L357.114 231.734L356.243 233.919C356.002 234.523 355.317 234.818 354.714 234.577C354.131 234.345 353.837 233.7 354.032 233.113L354.056 233.048L354.927 230.862Z" fill="#333333"/>
<path fill-rule="evenodd" clip-rule="evenodd" d="M358.625 227.935L360.134 224.135C360.373 223.531 360.078 222.847 359.474 222.607C358.87 222.367 358.186 222.662 357.946 223.267L356.437 227.065C356.197 227.67 356.492 228.354 357.096 228.594C357.7 228.834 358.384 228.539 358.625 227.935ZM361.642 220.334L363.148 216.532C363.387 215.928 363.091 215.244 362.487 215.004C361.883 214.765 361.199 215.061 360.959 215.666L359.454 219.466C359.214 220.07 359.51 220.754 360.114 220.994C360.718 221.234 361.402 220.938 361.642 220.334ZM364.652 212.73L366.152 208.926C366.39 208.321 366.093 207.637 365.488 207.399C364.883 207.161 364.2 207.458 363.962 208.063L362.462 211.865C362.224 212.47 362.52 213.153 363.125 213.392C363.729 213.631 364.413 213.335 364.652 212.73Z" fill="#333333"/>
<path fill-rule="evenodd" clip-rule="evenodd" d="M366.317 202.06C366.553 201.454 367.235 201.155 367.841 201.391C368.425 201.619 368.724 202.261 368.533 202.85L368.51 202.915L367.654 205.108C367.418 205.714 366.736 206.014 366.13 205.777C365.546 205.55 365.247 204.907 365.438 204.318L365.461 204.253L366.317 202.06Z" fill="#333333"/>
<path fill-rule="evenodd" clip-rule="evenodd" d="M390.27 243.349L390.503 243.081L390.693 242.856L390.901 242.607L391.125 242.335C391.784 241.528 392.504 240.601 393.259 239.57C393.644 239.045 393.53 238.309 393.005 237.924C392.481 237.54 391.745 237.654 391.361 238.179C390.697 239.085 390.063 239.906 389.477 240.63L389.194 240.977L388.893 241.339L388.511 241.785C388.079 242.27 388.123 243.014 388.608 243.446C389.094 243.878 389.838 243.835 390.27 243.349ZM395.959 235.62C396.818 234.269 397.631 232.889 398.387 231.488C398.695 230.916 398.482 230.202 397.91 229.893C397.338 229.585 396.624 229.799 396.315 230.371C395.587 231.72 394.803 233.051 393.972 234.356C393.624 234.905 393.785 235.632 394.334 235.981C394.882 236.33 395.61 236.168 395.959 235.62ZM400.494 227.162C401.152 225.643 401.719 224.133 402.186 222.634C402.379 222.013 402.033 221.353 401.412 221.16C400.792 220.966 400.132 221.313 399.939 221.933C399.497 223.349 398.96 224.782 398.334 226.225C398.076 226.822 398.349 227.515 398.946 227.773C399.542 228.032 400.235 227.758 400.494 227.162ZM403.325 217.901C403.473 217.009 403.58 216.127 403.644 215.255C403.691 214.607 403.204 214.043 402.556 213.996C401.907 213.948 401.343 214.435 401.296 215.084C401.238 215.883 401.14 216.694 401.003 217.516C400.897 218.157 401.33 218.763 401.971 218.87C402.613 218.976 403.219 218.543 403.325 217.901Z" fill="#333333"/>
<rect width="39.794" height="95.9154" transform="matrix(0.790977 0.611846 -0.611761 0.791043 335.148 149.393)" fill="white"/>
<path fill-rule="evenodd" clip-rule="evenodd" d="M367.344 172.811L335.868 148.462C335.353 148.065 334.614 148.159 334.216 148.673L275.54 224.546C275.142 225.06 275.236 225.799 275.751 226.197L307.227 250.545C307.742 250.943 308.481 250.849 308.878 250.334L367.555 174.462C367.953 173.948 367.858 173.208 367.344 172.811ZM364.973 173.952L307.737 247.963L278.122 225.055L335.359 151.044L364.973 173.952Z" fill="#333333"/>
<path fill-rule="evenodd" clip-rule="evenodd" d="M279.178 227.367L312.211 184.655L279.178 227.367Z" fill="white"/>
<path fill-rule="evenodd" clip-rule="evenodd" d="M311.28 183.935C311.677 183.42 312.417 183.326 312.931 183.724C313.425 184.106 313.532 184.804 313.185 185.315L313.142 185.375L280.109 228.087C279.711 228.601 278.972 228.696 278.458 228.298C277.964 227.915 277.857 227.217 278.203 226.707L278.247 226.647L311.28 183.935Z" fill="#333333"/>
<path fill-rule="evenodd" clip-rule="evenodd" d="M327.985 168.884C328.382 168.37 329.121 168.275 329.636 168.673C330.13 169.055 330.236 169.754 329.89 170.264L329.846 170.324L283.279 230.539C282.881 231.053 282.142 231.148 281.628 230.75C281.133 230.368 281.027 229.669 281.373 229.159L281.417 229.099L327.985 168.884Z" fill="#FE7624"/>
<path fill-rule="evenodd" clip-rule="evenodd" d="M331.154 171.336C331.552 170.822 332.291 170.727 332.805 171.125C333.3 171.508 333.406 172.206 333.06 172.716L333.016 172.776L286.449 232.991C286.051 233.506 285.312 233.6 284.798 233.202C284.303 232.82 284.197 232.122 284.543 231.611L284.587 231.551L331.154 171.336Z" fill="#FE7624"/>
<path fill-rule="evenodd" clip-rule="evenodd" d="M334.324 173.788C334.722 173.274 335.461 173.18 335.975 173.577C336.47 173.96 336.576 174.658 336.23 175.168L336.186 175.229L289.615 235.44C289.217 235.954 288.478 236.048 287.964 235.651C287.469 235.268 287.363 234.57 287.709 234.06L287.753 233.999L334.324 173.788Z" fill="#FE7624"/>
<path fill-rule="evenodd" clip-rule="evenodd" d="M337.49 176.241C337.888 175.726 338.627 175.632 339.141 176.03C339.636 176.412 339.742 177.11 339.396 177.621L339.352 177.681L292.785 237.892C292.387 238.406 291.648 238.501 291.134 238.103C290.639 237.72 290.533 237.022 290.879 236.512L290.923 236.452L337.49 176.241Z" fill="#FE7624"/>
<path fill-rule="evenodd" clip-rule="evenodd" d="M340.66 178.689C341.058 178.175 341.797 178.08 342.311 178.478C342.806 178.86 342.912 179.559 342.566 180.069L342.522 180.129L295.955 240.344C295.557 240.858 294.818 240.953 294.304 240.555C293.809 240.173 293.703 239.474 294.049 238.964L294.093 238.904L340.66 178.689Z" fill="#FE7624"/>
<path fill-rule="evenodd" clip-rule="evenodd" d="M343.83 181.141C344.228 180.627 344.967 180.532 345.481 180.93C345.976 181.313 346.082 182.011 345.736 182.521L345.692 182.581L299.124 242.796C298.727 243.311 297.988 243.405 297.473 243.007C296.979 242.625 296.873 241.927 297.219 241.416L297.263 241.356L343.83 181.141Z" fill="#FE7624"/>
<path fill-rule="evenodd" clip-rule="evenodd" d="M347 183.593C347.398 183.079 348.137 182.985 348.651 183.382C349.145 183.765 349.252 184.463 348.906 184.973L348.862 185.034L302.294 245.249C301.897 245.763 301.157 245.857 300.643 245.46C300.149 245.077 300.043 244.379 300.389 243.869L300.432 243.808L347 183.593Z" fill="#FE7624"/>
<path fill-rule="evenodd" clip-rule="evenodd" d="M350.17 186.046C350.568 185.531 351.307 185.437 351.821 185.835C352.315 186.217 352.422 186.915 352.076 187.426L352.032 187.486L305.464 247.701C305.066 248.215 304.327 248.31 303.813 247.912C303.319 247.529 303.212 246.831 303.559 246.321L303.602 246.261L350.17 186.046Z" fill="#FE7624"/>
<path fill-rule="evenodd" clip-rule="evenodd" d="M353.286 190.98C353.286 190.98 326.04 161.161 297.73 197.771L336.248 147.966L367.723 172.315L353.286 190.98Z" fill="white"/>
<path fill-rule="evenodd" clip-rule="evenodd" d="M335.317 147.245L296.8 197.051C295.84 198.293 297.701 199.733 298.662 198.491C307.399 187.192 316.484 181.656 325.689 180.819C332.725 180.179 339.446 182.3 345.583 186.245C347.477 187.463 349.172 188.768 350.641 190.071C350.983 190.374 351.295 190.662 351.577 190.932L351.849 191.195L352.126 191.471L352.417 191.774C352.91 192.313 353.77 192.278 354.217 191.7L368.654 173.035C369.052 172.521 368.957 171.782 368.443 171.384L336.968 147.035C336.454 146.637 335.715 146.731 335.317 147.245ZM336.459 149.617L366.072 172.526L353.173 189.201L353.051 189.085C352.789 188.838 352.507 188.579 352.203 188.31C350.647 186.93 348.857 185.552 346.856 184.265C340.313 180.059 333.097 177.781 325.476 178.474L325.179 178.503C319.837 179.043 314.564 181.04 309.41 184.638L309.334 184.691L336.459 149.617Z" fill="#333333"/>
<path fill-rule="evenodd" clip-rule="evenodd" d="M367.723 172.315L336.248 147.966L342.27 144.587L373.745 168.933L367.723 172.315Z" fill="white"/>
<path fill-rule="evenodd" clip-rule="evenodd" d="M341.694 143.561L335.672 146.939C334.937 147.351 334.861 148.381 335.528 148.897L367.003 173.246C367.377 173.535 367.887 173.573 368.299 173.342L374.321 169.959C375.056 169.547 375.132 168.518 374.465 168.002L342.99 143.656C342.616 143.367 342.106 143.33 341.694 143.561ZM342.166 145.995L371.619 168.777L367.826 170.907L338.374 148.122L342.166 145.995Z" fill="#333333"/>
<rect width="39.7931" height="152.859" transform="matrix(0.915014 0.403423 -0.403348 0.915046 300.6 116.134)" fill="white"/>
<path fill-rule="evenodd" clip-rule="evenodd" d="M337.485 131.111L301.073 115.057C300.478 114.795 299.783 115.064 299.521 115.659L237.867 255.531C237.605 256.126 237.874 256.821 238.469 257.083L274.882 273.138C275.477 273.4 276.172 273.13 276.434 272.536L338.088 132.663C338.35 132.068 338.08 131.374 337.485 131.111ZM335.459 132.79L274.754 270.509L240.496 255.404L301.2 117.686L335.459 132.79Z" fill="#333333"/>
<path fill-rule="evenodd" clip-rule="evenodd" d="M285.775 155.393C286.037 154.798 286.732 154.528 287.326 154.791C287.9 155.043 288.171 155.698 287.955 156.278L287.929 156.342L243.189 257.857C242.927 258.452 242.232 258.721 241.638 258.459C241.064 258.206 240.793 257.551 241.009 256.971L241.035 256.907L285.775 155.393Z" fill="#FE7624"/>
<path fill-rule="evenodd" clip-rule="evenodd" d="M298.364 136.76C298.626 136.165 299.321 135.895 299.916 136.158C300.489 136.41 300.76 137.065 300.544 137.645L300.518 137.709L246.853 259.473C246.591 260.068 245.897 260.338 245.302 260.076C244.728 259.823 244.457 259.168 244.673 258.588L244.7 258.524L298.364 136.76Z" fill="#FE7624"/>
<path fill-rule="evenodd" clip-rule="evenodd" d="M302.028 138.376C302.29 137.782 302.985 137.512 303.58 137.774C304.153 138.027 304.425 138.682 304.208 139.262L304.182 139.326L250.522 261.09C250.259 261.685 249.565 261.954 248.97 261.692C248.396 261.439 248.125 260.784 248.342 260.205L248.368 260.14L302.028 138.376Z" fill="#FE7624"/>
<path fill-rule="evenodd" clip-rule="evenodd" d="M305.696 139.993C305.959 139.398 306.653 139.128 307.248 139.391C307.822 139.643 308.093 140.298 307.876 140.878L307.85 140.942L254.186 262.706C253.924 263.301 253.229 263.571 252.634 263.309C252.061 263.056 251.789 262.401 252.006 261.821L252.032 261.757L305.696 139.993Z" fill="#FE7624"/>
<path fill-rule="evenodd" clip-rule="evenodd" d="M309.361 141.609C309.623 141.015 310.318 140.745 310.912 141.007C311.486 141.26 311.757 141.915 311.541 142.495L311.515 142.559L257.854 264.323C257.592 264.918 256.897 265.187 256.302 264.925C255.729 264.672 255.458 264.017 255.674 263.437L255.7 263.373L309.361 141.609Z" fill="#FE7624"/>
<path fill-rule="evenodd" clip-rule="evenodd" d="M313.029 143.226C313.291 142.631 313.986 142.361 314.58 142.624C315.154 142.876 315.425 143.532 315.209 144.111L315.183 144.175L261.518 265.939C261.256 266.534 260.561 266.804 259.966 266.542C259.393 266.289 259.122 265.634 259.338 265.054L259.364 264.99L313.029 143.226Z" fill="#FE7624"/>
<path fill-rule="evenodd" clip-rule="evenodd" d="M316.693 144.839C316.955 144.244 317.65 143.974 318.245 144.236C318.818 144.489 319.089 145.144 318.873 145.724L318.847 145.788L265.186 267.556C264.924 268.151 264.229 268.42 263.635 268.158C263.061 267.905 262.79 267.25 263.006 266.67L263.032 266.606L316.693 144.839Z" fill="#FE7624"/>
<path fill-rule="evenodd" clip-rule="evenodd" d="M320.361 146.455C320.623 145.86 321.318 145.59 321.913 145.853C322.486 146.105 322.758 146.76 322.541 147.34L322.515 147.404L268.851 269.172C268.588 269.767 267.894 270.037 267.299 269.775C266.725 269.522 266.454 268.867 266.671 268.287L266.697 268.223L320.361 146.455Z" fill="#FE7624"/>
<path fill-rule="evenodd" clip-rule="evenodd" d="M324.025 148.072C324.287 147.477 324.982 147.207 325.577 147.469C326.15 147.722 326.422 148.377 326.205 148.957L326.179 149.021L272.519 270.785C272.256 271.38 271.562 271.65 270.967 271.387C270.393 271.135 270.122 270.479 270.339 269.9L270.365 269.836L324.025 148.072Z" fill="#FE7624"/>
<path fill-rule="evenodd" clip-rule="evenodd" d="M328.241 152.109C328.241 152.109 294.616 129.745 275.953 172.084L301.344 114.466L337.758 130.517L328.241 152.109Z" fill="white"/>
<path fill-rule="evenodd" clip-rule="evenodd" d="M300.267 113.991L274.876 171.609C274.253 173.023 276.332 173.965 277 172.623L277.03 172.559C282.225 160.772 288.84 153.451 296.526 149.903C304.719 146.12 313.523 146.801 321.964 150.248C323.501 150.875 324.893 151.547 326.113 152.218C326.234 152.285 326.351 152.35 326.464 152.414L326.788 152.6L327.086 152.776L327.352 152.938L327.589 153.089C328.197 153.493 329.023 153.252 329.318 152.584L338.835 130.992C339.097 130.397 338.828 129.703 338.233 129.44L301.818 113.389C301.224 113.127 300.529 113.397 300.267 113.991ZM301.946 116.018L336.206 131.12L327.703 150.41L327.579 150.34C327.472 150.279 327.361 150.218 327.247 150.155C325.951 149.443 324.478 148.731 322.854 148.068C319.038 146.51 314.984 145.454 310.813 145.131C305.535 144.723 300.397 145.522 295.539 147.765L295.292 147.881C291.266 149.784 287.537 152.637 284.148 156.508L284.057 156.611L301.946 116.018Z" fill="#333333"/>
<path fill-rule="evenodd" clip-rule="evenodd" d="M337.758 130.517L301.344 114.466L301.505 106.803L337.919 122.855L337.758 130.517Z" fill="white"/>
<path fill-rule="evenodd" clip-rule="evenodd" d="M300.328 106.779L300.167 114.441C300.157 114.917 300.434 115.351 300.869 115.543L337.284 131.595C338.052 131.933 338.917 131.382 338.935 130.542L339.096 122.879C339.106 122.404 338.829 121.969 338.394 121.778L301.979 105.726C301.211 105.388 300.345 105.939 300.328 106.779ZM302.644 108.592L336.726 123.615L336.618 128.729L302.537 113.705L302.644 108.592Z" fill="#333333"/>
<path fill-rule="evenodd" clip-rule="evenodd" d="M359.61 218.578L327.582 199.47L310.893 225.789C307.279 231.486 312.03 235.951 318.79 246.372C321.579 230.643 350.395 232.432 350.395 232.432L359.61 218.578Z" fill="#333333"/>
<ellipse rx="12.2137" ry="18.5962" transform="matrix(0.53549 -0.844542 0.844488 0.535574 343.733 208.696)" fill="#333333"/>
<path fill-rule="evenodd" clip-rule="evenodd" d="M342.102 207.434C340.574 209.844 342.191 213.423 345.512 215.529C348.833 217.636 352.76 217.572 354.288 215.162C355.816 212.753 354.199 209.173 350.878 207.067C347.557 204.961 343.63 205.024 342.102 207.434ZM343.427 208.273C344.399 206.741 347.36 206.693 350.038 208.391C352.715 210.089 353.934 212.789 352.963 214.321C351.991 215.853 349.03 215.901 346.353 214.203C343.675 212.505 342.456 209.805 343.427 208.273Z" fill="white"/>
<path fill-rule="evenodd" clip-rule="evenodd" d="M347.327 210.766C348.536 208.854 350.443 207.97 352.307 208.466C352.726 208.577 352.975 209.007 352.863 209.426C352.752 209.845 352.322 210.094 351.903 209.982C350.774 209.682 349.58 210.213 348.713 211.513L348.641 211.623C347.915 212.707 347.927 214.127 348.673 215.199C348.92 215.554 348.833 216.043 348.477 216.291C348.121 216.539 347.632 216.451 347.385 216.095C346.295 214.529 346.253 212.467 347.255 210.877L347.327 210.766Z" fill="white"/>
<path fill-rule="evenodd" clip-rule="evenodd" d="M326.344 204.181C326.397 203.751 326.788 203.445 327.218 203.498C327.648 203.551 327.954 203.942 327.901 204.372C327.266 209.539 331.202 215.815 337.963 220.093C346.35 225.414 355.379 225.342 358.696 220.111C358.928 219.746 359.413 219.637 359.779 219.869C360.145 220.101 360.254 220.586 360.021 220.952C356.143 227.067 346.151 227.147 337.123 221.419C329.897 216.846 325.624 210.033 326.344 204.181Z" fill="white"/>
<path fill-rule="evenodd" clip-rule="evenodd" d="M319.343 195.417L283.305 185.828L274.482 215.718C272.571 222.184 279.009 229.788 288.856 232.699C298.703 235.61 308.241 232.726 310.151 226.256L311.108 225.472L309.563 226.123L319.343 195.417Z" fill="#333333"/>
<ellipse rx="12.2139" ry="18.5958" transform="matrix(0.283318 -0.959026 0.959009 0.283374 301.382 190.287)" fill="#333333"/>
<path fill-rule="evenodd" clip-rule="evenodd" d="M299.471 189.525C298.662 192.261 301.199 195.26 304.97 196.374C308.742 197.489 312.5 196.35 313.309 193.614C314.117 190.878 311.58 187.879 307.809 186.765C304.038 185.65 300.279 186.788 299.471 189.525ZM300.975 189.968C301.489 188.229 304.324 187.37 307.364 188.268C310.404 189.167 312.317 191.428 311.803 193.168C311.289 194.908 308.454 195.766 305.414 194.868C302.374 193.97 300.461 191.708 300.975 189.968Z" fill="white"/>
<path fill-rule="evenodd" clip-rule="evenodd" d="M309.55 187.703C309.984 187.697 310.34 188.043 310.347 188.476C310.354 188.909 310.008 189.266 309.575 189.273C308.409 189.291 307.41 190.131 306.93 191.624L306.892 191.747C306.491 192.989 306.891 194.351 307.902 195.179C308.237 195.453 308.286 195.948 308.012 196.283C307.738 196.618 307.243 196.668 306.908 196.393C305.43 195.184 304.825 193.209 305.356 191.403L305.393 191.283C306.035 189.109 307.623 187.733 309.55 187.703Z" fill="white"/>
<path fill-rule="evenodd" clip-rule="evenodd" d="M282.8 184.801C282.923 184.386 283.359 184.148 283.775 184.271C284.19 184.394 284.428 184.83 284.305 185.246C282.259 192.173 284.266 196.53 292.475 200.242C301.685 204.401 311.938 203.695 315.903 198.518C316.167 198.174 316.659 198.109 317.003 198.372C317.347 198.636 317.413 199.129 317.149 199.473C312.656 205.338 301.629 206.098 291.828 201.672C282.907 197.637 280.532 192.481 282.8 184.801Z" fill="white"/>
<path fill-rule="evenodd" clip-rule="evenodd" d="M284.855 218.641L326.636 227.724L319.029 262.734C317.381 270.31 306.695 274.422 295.157 271.915C283.619 269.408 275.6 261.231 277.248 253.651L284.855 218.641Z" fill="#FEBA91"/>
<path fill-rule="evenodd" clip-rule="evenodd" d="M283.705 218.391L276.098 253.401L276.048 253.642C274.46 261.931 282.947 270.466 294.907 273.065C307.002 275.693 318.366 271.323 320.179 262.984L327.786 227.974C327.924 227.338 327.521 226.712 326.886 226.574L285.105 217.49C284.47 217.352 283.843 217.755 283.705 218.391ZM285.755 220.041L325.236 228.624L317.879 262.484C316.397 269.299 306.385 273.15 295.407 270.765C284.547 268.405 277.059 260.874 278.357 254.1L278.401 253.887L285.755 220.041Z" fill="#333333"/>
<ellipse rx="14.0424" ry="21.3773" transform="matrix(0.212326 -0.977199 0.977189 0.212371 305.943 222.231)" fill="#FEBA91"/>
<path fill-rule="evenodd" clip-rule="evenodd" d="M291.817 218.932C291.082 222.315 294.361 225.66 298.909 226.648C303.457 227.637 307.828 225.954 308.563 222.571C309.298 219.188 306.019 215.843 301.471 214.855C296.923 213.866 292.552 215.549 291.817 218.932ZM294.117 219.43C294.521 217.571 297.54 216.409 300.971 217.154C304.401 217.9 306.666 220.21 306.262 222.07C305.858 223.93 302.838 225.092 299.408 224.347C295.978 223.601 293.713 221.29 294.117 219.43Z" fill="#333333"/>
<path fill-rule="evenodd" clip-rule="evenodd" d="M297.688 215.293C298.009 214.728 298.727 214.53 299.293 214.851C301.292 215.987 302.183 218.314 301.674 220.887L301.644 221.028C301.201 223.344 299.385 225.152 297.068 225.585C296.429 225.704 295.814 225.283 295.695 224.644C295.58 224.028 295.967 223.434 296.568 223.286L296.635 223.271C297.964 223.022 299.013 222.007 299.315 220.669L299.338 220.557C299.699 218.894 299.236 217.58 298.21 216.945L298.13 216.898C297.565 216.577 297.367 215.858 297.688 215.293Z" fill="#333333"/>
<path fill-rule="evenodd" clip-rule="evenodd" d="M283.903 217.441C282.091 225.781 290.616 234.475 302.712 237.103C314.808 239.732 326.171 235.362 327.983 227.022C329.795 218.682 321.27 209.988 309.175 207.359C297.079 204.73 285.715 209.101 283.903 217.441ZM286.204 217.941C287.685 211.125 297.696 207.274 308.675 209.66C319.653 212.046 327.164 219.705 325.683 226.522C324.202 233.338 314.19 237.189 303.212 234.803C292.233 232.417 284.723 224.758 286.204 217.941Z" fill="#333333"/>
<path fill-rule="evenodd" clip-rule="evenodd" d="M236.173 188.947V234.013C236.173 243.43 222.316 251.026 205.223 251.026C188.13 251.026 174.273 243.41 174.273 234.013V188.947H236.173Z" fill="white"/>
<path fill-rule="evenodd" clip-rule="evenodd" d="M236.173 187.77H174.273C173.623 187.77 173.096 188.297 173.096 188.947V234.013C173.096 244.25 187.566 252.203 205.223 252.203C222.893 252.203 237.35 244.263 237.35 234.013V188.947C237.35 188.297 236.823 187.77 236.173 187.77ZM175.45 190.124H234.996V234.013C234.996 242.583 221.765 249.849 205.223 249.849L204.728 249.847C188.429 249.703 175.45 242.484 175.45 234.013V190.124Z" fill="#333333"/>
<ellipse cx="205.211" cy="187.044" rx="30.9496" ry="12.9988" fill="white"/>
<path fill-rule="evenodd" clip-rule="evenodd" d="M205.211 172.868C187.531 172.868 173.085 178.936 173.085 187.044C173.085 195.153 187.531 201.22 205.211 201.22C222.891 201.22 237.338 195.153 237.338 187.044C237.338 178.936 222.891 172.868 205.211 172.868ZM205.211 175.223C221.717 175.223 234.984 180.795 234.984 187.044C234.984 193.294 221.717 198.866 205.211 198.866C188.705 198.866 175.439 193.294 175.439 187.044C175.439 180.795 188.705 175.223 205.211 175.223Z" fill="#333333"/>
<path fill-rule="evenodd" clip-rule="evenodd" d="M205.211 199.435C205.838 199.435 206.35 199.925 206.386 200.543L206.388 200.612V202.966C206.388 203.616 205.861 204.143 205.211 204.143C204.584 204.143 204.072 203.653 204.036 203.035L204.034 202.966V200.612C204.034 199.962 204.561 199.435 205.211 199.435Z" fill="#333333"/>
<path fill-rule="evenodd" clip-rule="evenodd" d="M204.034 207.898V212.83C204.034 213.48 204.561 214.007 205.211 214.007C205.861 214.007 206.388 213.48 206.388 212.83V207.898C206.388 207.248 205.861 206.721 205.211 206.721C204.561 206.721 204.034 207.248 204.034 207.898ZM204.034 217.762V222.694C204.034 223.344 204.561 223.871 205.211 223.871C205.861 223.871 206.388 223.344 206.388 222.694V217.762C206.388 217.112 205.861 216.585 205.211 216.585C204.561 216.585 204.034 217.112 204.034 217.762ZM204.034 227.626V232.558C204.034 233.208 204.561 233.735 205.211 233.735C205.861 233.735 206.388 233.208 206.388 232.558V227.626C206.388 226.976 205.861 226.449 205.211 226.449C204.561 226.449 204.034 226.976 204.034 227.626ZM204.034 237.49V242.421C204.034 243.072 204.561 243.599 205.211 243.599C205.861 243.599 206.388 243.072 206.388 242.421V237.49C206.388 236.839 205.861 236.312 205.211 236.312C204.561 236.312 204.034 236.839 204.034 237.49Z" fill="#333333"/>
<path fill-rule="evenodd" clip-rule="evenodd" d="M205.211 246.168C205.838 246.168 206.35 246.658 206.386 247.276L206.388 247.346V249.7C206.388 250.35 205.861 250.877 205.211 250.877C204.584 250.877 204.072 250.387 204.036 249.769L204.034 249.7V247.346C204.034 246.695 204.561 246.168 205.211 246.168Z" fill="#333333"/>
<ellipse cx="205.211" cy="186.479" rx="8.96826" ry="2.46792" fill="#333333"/>
<path fill-rule="evenodd" clip-rule="evenodd" d="M286.55 196.304V241.366C286.55 250.783 272.693 258.383 255.6 258.383C238.507 258.383 224.646 250.763 224.646 241.366V196.304H286.55Z" fill="white"/>
<path fill-rule="evenodd" clip-rule="evenodd" d="M286.55 195.127H224.646C223.996 195.127 223.469 195.654 223.469 196.304V241.366C223.469 251.603 237.943 259.56 255.6 259.56C273.268 259.56 287.726 251.616 287.726 241.366V196.304C287.726 195.654 287.2 195.127 286.55 195.127ZM225.823 197.481H285.372L285.373 241.366C285.373 249.936 272.141 257.206 255.6 257.206L255.105 257.203C238.807 257.06 225.823 249.838 225.823 241.366L225.823 197.481Z" fill="#333333"/>
<ellipse cx="255.6" cy="194.401" rx="30.9496" ry="12.9988" fill="white"/>
<path fill-rule="evenodd" clip-rule="evenodd" d="M255.6 180.225C237.92 180.225 223.473 186.293 223.473 194.401C223.473 202.509 237.92 208.577 255.6 208.577C273.28 208.577 287.726 202.509 287.726 194.401C287.726 186.293 273.28 180.225 255.6 180.225ZM255.6 182.579C272.106 182.579 285.373 188.151 285.373 194.401C285.373 200.651 272.106 206.223 255.6 206.223C239.094 206.223 225.827 200.651 225.827 194.401C225.827 188.151 239.094 182.579 255.6 182.579Z" fill="#333333"/>
<path fill-rule="evenodd" clip-rule="evenodd" d="M238.523 204.433C239.149 204.433 239.662 204.923 239.697 205.541L239.699 205.611V207.965C239.699 208.615 239.173 209.142 238.523 209.142C237.896 209.142 237.383 208.652 237.348 208.034L237.346 207.965V205.611C237.346 204.96 237.873 204.433 238.523 204.433Z" fill="#333333"/>
<path fill-rule="evenodd" clip-rule="evenodd" d="M237.346 212.897V217.829C237.346 218.479 237.873 219.006 238.523 219.006C239.173 219.006 239.699 218.479 239.699 217.829V212.897C239.699 212.247 239.173 211.72 238.523 211.72C237.873 211.72 237.346 212.247 237.346 212.897ZM237.346 222.761V227.692C237.346 228.343 237.873 228.87 238.523 228.87C239.173 228.87 239.699 228.343 239.699 227.692V222.761C239.699 222.11 239.173 221.583 238.523 221.583C237.873 221.583 237.346 222.11 237.346 222.761ZM237.346 232.624V237.556C237.346 238.206 237.873 238.733 238.523 238.733C239.173 238.733 239.699 238.206 239.699 237.556V232.624C239.699 231.974 239.173 231.447 238.523 231.447C237.873 231.447 237.346 231.974 237.346 232.624ZM237.346 242.488V247.42C237.346 248.07 237.873 248.597 238.523 248.597C239.173 248.597 239.699 248.07 239.699 247.42V242.488C239.699 241.838 239.173 241.311 238.523 241.311C237.873 241.311 237.346 241.838 237.346 242.488Z" fill="#333333"/>
<path fill-rule="evenodd" clip-rule="evenodd" d="M238.523 251.163C239.149 251.163 239.662 251.653 239.697 252.271L239.699 252.34V254.694C239.699 255.344 239.173 255.871 238.523 255.871C237.896 255.871 237.383 255.381 237.348 254.764L237.346 254.694V252.34C237.346 251.69 237.873 251.163 238.523 251.163Z" fill="#333333"/>
<ellipse cx="255.6" cy="193.836" rx="8.96829" ry="2.46792" fill="#333333"/>
<path fill-rule="evenodd" clip-rule="evenodd" d="M272.324 214.062V253.231C272.324 262.648 258.468 270.244 241.375 270.244C224.282 270.244 210.425 262.628 210.425 253.231V214.062H272.324Z" fill="white"/>
<path fill-rule="evenodd" clip-rule="evenodd" d="M272.324 212.885H210.425C209.775 212.885 209.248 213.412 209.248 214.062V253.231C209.248 263.467 223.717 271.421 241.375 271.421C259.044 271.421 273.501 263.481 273.501 253.231V214.062C273.501 213.412 272.974 212.885 272.324 212.885ZM211.602 215.239H271.147L271.147 253.231C271.147 261.8 257.917 269.066 241.375 269.066L240.88 269.064C224.581 268.921 211.602 261.702 211.602 253.231L211.602 215.239Z" fill="#333333"/>
<ellipse cx="241.375" cy="212.159" rx="30.9496" ry="12.9988" fill="white"/>
<path fill-rule="evenodd" clip-rule="evenodd" d="M241.375 197.983C223.695 197.983 209.248 204.051 209.248 212.159C209.248 220.267 223.695 226.335 241.375 226.335C259.055 226.335 273.501 220.267 273.501 212.159C273.501 204.051 259.055 197.983 241.375 197.983ZM241.375 200.337C257.881 200.337 271.147 205.909 271.147 212.159C271.147 218.409 257.881 223.981 241.375 223.981C224.869 223.981 211.602 218.409 211.602 212.159C211.602 205.909 224.869 200.337 241.375 200.337Z" fill="#333333"/>
<path fill-rule="evenodd" clip-rule="evenodd" d="M247.55 223.977C248.176 223.977 248.689 224.467 248.725 225.085L248.727 225.154V227.508C248.727 228.158 248.2 228.685 247.55 228.685C246.923 228.685 246.41 228.195 246.375 227.577L246.373 227.508V225.154C246.373 224.504 246.9 223.977 247.55 223.977Z" fill="#333333"/>
<path fill-rule="evenodd" clip-rule="evenodd" d="M246.373 231.785V236.061C246.373 236.712 246.9 237.238 247.55 237.238C248.2 237.238 248.727 236.712 248.727 236.061V231.785C248.727 231.135 248.2 230.608 247.55 230.608C246.9 230.608 246.373 231.135 246.373 231.785ZM246.373 240.338V244.615C246.373 245.265 246.9 245.792 247.55 245.792C248.2 245.792 248.727 245.265 248.727 244.615V240.338C248.727 239.688 248.2 239.161 247.55 239.161C246.9 239.161 246.373 239.688 246.373 240.338ZM246.373 248.891V253.168C246.373 253.818 246.9 254.345 247.55 254.345C248.2 254.345 248.727 253.818 248.727 253.168V248.891C248.727 248.241 248.2 247.714 247.55 247.714C246.9 247.714 246.373 248.241 246.373 248.891ZM246.373 257.445V261.722C246.373 262.372 246.9 262.899 247.55 262.899C248.2 262.899 248.727 262.372 248.727 261.722V257.445C248.727 256.795 248.2 256.268 247.55 256.268C246.9 256.268 246.373 256.795 246.373 257.445Z" fill="#333333"/>
<path fill-rule="evenodd" clip-rule="evenodd" d="M247.55 264.817C248.176 264.817 248.689 265.307 248.725 265.925L248.727 265.994V268.348C248.727 268.999 248.2 269.526 247.55 269.526C246.923 269.526 246.41 269.036 246.375 268.418L246.373 268.348V265.994C246.373 265.344 246.9 264.817 247.55 264.817Z" fill="#333333"/>
<ellipse cx="241.375" cy="211.594" rx="8.96828" ry="2.46793" fill="#333333"/>
<rect width="4.8059" height="19.5352" transform="matrix(0.946018 -0.324115 0.32405 0.94604 150.734 152.088)" fill="#333333"/>
<rect width="16.8265" height="19.5352" transform="matrix(0.946018 -0.324115 0.32405 0.94604 149.134 166.404)" fill="#333333"/>
<rect width="45.6109" height="113.201" rx="22.8054" transform="matrix(0.944078 -0.329723 0.329658 0.9441 139.895 181.316)" fill="#FEBA91"/>
<path fill-rule="evenodd" clip-rule="evenodd" d="M200.908 205.144L194.944 188.06L183.995 191.862C179.378 187.604 172.767 186.287 166.871 188.452C160.976 190.617 156.787 195.9 156.023 202.134L144.238 206.772L149.977 223.208L163.402 218.107C167.771 221.002 173.243 221.685 178.189 219.952C183.135 218.22 186.985 214.271 188.593 209.283L200.908 205.144Z" fill="white"/>
<path fill-rule="evenodd" clip-rule="evenodd" d="M161.151 143.277C161.151 143.277 162.002 149.688 152.225 152.478C142.551 155.224 141.217 148.083 143.32 147.083C144.779 146.388 153.689 141.943 159.012 139.279C161.782 137.891 164.792 137.05 167.879 136.799C168.834 136.705 169.794 136.659 170.754 136.662C173.811 136.815 173.818 140.397 170.303 140.585C166.259 140.77 161.151 143.277 161.151 143.277Z" fill="#333333"/>
<path fill-rule="evenodd" clip-rule="evenodd" d="M183.995 205.666L181.033 196.991L176.054 198.693L174.352 193.71L165.678 196.673L167.38 201.656L162.398 203.359L165.36 212.034L170.342 210.331L172.041 215.314L180.715 212.351L179.016 207.368L183.995 205.666Z" fill="#333333"/>
<path fill-rule="evenodd" clip-rule="evenodd" d="M237.706 224.848C235.659 223.91 218.032 227.069 208.369 228.669C208.369 228.669 222.202 224.993 227.985 222.505C233.768 220.018 232.347 215.443 229.268 215.176C227.569 215.039 213.089 218.79 198.95 224.259C200.064 221.081 203.403 210.374 197.965 209.405C191.723 208.29 191.763 222.274 179.028 233.872C176.023 235.834 173.626 237.835 172.186 239.84L142.41 248.891L156.588 296.661L181.472 261.702C189.989 266.147 212.218 255.518 212.218 255.518C230.919 254.11 231.732 248.354 228.487 247.483C225.243 246.612 209.495 246.945 209.495 246.945C209.495 246.945 211.496 245.27 224.795 245.062C238.095 244.854 236.922 237.27 234.187 236.591C231.453 235.912 208.82 238.098 208.82 238.098L232.979 233.193C239.55 232.295 240.829 226.272 237.706 224.848Z" fill="#FE7624"/>
<path fill-rule="evenodd" clip-rule="evenodd" d="M326.895 235.641L284.721 245.564C284.066 245.36 283.011 244.987 283.011 244.987C264.988 244.36 255.965 232.769 251.689 237.65C248.715 241.044 254.376 245.858 258.107 248.479C244.803 252.262 232.038 257.778 230.68 258.881C228.271 260.819 229.668 265.414 235.851 264.233C242.034 263.052 255.553 258.347 255.553 258.347C246.647 262.436 230.284 269.702 229.111 271.621C227.326 274.555 231.759 278.824 237.742 275.87L260.496 266.387C260.496 266.387 240.508 277.263 238.625 279.358C236.741 281.453 240.033 288.382 251.147 281.112C262.261 273.841 264.878 274.104 264.878 274.104C264.878 274.104 251.736 283.642 249.539 286.181C247.342 288.72 256.557 295.205 268.052 284.082C268.052 284.082 289.311 276.352 292.101 271.919L337.028 286.146L326.895 235.641Z" fill="#FE7624"/>
<path fill-rule="evenodd" clip-rule="evenodd" d="M539.533 305.505C540.183 305.505 540.71 306.032 540.71 306.682C540.71 307.309 540.22 307.821 539.602 307.857L539.533 307.859H1.17694C0.526934 307.859 0 307.332 0 306.682C0 306.055 0.489968 305.542 1.10779 305.507L1.17694 305.505H539.533Z" fill="#333333"/>
</svg>
